<?xml version="1.0" ?>
<!-- Uploaded to: SVG Repo, www.svgrepo.com, Generator: SVG Repo Mixer Tools -->
<svg width="800px" height="800px" viewBox="0 0 64 64" xmlns="http://www.w3.org/2000/svg">
<g id="a"/>
<g id="b"/>
<g id="c"/>
<g id="d"/>
<g id="e"/>
<g id="f"/>
<g id="g"/>
<g id="h"/>
<g id="i"/>
<g id="j"/>
<g id="k"/>
<g id="l"/>
<g id="m"/>
<g id="n"/>
<g id="o"/>
<g id="p"/>
<g id="q">
<path d="M36.04,12.97c8.8,1.86,15.41,9.67,15.41,19.03,0,10.74-8.71,19.45-19.45,19.45s-19.45-8.71-19.45-19.45c0-9.36,6.61-17.17,15.41-19.03h8.07Z" fill="#8996a8" fill-rule="evenodd"/>
<path d="M32.73,13.21c-.4-.4-1.05-.4-1.45,0-.4,.4-.4,1.05,0,1.45,.4,.4,1.05,.4,1.45,0,.4-.4,.4-1.05,0-1.45Z" fill="#e8a3c1" fill-rule="evenodd"/>
<path d="M40.34,23.58c-1.51-1.51-3.4-2.58-5.46-3.1l-2.88-.9-8.33,4.01c-2.21,2.21-3.46,5.2-3.47,8.33l3.49,8.31c2.2,2.22,5.19,3.47,8.31,3.49l8.34-3.46c2.21-2.21,3.46-5.21,3.46-8.34l-3.46-8.35Z" fill="#e8a3c1" fill-rule="evenodd"/>
<path d="M32,31.93h-11.8c.02,3.12,1.27,6.11,3.49,8.31l8.31-8.31Z" fill="#f0f3f5" fill-rule="evenodd"/>
<path d="M32,31.93v11.8c3.13,0,6.13-1.25,8.34-3.46l-8.34-8.34Z" fill="#f0f3f5" fill-rule="evenodd"/>
<path d="M32,31.93h11.8c0-3.13-1.24-6.13-3.46-8.35l-8.34,8.35Z" fill="#f0f3f5" fill-rule="evenodd"/>
<path d="M32,19.59l-2.88,.9c-2.06,.53-3.95,1.61-5.45,3.12l8.33,8.33v-12.34Z" fill="#f0f3f5" fill-rule="evenodd"/>
<path d="M32.77,12.97c8.8,1.86,15.41,9.67,15.41,19.03,0,10.19-7.84,18.54-17.81,19.37,.54,.05,1.08,.07,1.64,.07,10.74,0,19.45-8.71,19.45-19.45,0-9.36-6.61-17.17-15.41-19.03h-3.27Z" fill="#7a8594" fill-rule="evenodd"/>
<path d="M36.12,14.06c0,4.98-4.12,10.61-4.12,10.61,0,0-4.12-5.63-4.12-10.61,0-3.12,1.84-4.42,4.12-4.42s4.12,1.3,4.12,4.42Z" fill="#f5e680" fill-rule="evenodd"/>
<path d="M36.82,12.17c-.62-2.19-2.33-3.53-4.82-3.53s-4.2,1.33-4.82,3.53c-9.08,2.21-15.63,10.43-15.63,19.83,0,11.27,9.17,20.45,20.45,20.45s20.45-9.17,20.45-20.45c0-9.4-6.55-17.62-15.63-19.83Zm5.89,18.83h-8.3l5.88-5.88c1.36,1.64,2.21,3.68,2.42,5.88Zm-17.57,9.27l5.86-5.86v8.29c-2.22-.21-4.23-1.08-5.86-2.43Zm-3.84-7.27h8.29l-5.86,5.86c-1.35-1.63-2.22-3.64-2.43-5.86Zm9.7-8.01v4.59l-5.88-5.88c1.13-.94,2.45-1.64,3.91-2.05,.82,1.62,1.62,2.83,1.97,3.34Zm-7.3,.12l5.88,5.88h-8.3c.21-2.2,1.06-4.24,2.42-5.88Zm9.3,9.3l5.86,5.86c-1.63,1.35-3.64,2.22-5.86,2.43v-8.29Zm7.27,4.45l-5.86-5.86h8.29c-.21,2.22-1.08,4.23-2.43,5.86Zm-7.27-9.27v-4.59c.35-.5,1.15-1.72,1.97-3.34,1.46,.42,2.78,1.12,3.91,2.05l-5.88,5.88Zm-1-18.94c1.42,0,3.12,.59,3.12,3.42,0,3.27-1.97,6.94-3.12,8.8-1.15-1.86-3.12-5.52-3.12-8.8,0-2.83,1.7-3.42,3.12-3.42Zm0,39.8c-10.17,0-18.45-8.28-18.45-18.45,0-8.22,5.56-15.41,13.35-17.66,.05,1.87,.59,3.79,1.29,5.49-5.51,1.73-8.99,6.87-8.99,12.17,0,7.04,5.72,12.8,12.8,12.8s12.8-5.72,12.8-12.8c0-5.27-3.45-10.43-8.99-12.17,.7-1.7,1.24-3.62,1.29-5.49,7.79,2.25,13.35,9.44,13.35,17.66,0,10.17-8.28,18.45-18.45,18.45Z"/>
<path d="M32,58c-.55,0-1,.45-1,1s.45,1,1,1c2.01,0,4.01-.21,5.94-.63,.54-.12,.88-.65,.77-1.19s-.65-.88-1.19-.77c-1.8,.39-3.66,.59-5.52,.59Z"/>
<path d="M50.38,50.38c-2.33,2.33-5.05,4.18-8.07,5.49-.51,.22-.74,.81-.52,1.32,.16,.38,.53,.6,.92,.6,.13,0,.27-.03,.4-.08,3.25-1.41,6.17-3.4,8.69-5.91,.39-.39,.39-1.02,0-1.41s-1.02-.39-1.41,0Z"/>
<path d="M54.74,13.91c.55,0,1-.45,1-1s-.45-1-1-1h-3.65c-.55,0-1,.45-1,1v3.65c0,.55,.45,1,1,1s1-.45,1-1v-1.06c3.83,4.64,5.91,10.41,5.91,16.5,0,4.54-1.19,9.01-3.43,12.92-.28,.48-.11,1.09,.37,1.37,.16,.09,.33,.13,.5,.13,.35,0,.68-.18,.87-.5,2.42-4.22,3.7-9.03,3.7-13.92,0-6.7-2.36-13.04-6.65-18.09h1.4Z"/>
<path d="M26.48,6.59c1.8-.39,3.66-.59,5.52-.59,.55,0,1-.45,1-1s-.45-1-1-1c-2.01,0-4.01,.21-5.94,.63-.54,.12-.88,.65-.77,1.19,.1,.47,.52,.79,.98,.79,.07,0,.14,0,.21-.02Z"/>
<path d="M13.62,13.62c2.33-2.33,5.05-4.18,8.07-5.49,.51-.22,.74-.81,.52-1.32-.22-.51-.8-.74-1.32-.52-3.25,1.41-6.17,3.4-8.69,5.91-.39,.39-.39,1.02,0,1.41,.2,.2,.45,.29,.71,.29s.51-.1,.71-.29Z"/>
<path d="M10.65,50.09h-1.4c-.55,0-1,.45-1,1s.45,1,1,1h3.65c.55,0,1-.45,1-1v-3.65c0-.55-.45-1-1-1s-1,.45-1,1v1.06c-3.83-4.64-5.91-10.41-5.91-16.5,0-4.54,1.19-9.01,3.43-12.92,.28-.48,.11-1.09-.37-1.37-.48-.28-1.09-.11-1.37,.37-2.42,4.22-3.7,9.03-3.7,13.92,0,6.7,2.36,13.04,6.65,18.09Z"/>
<path d="M32,46.6c-.56,0-1.03,.46-1.03,1.03s.46,1.03,1.03,1.03,1.03-.46,1.03-1.03-.46-1.03-1.03-1.03Z"/>
<path d="M47.62,30.97c-.56,0-1.03,.46-1.03,1.03s.46,1.03,1.03,1.03,1.03-.46,1.03-1.03-.46-1.03-1.03-1.03Z"/>
<path d="M16.38,30.97c-.56,0-1.03,.46-1.03,1.03s.46,1.03,1.03,1.03,1.03-.46,1.03-1.03-.46-1.03-1.03-1.03Z"/>
<path d="M43.05,19.92c-.27,0-.53,.11-.73,.3-.19,.19-.3,.45-.3,.73s.11,.53,.3,.73c.19,.19,.45,.3,.73,.3s.53-.11,.73-.3c.19-.19,.3-.45,.3-.73s-.11-.53-.3-.73c-.19-.19-.45-.3-.73-.3Z"/>
<path d="M20.95,42.02c-.27,0-.53,.11-.73,.3s-.3,.45-.3,.73,.11,.53,.3,.73c.19,.19,.45,.3,.73,.3s.53-.11,.73-.3,.3-.45,.3-.73-.11-.53-.3-.73c-.19-.19-.45-.3-.73-.3Z"/>
<path d="M43.05,42.02c-.27,0-.53,.11-.73,.3-.19,.19-.3,.45-.3,.73s.11,.53,.3,.73,.45,.3,.73,.3,.53-.11,.73-.3c.19-.19,.3-.45,.3-.73s-.11-.53-.3-.73c-.19-.19-.45-.3-.73-.3Z"/>
<path d="M20.95,21.98c.27,0,.53-.11,.73-.3,.19-.19,.3-.45,.3-.73s-.11-.53-.3-.73c-.19-.19-.45-.3-.73-.3s-.53,.11-.73,.3c-.19,.19-.3,.45-.3,.73s.11,.53,.3,.73,.45,.3,.73,.3Z"/>
<path d="M32,14.96c.27,0,.53-.11,.73-.3s.3-.45,.3-.73-.11-.53-.3-.73c-.19-.19-.45-.3-.73-.3s-.53,.11-.73,.3c-.19,.19-.3,.45-.3,.73s.11,.53,.3,.73,.46,.3,.73,.3Z"/>
</g>
<g id="r"/>
<g id="s"/>
<g id="t"/>
<g id="u"/>
<g id="v"/>
<g id="w"/>
<g id="x"/>
<g id="y"/>
<g id="a`"/>
<g id="aa"/>
<g id="ab"/>
<g id="ac"/>
<g id="ad"/>
<g id="ae"/>
<g id="af"/>
<g id="ag"/>
<g id="ah"/>
<g id="ai"/>
<g id="aj"/>
<g id="ak"/>
<g id="al"/>
<g id="am"/>
<g id="an"/>
<g id="ao"/>
<g id="ap"/>
<g id="aq"/>
<g id="ar"/>
<g id="as"/>
<g id="at"/>
<g id="au"/>
<g id="av"/>
<g id="aw"/>
<g id="ax"/>
</svg>