<svg width="32" height="32" viewBox="0 0 32 32" fill="none" xmlns="http://www.w3.org/2000/svg">
<g clip-path="url(#clip0_1_9205)">
<path d="M16 0C24.8366 0 32 7.16344 32 16C32 24.8366 24.8366 32 16 32C7.16344 32 0 24.8366 0 16C0 7.16344 7.16344 0 16 0ZM16 2C8.26801 2 2 8.26801 2 16C2 23.732 8.26801 30 16 30C23.732 30 30 23.732 30 16C30 8.26801 23.732 2 16 2ZM22.1943 12C22.5647 12 22.9046 12.056 23.2139 12.167C23.5267 12.2744 23.7969 12.4225 24.0234 12.6123C24.2499 12.802 24.4259 13.0278 24.5518 13.2891C24.6776 13.5469 24.7412 13.8284 24.7412 14.1328C24.7412 14.5338 24.6527 14.8776 24.4766 15.1641C24.3003 15.4506 24.0338 15.6748 23.6777 15.8359C23.9115 15.9183 24.1119 16.0208 24.2773 16.1426C24.4463 16.2643 24.5833 16.404 24.6875 16.5615C24.7953 16.7155 24.8745 16.8874 24.9248 17.0771C24.9752 17.2634 25 17.4625 25 17.6738C25 18.0247 24.9316 18.3434 24.7949 18.6299C24.6618 18.9164 24.4708 19.162 24.2227 19.3662C23.9781 19.5667 23.683 19.722 23.3379 19.833C22.9927 19.944 22.6115 20 22.1943 20C21.7772 20 21.396 19.944 21.0508 19.833C20.7055 19.722 20.4083 19.5668 20.1602 19.3662C19.9156 19.1621 19.7255 18.9164 19.5889 18.6299C19.4558 18.3434 19.3887 18.0248 19.3887 17.6738C19.3887 17.4625 19.4122 17.2634 19.459 17.0771C19.5093 16.8873 19.5871 16.7155 19.6914 16.5615C19.7993 16.404 19.9361 16.2643 20.1016 16.1426C20.2706 16.0208 20.4736 15.9183 20.7109 15.8359C20.3513 15.6748 20.0835 15.4506 19.9072 15.1641C19.7347 14.8776 19.6484 14.5339 19.6484 14.1328C19.6485 13.8284 19.711 13.5469 19.8369 13.2891C19.9628 13.0278 20.1388 12.802 20.3652 12.6123C20.5917 12.4226 20.8599 12.2744 21.1689 12.167C21.4818 12.056 21.8239 12 22.1943 12ZM17.3486 18.7109H18.6436V19.9141H14.166V18.7109H15.6768V14.7617C15.6768 14.5683 15.6816 14.3656 15.6924 14.1543L14.8027 14.8906C14.7453 14.9371 14.6873 14.9707 14.6299 14.9922C14.5723 15.0101 14.5159 15.0195 14.4619 15.0195C14.3686 15.0195 14.2844 14.9993 14.209 14.96C14.1371 14.917 14.0828 14.8727 14.0469 14.8262L13.5186 14.1279L15.9678 12.0811H17.3486V18.7109ZM10.3447 15.707H12.3408V16.9004H10.3447V19.0381H8.98535V16.9004H7V15.707H8.98535V13.5791H10.3447V15.707ZM22.1943 16.5078C21.9895 16.5078 21.817 16.5365 21.6768 16.5938C21.5401 16.6475 21.4304 16.7249 21.3477 16.8252C21.265 16.9219 21.2049 17.0401 21.1689 17.1797C21.1331 17.3193 21.1152 17.4734 21.1152 17.6416C21.1153 17.7954 21.1353 17.9402 21.1748 18.0762C21.218 18.2087 21.2828 18.3255 21.3691 18.4258C21.459 18.5224 21.5702 18.5999 21.7031 18.6572C21.8398 18.7145 22.0038 18.7431 22.1943 18.7432C22.3812 18.7432 22.5431 18.7144 22.6797 18.6572C22.8164 18.5999 22.9283 18.5225 23.0146 18.4258C23.1045 18.3255 23.1694 18.2087 23.209 18.0762C23.252 17.9402 23.2734 17.7954 23.2734 17.6416C23.2734 17.4734 23.2556 17.3193 23.2197 17.1797C23.1838 17.0402 23.1245 16.9218 23.042 16.8252C22.9593 16.7249 22.8473 16.6475 22.707 16.5938C22.5704 16.5364 22.3994 16.5078 22.1943 16.5078ZM22.1943 13.2139C22.0255 13.2139 21.8836 13.2413 21.7686 13.2949C21.6535 13.3486 21.558 13.4202 21.4824 13.5098C21.4105 13.5957 21.3585 13.696 21.3262 13.8105C21.2938 13.9251 21.2774 14.0433 21.2773 14.165C21.2773 14.3011 21.2903 14.4336 21.3154 14.5625C21.3406 14.6913 21.3869 14.8061 21.4551 14.9062C21.5234 15.0065 21.6176 15.0875 21.7363 15.1484C21.8549 15.2092 22.0076 15.2402 22.1943 15.2402C22.3814 15.2402 22.5346 15.2093 22.6533 15.1484C22.7719 15.0876 22.8653 15.0065 22.9336 14.9062C23.0018 14.806 23.0491 14.6913 23.0742 14.5625C23.0994 14.4337 23.1113 14.301 23.1113 14.165C23.1113 14.0433 23.0958 13.9251 23.0635 13.8105C23.0311 13.696 22.9769 13.5957 22.9014 13.5098C22.8294 13.4202 22.7339 13.3486 22.6152 13.2949C22.5001 13.2412 22.3598 13.2139 22.1943 13.2139Z" fill="#90949C"/>
</g>
<defs>
<clipPath id="clip0_1_9205">
<rect width="32" height="32" fill="white"/>
</clipPath>
</defs>
</svg>
