<svg width="30" height="40" viewBox="0 0 30 40" fill="none" xmlns="http://www.w3.org/2000/svg">
<path d="M0 2.112V6.29333V12.096C0 12.2667 0 12.352 0 12.5227C0 12.6933 0 12.7787 0 12.9493C0 13.5467 0 14.2293 0.0842697 14.9973C0.252809 17.472 0.842697 20.8853 2.19101 24.4693C4.21348 29.5893 7.75281 35.136 14.2416 39.488L15 40L15.7584 39.488C16.3483 39.0613 16.9382 38.6347 17.5281 38.208C22.5843 34.368 25.618 29.76 27.3876 25.4933C27.5562 25.152 27.6405 24.896 27.7247 24.5547C27.809 24.2133 27.9775 23.9573 28.0618 23.616C29.6629 18.9227 30 14.8267 30 12.608C30 12.5227 30 12.4373 30 12.352V7.31733V6.37867V2.112C20.2247 -0.704 9.77528 -0.704 0 2.112ZM26.7978 2.79467C26.9663 2.79467 27.1348 2.79467 27.2191 2.79467C27.2191 2.79467 27.3034 2.79467 27.3034 2.88V3.648C27.5562 3.73333 27.7247 3.73333 27.9775 3.81867V3.05067C27.9775 3.05067 27.9775 2.96533 28.0618 3.05067C28.1461 3.05067 28.3146 3.136 28.3989 3.136C28.3989 3.136 28.4831 3.136 28.4831 3.22133V5.184C28.4831 5.184 28.4831 5.26933 28.3989 5.26933C28.3146 5.26933 28.1461 5.184 28.0618 5.184C28.0618 5.184 27.9775 5.184 27.9775 5.09867V4.24533C27.7247 4.16 27.5562 4.16 27.3034 4.07467V4.928C27.3034 4.928 27.3034 5.01333 27.2191 5.01333C27.1348 5.01333 26.9663 4.928 26.882 4.928C26.882 4.928 26.7978 4.928 26.7978 4.84267V2.79467ZM21.1517 2.70933C21.1517 2.112 21.4888 1.856 21.8258 1.856C21.9101 1.856 21.9101 1.856 21.9944 1.856C22.4157 1.94133 22.8371 2.19733 22.8371 2.88V3.22133C22.8371 3.904 22.5 4.07467 21.9944 3.98933C21.573 3.904 21.1517 3.648 21.1517 2.96533V2.70933ZM18.8764 18.3253C18.4551 18.4107 18.0337 18.496 17.6124 18.496C17.191 18.496 16.7697 18.4107 16.3483 18.3253L15 16.192L12.6404 15.5093C12.2191 14.7413 11.882 13.888 11.7978 13.0347L13.2303 11.072L13.0618 8.59733C13.1461 8.512 13.2303 8.42667 13.3146 8.34133C13.8202 7.82933 14.4101 7.40267 15.0843 7.06133L17.3596 7.91467L19.5506 7.06133C20.2247 7.40267 20.8146 7.82933 21.3202 8.34133C21.4045 8.42667 21.4888 8.512 21.573 8.68267L21.4888 11.1573L23.0056 13.12C22.9213 14.0587 22.6685 14.912 22.2472 15.5947L19.8876 16.2773L18.8764 18.3253ZM20.0562 18.752V21.824L19.8876 21.6533L17.8652 19.264C17.9494 19.264 18.0337 19.264 18.118 19.264C18.7079 19.1787 19.4663 18.9227 20.0562 18.752ZM18.9607 1.77067C18.9607 1.68533 18.9607 1.68533 19.0449 1.68533C19.1292 1.68533 19.2135 1.68533 19.2978 1.68533C19.382 1.68533 19.382 1.68533 19.382 1.77067C19.5506 2.02667 19.6348 2.368 19.8034 2.624C19.9719 2.368 20.0562 2.112 20.2247 1.856C20.2247 1.77067 20.309 1.77067 20.309 1.77067C20.3933 1.77067 20.4775 1.77067 20.5618 1.77067C20.6461 1.77067 20.6461 1.856 20.6461 1.856V3.81867C20.6461 3.81867 20.6461 3.81867 20.5618 3.81867C20.4775 3.81867 20.309 3.81867 20.2247 3.81867C20.2247 3.81867 20.1404 3.81867 20.1404 3.73333V2.624C20.0562 2.79467 19.9719 2.88 19.8876 3.05067C19.8876 3.05067 19.8034 3.136 19.8034 3.05067C19.7191 3.05067 19.6348 3.05067 19.5506 3.05067C19.5506 3.05067 19.4663 3.05067 19.4663 2.96533C19.382 2.79467 19.2978 2.624 19.2135 2.45333V3.648C19.2135 3.648 19.2135 3.73333 19.1292 3.73333C19.0449 3.73333 18.8764 3.73333 18.7921 3.73333H18.7079V1.77067H18.9607ZM17.2753 2.112C17.2753 1.6 17.5281 1.51467 17.8652 1.51467H17.9494C18.2865 1.51467 18.3708 1.6 18.4551 1.6C18.5393 1.68533 18.5393 1.68533 18.5393 1.68533V1.94133C18.5393 1.94133 18.5393 2.02667 18.4551 2.02667C18.2865 2.02667 18.0337 2.02667 17.8652 2.02667C17.6966 2.02667 17.6966 2.02667 17.6966 2.19733V2.45333C17.9494 2.45333 18.2022 2.45333 18.4551 2.45333C18.4551 2.45333 18.5393 2.45333 18.5393 2.53867V2.79467C18.5393 2.79467 18.5393 2.88 18.4551 2.88C18.2022 2.88 17.9494 2.88 17.6966 2.88V3.22133C17.6966 3.392 17.7809 3.392 17.8652 3.392C18.0337 3.392 18.2865 3.392 18.4551 3.392C18.5393 3.30667 18.5393 3.392 18.5393 3.392V3.648C18.5393 3.648 18.5393 3.73333 18.4551 3.73333C18.3708 3.73333 18.2022 3.73333 17.9494 3.73333C17.6124 3.73333 17.2753 3.648 17.2753 3.05067V2.112ZM15.2528 1.6C15.2528 1.51467 15.3371 1.51467 15.3371 1.51467C15.4213 1.51467 15.5056 1.51467 15.5899 1.51467C15.6742 1.51467 15.6742 1.51467 15.6742 1.6C15.927 2.02667 16.0955 2.368 16.3483 2.79467V1.6C16.3483 1.6 16.3483 1.51467 16.4326 1.51467C16.5169 1.51467 16.6854 1.51467 16.7697 1.51467C16.7697 1.51467 16.8539 1.51467 16.8539 1.6C16.8539 2.28267 16.8539 2.88 16.8539 3.56267C16.8539 3.648 16.7697 3.648 16.7697 3.648C16.6854 3.648 16.6011 3.648 16.5169 3.648C16.4326 3.648 16.4326 3.648 16.3483 3.56267C16.0955 3.22133 15.927 2.79467 15.6742 2.45333V3.56267C15.6742 3.56267 15.6742 3.648 15.5899 3.648C15.5056 3.648 15.3371 3.648 15.2528 3.648C15.2528 3.648 15.1685 3.648 15.1685 3.56267V1.6H15.2528ZM13.3146 1.68533C13.3146 1.6 13.3146 1.6 13.4831 1.51467C13.6517 1.51467 13.8202 1.42933 14.073 1.42933C14.5787 1.42933 14.9157 1.6 14.9157 2.112C14.9157 2.45333 14.7472 2.624 14.5787 2.70933C14.7472 2.96533 14.8315 3.22133 15 3.47733C14.8315 3.47733 14.7472 3.47733 14.5787 3.47733C14.5787 3.47733 14.5787 3.47733 14.4944 3.392C14.4101 3.136 14.2416 2.88 14.1573 2.70933H14.073H13.9888V3.392C13.9888 3.392 13.9888 3.47733 13.9045 3.47733C13.8202 3.47733 13.6517 3.47733 13.5674 3.47733C13.5674 3.47733 13.4831 3.47733 13.4831 3.392V1.68533H13.3146ZM11.3764 1.68533C11.3764 1.6 11.3764 1.68533 11.3764 1.68533C11.5449 1.6 11.7135 1.6 11.7978 1.6C11.7978 1.6 11.882 1.6 11.882 1.68533V2.96533C11.882 3.22133 11.9663 3.392 12.2191 3.392C12.4719 3.392 12.5562 3.22133 12.5562 2.96533V1.6C12.5562 1.6 12.5562 1.51467 12.6404 1.51467C12.7247 1.51467 12.8933 1.51467 12.9775 1.51467C12.9775 1.51467 13.0618 1.51467 13.0618 1.6V2.88C13.0618 3.56267 12.7247 3.73333 12.2191 3.73333C11.7978 3.73333 11.3764 3.648 11.3764 2.96533V1.68533ZM9.35393 2.70933C9.35393 2.02667 9.69101 1.77067 10.1966 1.68533H10.2809C10.7022 1.68533 11.0393 1.94133 11.0393 2.53867V2.88C11.0393 3.56267 10.7022 3.81867 10.1966 3.81867C9.69101 3.81867 9.35393 3.648 9.35393 2.96533V2.70933ZM7.5 2.19733C7.5 2.112 7.5 2.02667 7.66854 2.02667C7.75281 2.02667 8.00562 1.94133 8.17416 1.94133C8.25843 1.94133 8.3427 1.94133 8.42697 1.94133C8.84832 1.94133 9.01685 2.112 9.01685 2.45333V2.53867C9.01685 2.70933 8.93258 2.88 8.76404 2.96533C8.93258 3.05067 9.01685 3.136 9.01685 3.392C9.01685 3.904 8.59551 4.07467 8.17416 4.16C8.00562 4.16 7.75281 4.16 7.66854 4.16C7.58427 4.16 7.5 4.16 7.5 3.98933V2.19733ZM5.14045 3.22133C5.14045 2.53867 5.5618 2.28267 5.98315 2.19733C6.06742 2.19733 6.23596 2.19733 6.23596 2.19733C6.32023 2.19733 6.32022 2.19733 6.32022 2.19733C6.32022 2.19733 6.40449 2.19733 6.40449 2.28267V2.53867C6.40449 2.53867 6.40449 2.624 6.32022 2.624C6.23596 2.624 6.06742 2.624 5.89888 2.624C5.73034 2.624 5.5618 2.79467 5.5618 3.136V3.47733C5.5618 3.81867 5.73034 3.904 5.89888 3.904C6.06742 3.904 6.23596 3.81867 6.32022 3.81867C6.32022 3.81867 6.40449 3.81867 6.40449 3.904V4.16C6.40449 4.16 6.40449 4.24533 6.32022 4.24533C6.32023 4.24533 6.23596 4.33067 5.98315 4.33067C5.5618 4.416 5.14045 4.24533 5.14045 3.56267V3.22133ZM3.6236 3.22133C3.6236 2.70933 3.96067 2.53867 4.29775 2.45333C4.63483 2.368 4.7191 2.368 4.80337 2.368C4.80337 2.368 4.88764 2.368 4.88764 2.45333V2.70933C4.88764 2.70933 4.88764 2.79467 4.80337 2.79467C4.63483 2.88 4.46629 2.88 4.21348 2.96533C4.04494 2.96533 4.04494 3.05067 4.04494 3.22133V3.392C4.29775 3.392 4.55056 3.30667 4.80337 3.30667C4.80337 3.30667 4.88764 3.30667 4.88764 3.392V3.648C4.88764 3.648 4.88764 3.73333 4.80337 3.73333C4.55056 3.73333 4.29775 3.73333 4.04494 3.81867V4.672C4.04494 4.672 4.04494 4.75733 3.96067 4.75733C3.8764 4.75733 3.70787 4.84267 3.6236 4.84267C3.6236 4.84267 3.53933 4.84267 3.53933 4.75733V3.22133H3.6236ZM1.60112 5.184C1.76966 4.58667 1.85393 3.98933 2.02247 3.30667C2.10674 3.05067 2.27528 2.96533 2.52809 2.88C2.61236 2.88 2.61236 2.88 2.69663 2.88C2.86517 2.88 2.94944 2.96533 2.94944 3.136C3.11798 3.648 3.20225 4.24533 3.37079 4.75733C3.37079 4.75733 3.37079 4.84267 3.28652 4.84267C3.11798 4.84267 3.03371 4.928 2.86517 4.928H2.7809C2.7809 4.75733 2.69663 4.672 2.69663 4.50133C2.52809 4.50133 2.35955 4.58667 2.10674 4.672C2.10674 4.84267 2.02247 5.01333 2.02247 5.184C2.02247 5.184 2.02247 5.26933 1.9382 5.26933C1.9382 5.184 1.76966 5.184 1.60112 5.184C1.68539 5.184 1.60112 5.184 1.60112 5.184ZM3.96067 24.384C3.8764 24.2133 3.8764 24.0427 3.79214 23.9573C3.03371 21.9947 2.52809 20.032 2.19101 18.3253C1.85393 16.3627 1.68539 14.7413 1.68539 13.4613V6.80533C7.58427 5.26933 13.9045 4.84267 20.0562 5.35467V6.37867C19.2978 6.03733 18.2865 5.78133 17.5281 5.78133C13.9045 5.78133 11.1236 8.768 11.2079 12.5227C11.2079 14.0587 11.7135 15.5093 12.6404 16.6187C12.3034 16.8747 12.0506 17.1307 11.882 17.3013L8.67978 17.216L8.59551 18.4107C8.51124 18.4107 8.51124 18.4107 8.42697 18.4107C8.25843 18.4107 8.08989 18.4107 7.92135 18.4107C7.5 18.4107 7.24719 18.752 7.16292 19.0933C6.99438 19.0933 6.82584 19.0933 6.57303 19.1787C6.23596 19.264 6.06742 19.6053 5.98315 19.9467C5.5618 19.9467 4.97191 20.1173 4.63483 20.4587C4.21348 21.056 4.21348 21.9947 4.63483 22.592C4.97191 23.104 6.91011 25.92 7.41573 26.944C7.75281 27.712 7.92135 30.1867 7.92135 31.3813C6.15169 29.0773 4.88764 26.688 3.96067 24.384ZM15 37.696C12.4719 35.9893 10.3652 33.9413 8.51124 31.7227C8.51124 31.2107 8.42697 27.7973 7.92135 26.688C7.33146 25.408 5.14045 22.2507 5.05618 22.1653C4.80337 21.824 4.88764 21.1413 5.05618 20.8853C5.22472 20.7147 5.81461 20.544 6.23596 20.544H6.57303V20.2027C6.57303 20.1173 6.57303 19.8613 6.6573 19.776C6.91011 19.6907 7.07865 19.6907 7.24719 19.6907C7.33146 19.6907 7.33146 19.6907 7.33146 19.6907H7.66854V19.3493C7.66854 19.3493 7.66854 19.008 7.83708 18.9227C8.00562 18.9227 8.08989 18.9227 8.25843 18.9227C8.51124 18.9227 8.67978 18.9227 8.67978 18.9227H9.01685L9.10112 17.6427L12.0506 17.728L12.1348 17.5573C12.2191 17.3867 12.5562 17.0453 12.8933 16.8747C13.8202 17.8987 15.0843 18.6667 16.5169 18.9227L17.3596 20.3733V21.2267L17.6966 22.1653C17.6966 22.2507 17.6966 22.592 17.6966 22.848L17.5281 23.1893C17.4438 23.2747 17.3596 23.36 17.2753 23.4453L16.8539 23.7867C16.6854 23.872 16.4326 23.872 16.264 23.872H15.8427C15.5056 23.872 15.3371 23.7867 15.3371 23.7867H15.1685L12.4719 26.176L13.736 27.5413L14.1573 27.6267H14.2416C14.3258 27.6267 14.5787 27.712 14.7472 27.712C14.9157 27.7973 15.0843 27.8827 15.1685 28.0533C15.1685 28.1387 15.2528 28.3093 15.2528 28.48C15.2528 28.6507 15.2528 28.8213 15.1685 28.992C15.0843 29.1627 15 29.248 14.9157 29.3333C14.4944 29.5893 14.1573 29.5893 13.8202 29.5893C13.736 29.5893 13.6517 29.5893 13.5674 29.5893C13.4831 29.5893 13.3989 29.5893 13.3146 29.5893H13.2303H13.0618L12.4719 30.1013L17.5281 36.0747C16.5169 36.5867 15.7584 37.184 15 37.696ZM13.8202 25.7493L14.7472 26.8587C14.4944 26.7733 14.2416 26.7733 14.1573 26.7733H14.073L13.4831 26.0907L13.8202 25.7493ZM18.118 35.648L13.6517 30.4427C13.8202 30.4427 13.9045 30.4427 14.073 30.4427L18.3708 35.4773C18.2865 35.4773 18.2022 35.5627 18.118 35.648ZM18.7921 35.0507L14.7472 30.272C14.8315 30.1867 15 30.1867 15.0843 30.1013L19.0449 34.7947C18.9607 34.88 18.8764 34.9653 18.7921 35.0507ZM19.5506 34.368L15.5899 29.76C15.6742 29.6747 15.7584 29.5893 15.7584 29.504L19.7191 34.1973C19.7191 34.1973 19.6348 34.2827 19.5506 34.368ZM20.2247 33.6853L16.0112 28.8213C16.0112 28.736 16.0112 28.6507 16.0112 28.48C16.0112 28.3947 16.0112 28.3093 16.0112 28.224L20.4775 33.4293C20.309 33.5147 20.2247 33.6 20.2247 33.6853ZM20.8146 33.0027L14.3258 25.3227L14.5787 25.0667L21.0674 32.6613C20.9831 32.832 20.8989 32.9173 20.8146 33.0027ZM21.4888 32.2347L15 24.7253L15.2528 24.4693L21.6573 31.9787C21.6573 32.064 21.573 32.1493 21.4888 32.2347ZM22.0787 31.4667L16.0955 24.4693H16.264C16.3483 24.4693 16.4326 24.4693 16.5169 24.4693L22.2472 31.2107C22.2472 31.296 22.1629 31.3813 22.0787 31.4667ZM22.6685 30.6987L17.191 24.2987L17.4438 24.2133H17.5281L22.8371 30.4427C22.8371 30.528 22.7528 30.6133 22.6685 30.6987ZM23.2584 29.8453L18.0337 23.7013C18.0337 23.7013 18.0337 23.616 18.118 23.616L18.2022 23.36L23.5112 29.504C23.3427 29.6747 23.2584 29.76 23.2584 29.8453ZM23.764 29.0773L18.2865 22.6773C18.2865 22.5067 18.2865 22.336 18.2865 22.2507L18.2022 21.9947L23.9326 28.736C23.9326 28.8213 23.8483 28.9067 23.764 29.0773ZM24.2697 28.224L17.9494 20.8853V20.4587L17.3596 19.6053L24.4382 27.8827C24.4382 27.968 24.3539 28.0533 24.2697 28.224ZM24.5225 26.944L22.3315 24.4693V17.216C23.427 16.0213 23.9326 14.4 23.9326 12.608C23.9326 10.9013 23.427 9.36533 22.3315 8.08533V5.61067C22.9213 5.696 23.8483 5.86667 24.5225 5.952V26.944ZM24.7753 3.648C24.7753 4.33067 24.4382 4.416 23.9326 4.33067C23.5112 4.24533 23.0899 4.07467 23.0899 3.392V2.19733C23.0899 2.19733 23.0899 2.112 23.1742 2.112C23.2584 2.112 23.427 2.112 23.5112 2.19733C23.5112 2.19733 23.5955 2.19733 23.5955 2.28267V3.56267C23.5955 3.81867 23.6798 3.98933 23.9326 3.98933C24.1854 3.98933 24.2697 3.904 24.2697 3.648V2.368C24.2697 2.368 24.2697 2.28267 24.3539 2.28267C24.4382 2.28267 24.6067 2.28267 24.691 2.368C24.691 2.368 24.7753 2.368 24.7753 2.45333V3.648ZM26.5449 3.05067C26.4607 3.05067 26.5449 3.05067 26.5449 3.05067C26.3764 3.05067 26.2079 3.05067 26.0393 2.96533V4.58667C26.0393 4.58667 26.0393 4.672 25.9551 4.672C25.8708 4.672 25.7022 4.58667 25.618 4.58667C25.618 4.58667 25.5337 4.58667 25.5337 4.50133V2.88C25.3652 2.88 25.1966 2.79467 25.1124 2.79467C25.1124 2.79467 25.0281 2.79467 25.0281 2.70933V2.45333C25.0281 2.45333 25.0281 2.368 25.1124 2.368C25.5337 2.45333 26.0393 2.53867 26.4607 2.624C26.4607 2.624 26.5449 2.624 26.5449 2.70933V3.05067ZM26.7135 22.848V6.37867C27.3034 6.54933 27.809 6.63467 28.3989 6.80533V13.4613C28.3146 15.68 27.9775 19.008 26.7135 22.848Z" fill="#90949C"/>
</svg>
