<svg width="40" height="40" viewBox="0 0 40 40" fill="none" xmlns="http://www.w3.org/2000/svg">
<path d="M18.8644 33.3481H18.1753V36.5064H18.8644V33.3481Z" fill="#90949C"/>
<path d="M19.5186 33.9872H20.4822V36.5154H21.1732V33.9872H22.1359V33.3572H19.5186V33.9872Z" fill="#90949C"/>
<path d="M23.9967 34.6287L23.2338 33.3481H22.4375L23.6467 35.2459V36.5064H24.3449V35.2459L25.5497 33.3481H24.7687L23.9967 34.6287Z" fill="#90949C"/>
<path d="M16.2408 35.9371C15.9873 35.921 15.7489 35.8097 15.5741 35.6253C15.3993 35.441 15.3014 35.1974 15.2988 34.9433C15.2962 34.6893 15.3896 34.4436 15.5606 34.2557C15.7317 34.0679 15.967 33.9517 16.2201 33.9305C16.3714 33.9349 16.5209 33.9699 16.6583 34.0333C16.7957 34.0966 16.9183 34.187 17.02 34.2991L17.4662 33.7867C17.3061 33.6266 17.1152 33.5009 16.9048 33.4169C16.6945 33.333 16.469 33.2926 16.2426 33.2984C15.8101 33.2984 15.395 33.4703 15.0892 33.7762C14.7833 34.082 14.6123 34.4967 14.6123 34.9292C14.6123 35.3617 14.7833 35.7766 15.0892 36.0824C15.395 36.3882 15.8101 36.5599 16.2426 36.5599C16.4766 36.5641 16.7091 36.5169 16.9228 36.4214C17.1365 36.3258 17.3259 36.1844 17.4788 36.0073L17.0479 35.565C16.8352 35.7862 16.5471 35.9189 16.2408 35.9371Z" fill="#90949C"/>
<path d="M27.7153 9.01967L28.2516 9.4304L29.7514 7.47169L30.4973 8.04122L30.8662 7.55289L28.8391 5.99951L28.4711 6.48964L29.208 7.06097L27.7153 9.01967Z" fill="#90949C"/>
<path d="M16.3306 6.98337C16.5513 6.92288 16.7565 6.8146 16.9307 6.66622C17.1049 6.51783 17.2444 6.33307 17.3392 6.12481L16.812 5.82992C16.6743 6.09614 16.4414 6.30081 16.1597 6.40305C15.9161 6.46177 15.6593 6.42544 15.4417 6.30138C15.224 6.17732 15.0618 5.97492 14.9882 5.73545C14.9147 5.49598 14.9353 5.23736 15.0458 5.01252C15.1563 4.78767 15.3484 4.61343 15.5829 4.52531C15.724 4.47638 15.8742 4.46187 16.022 4.48303C16.1698 4.50418 16.3106 4.56047 16.4323 4.647L16.7103 4.04261C16.515 3.93518 16.2997 3.8691 16.0778 3.84849C15.8559 3.82789 15.6327 3.8533 15.421 3.92295C15.2169 3.97953 15.0259 4.07599 14.8595 4.20703C14.6932 4.33808 14.5547 4.501 14.452 4.68614C14.3492 4.87128 14.2845 5.07511 14.2612 5.28558C14.238 5.49606 14.2562 5.70892 14.3161 5.91202C14.376 6.11512 14.4766 6.30434 14.6103 6.4685C14.7441 6.63267 14.9085 6.76848 15.0953 6.86821C15.2821 6.96793 15.4873 7.02949 15.6981 7.04928C15.9089 7.06906 16.1213 7.0466 16.3234 6.98337H16.3306Z" fill="#90949C"/>
<path d="M7.3923 13.3609L6.60774 11.942L8.41709 12.8874L8.7248 12.3032L5.98693 10.8511L5.65133 11.4906L6.45299 12.8431L4.88476 12.9555L4.54736 13.5986L7.29333 15.0377L7.59924 14.4518L5.79349 13.5082L7.3923 13.3609Z" fill="#90949C"/>
<path d="M12.3308 8.76893L11.2934 7.0518L13.6408 7.97312L14.1131 7.68746L12.5098 5.03394L11.9439 5.37673L12.9444 7.03516L10.6888 6.1397L10.1606 6.45843L11.7667 9.11173L12.3308 8.76893Z" fill="#90949C"/>
<path d="M18.7908 6.49867L18.7584 5.26042L20.0279 5.22915L20.0585 6.4674L20.7189 6.45076L20.6415 3.37549L19.9811 3.39191L20.0126 4.61374L18.7431 4.645L18.7098 3.42317L18.0503 3.43982L18.1277 6.51531L18.7908 6.49867Z" fill="#90949C"/>
<path d="M24.1076 6.51921L22.4494 6.15077L22.5942 5.48002L23.7504 5.7324L24.0581 5.19998L22.7166 4.9105L22.8524 4.28406L24.4837 4.63788L24.6123 4.04451L22.3369 3.55078L21.6792 6.57994L23.9825 7.07929L24.1076 6.51921Z" fill="#90949C"/>
<path d="M30.9662 12.2718L31.4115 11.9033L30.3229 10.6136L30.8438 10.1732L31.6068 11.076L32.2096 10.8808L31.2883 9.79729L31.7786 9.38454L32.8547 10.6577L33.319 10.2672L31.8173 8.48706L29.4492 10.4845L30.9662 12.2718Z" fill="#90949C"/>
<path d="M34.1068 11.4924L31.3545 12.869L31.6487 13.4586L32.5349 13.0163L32.786 13.5139L32.1948 14.5549L32.5466 15.2589L33.2025 14.0832C33.3462 14.23 33.5339 14.326 33.737 14.3569C33.94 14.3879 34.1472 14.352 34.3281 14.2546C34.458 14.1975 34.5745 14.1132 34.6691 14.0074C34.7637 13.9016 34.8347 13.7767 34.8769 13.6412C34.9192 13.5057 34.9315 13.3628 34.9138 13.2219C34.8961 13.0811 34.8488 12.9456 34.7744 12.8247L34.1068 11.4924ZM34.0222 13.663C33.966 13.6912 33.905 13.7074 33.8422 13.7105C33.7795 13.7135 33.7164 13.7033 33.6578 13.6808C33.5992 13.6583 33.5458 13.6239 33.5012 13.5796C33.4567 13.5353 33.4224 13.482 33.3996 13.4235L33.064 12.753L33.8746 12.3456L34.2156 13.0238C34.2488 13.0775 34.2705 13.1377 34.2786 13.2003C34.2868 13.263 34.2816 13.3266 34.2633 13.387C34.245 13.4475 34.2139 13.5034 34.1724 13.551C34.1309 13.5986 34.0796 13.6367 34.0222 13.663Z" fill="#90949C"/>
<path d="M9.52834 11.3231L9.21164 10.6301L10.1177 9.67008L10.8258 9.94652L11.3008 9.43975L8.10947 8.26245L7.6875 8.70827L9.05149 11.826L9.52834 11.3231ZM8.47836 9.03262L9.53194 9.44177L8.94982 10.059L8.47836 9.03262Z" fill="#90949C"/>
<path d="M25.6 7.85894C25.8025 7.96789 26.0278 8.02724 26.2577 8.03214C26.4209 8.03697 26.5823 7.9965 26.7238 7.91518C26.8653 7.83385 26.9814 7.71487 27.0594 7.57148C27.1684 7.39896 27.2091 7.19188 27.1737 6.99093C27.0742 6.57265 26.6207 6.25395 26.3351 6.00888C26.1122 5.82461 26.1101 5.67346 26.1507 5.57948C26.252 5.35837 26.5086 5.40807 26.6689 5.48546C26.9246 5.61658 27.1284 5.83039 27.2474 6.09188L27.7999 5.78777C27.6056 5.4263 27.2988 5.13776 26.9262 4.96587C26.8087 4.89192 26.677 4.84417 26.5393 4.82551C26.4017 4.80685 26.2612 4.8177 26.1282 4.85768C25.9952 4.89765 25.8728 4.96575 25.7683 5.05719C25.6637 5.14863 25.58 5.26133 25.5227 5.38784C25.4762 5.48996 25.4516 5.60089 25.4516 5.71309C25.4516 5.8253 25.4762 5.93622 25.5227 6.03834C25.6802 6.29597 25.8877 6.51949 26.1327 6.69605C26.3354 6.88031 26.6115 7.05187 26.4494 7.31168C26.3388 7.49595 26.0808 7.44437 25.8744 7.33013C25.5961 7.17206 25.3757 6.92919 25.2446 6.63711L24.6787 6.88971C24.8774 7.30084 25.1995 7.63968 25.6 7.85894Z" fill="#90949C"/>
<path d="M3.42529 19.3184L3.49187 19.6463L3.83287 19.5579V21.0173H4.21076V19.147H3.95073L3.42529 19.3184Z" fill="#90949C"/>
<path d="M5.83043 20.0625C5.90016 20.0191 5.95721 19.9586 5.99688 19.8866C6.03656 19.8147 6.05763 19.7337 6.05717 19.6516C6.05717 19.366 5.8156 19.1338 5.41206 19.1338C5.00852 19.1338 4.76516 19.366 4.76516 19.6516C4.76472 19.7341 4.78597 19.8155 4.82634 19.8875C4.86671 19.9596 4.92483 20.0198 4.99549 20.0625C4.90831 20.1006 4.83426 20.1628 4.78135 20.2418C4.72845 20.3208 4.69871 20.4135 4.69678 20.5086C4.69678 20.8052 4.96606 21.0428 5.41566 21.0428C5.86526 21.0428 6.13274 20.8052 6.13274 20.5086C6.13072 20.413 6.10088 20.32 6.04727 20.2409C5.99365 20.1618 5.91843 20.0998 5.83043 20.0625ZM5.41566 19.4804C5.44885 19.4736 5.48354 19.4743 5.51643 19.4824C5.54932 19.4905 5.57926 19.5058 5.6055 19.5272C5.63174 19.5486 5.65306 19.5755 5.66758 19.6061C5.6821 19.6368 5.69008 19.6703 5.69008 19.7042C5.69008 19.7381 5.6821 19.7715 5.66758 19.8021C5.65306 19.8327 5.63174 19.8598 5.6055 19.8812C5.57926 19.9027 5.54932 19.9179 5.51643 19.926C5.48354 19.9341 5.44885 19.9348 5.41566 19.928C5.24614 19.928 5.14304 19.8267 5.14304 19.7051C5.14304 19.5835 5.24614 19.4804 5.41566 19.4804ZM5.41566 20.7148C5.20744 20.7148 5.08366 20.6098 5.08366 20.4827C5.08366 20.3556 5.20744 20.2524 5.41566 20.2524C5.62388 20.2524 5.74766 20.3556 5.74766 20.4827C5.74766 20.6098 5.62204 20.7205 5.41566 20.7205V20.7148Z" fill="#90949C"/>
<path d="M36.3168 20.2967V19.1487H35.983L34.9663 20.3426L35.0194 20.6173H35.9407V21.019H36.3222V20.6173H36.5822V20.2967H36.3168ZM35.9353 20.2967H35.4288L35.9353 19.6995V20.2967Z" fill="#90949C"/>
<path d="M33.8765 19.143C33.7884 19.1344 33.6999 19.1439 33.6156 19.1709C33.5313 19.1978 33.4529 19.2418 33.3862 19.3C33.3194 19.3581 33.2652 19.4291 33.2269 19.5089C33.1886 19.5887 33.1675 19.6756 33.1639 19.764C33.1596 19.8459 33.1719 19.9279 33.2008 20.0047C33.2297 20.0815 33.274 20.1513 33.3313 20.21C33.3886 20.2687 33.4577 20.3149 33.5337 20.3457C33.6098 20.3764 33.6919 20.391 33.774 20.3886C33.921 20.3878 34.0657 20.3518 34.1959 20.2836C34.1757 20.5839 34.0113 20.6891 33.827 20.702C33.7514 20.706 33.6758 20.6933 33.6057 20.6646C33.5356 20.636 33.4733 20.5921 33.4222 20.5362L33.208 20.8329C33.2969 20.9143 33.4021 20.9757 33.5166 21.013C33.6312 21.0504 33.7523 21.0627 33.872 21.0493C33.9918 21.0358 34.1078 20.9968 34.2112 20.935C34.3147 20.8732 34.4036 20.79 34.4721 20.6909C34.6143 20.3968 34.6568 20.0643 34.5936 19.7438C34.5741 19.5708 34.4886 19.4118 34.3552 19.3C34.2217 19.1881 34.0503 19.1319 33.8765 19.143ZM33.8864 20.0497C33.8314 20.0443 33.7785 20.0232 33.7353 19.9887C33.6921 19.9543 33.66 19.908 33.6426 19.8555C33.6252 19.8031 33.6233 19.7468 33.6372 19.6934C33.6511 19.6399 33.68 19.5916 33.7209 19.5544C33.7617 19.5171 33.813 19.4925 33.8675 19.4835C33.922 19.4745 33.978 19.4816 34.0286 19.5038C34.0792 19.526 34.1224 19.5624 34.1527 19.6086C34.1831 19.6548 34.1993 19.7087 34.1995 19.764C34.1994 19.8039 34.1905 19.8434 34.1743 19.8798C34.1582 19.9163 34.1354 19.9488 34.106 19.9757C34.0765 20.0025 34.0412 20.023 34.0034 20.0357C33.9656 20.0484 33.9261 20.0532 33.8864 20.0497Z" fill="#90949C"/>
<path d="M20.0003 1.23633C16.2893 1.23669 12.6614 2.33733 9.57602 4.39932C6.4906 6.46132 4.086 9.39192 2.66611 12.8206C1.24622 16.2492 0.874827 20.0219 1.59903 23.6616C2.32324 27.3013 4.11047 30.6445 6.73468 33.2685C9.3589 35.8924 12.7022 37.6794 16.342 38.4032C19.9817 39.1271 23.7543 38.7552 27.1828 37.335C30.6113 35.9148 33.5417 33.5098 35.6034 30.4242C37.665 27.3386 38.7659 23.711 38.7659 19.9999C38.7576 15.0257 36.7779 10.2575 33.2605 6.74042C29.743 3.22329 24.9745 1.24412 20.0003 1.23633ZM20.0003 37.9398C16.4521 37.9398 12.9833 36.8878 10.0331 34.9165C7.08287 32.9453 4.78332 30.1434 3.42548 26.8653C2.06765 23.5872 1.71297 19.98 2.40519 16.5C3.09741 13.02 4.80606 9.82339 7.31501 7.31444C9.82396 4.80549 13.0203 3.09684 16.5003 2.40463C19.9803 1.71241 23.5871 2.06776 26.8652 3.42559C30.1433 4.78343 32.9456 7.08276 34.9169 10.033C36.8881 12.9832 37.9399 16.4517 37.9399 19.9999C37.9307 24.7551 36.038 29.3127 32.6756 32.6751C29.3132 36.0375 24.7554 37.9306 20.0003 37.9398Z" fill="#90949C"/>
<path d="M20.0002 0C16.0445 0 12.1775 1.17297 8.88852 3.37061C5.59953 5.56824 3.03621 8.69176 1.52245 12.3463C0.00869404 16.0008 -0.387412 20.0221 0.384294 23.9017C1.156 27.7814 3.06118 31.3452 5.85824 34.1422C8.6553 36.9393 12.2184 38.844 16.098 39.6157C19.9777 40.3874 23.9996 39.9913 27.6542 38.4776C31.3087 36.9638 34.4322 34.4005 36.6298 31.1115C38.8275 27.8225 40.0002 23.9557 40.0002 20.0001C39.99 14.6989 37.8798 9.61767 34.1313 5.86915C30.3828 2.12063 25.3014 0.010227 20.0002 0ZM20.0002 39.2003C16.2027 39.2003 12.4905 38.0744 9.33299 35.9646C6.17551 33.8549 3.71436 30.8561 2.26113 27.3477C0.807899 23.8393 0.428008 19.9788 1.16886 16.2543C1.90971 12.5298 3.73805 9.1086 6.42327 6.42338C9.10849 3.73817 12.5301 1.90937 16.2546 1.16852C19.9791 0.427673 23.8389 0.808013 27.3473 2.26124C30.8557 3.71447 33.8552 6.1754 35.9649 9.33288C38.0747 12.4904 39.2004 16.2026 39.2004 20.0001C39.1901 25.0892 37.1639 29.9669 33.5654 33.5655C29.9668 37.164 25.0893 39.19 20.0002 39.2003Z" fill="#90949C"/>
<path d="M29.2173 10.7591C28.7658 10.6743 28.3069 10.6006 27.8407 10.5305C25.6413 8.70227 22.8722 7.70021 20.0122 7.69752C17.1521 7.69482 14.381 8.69179 12.1782 10.5159C11.6973 10.5878 11.222 10.6669 10.754 10.7591C10.6581 11.2326 10.5696 11.7173 10.4903 12.2056C9.09467 13.9019 8.17947 15.9411 7.83883 18.1112C7.49819 20.2813 7.74441 22.5028 8.55322 24.5452C9.36202 26.5875 10.7033 28.376 12.4373 29.7244C14.1714 31.0729 16.2356 31.9321 18.4142 32.2129C18.9367 32.4174 19.4701 32.5909 20.0131 32.7325C20.5124 32.5758 20.9876 32.41 21.4427 32.2313C23.6378 31.9758 25.724 31.1335 27.4808 29.7928C29.2375 28.4521 30.6005 26.6625 31.4261 24.6126C32.2517 22.5627 32.5091 20.3283 32.172 18.1443C31.8349 15.9602 30.9159 13.9073 29.5106 12.2018C29.4184 11.7024 29.3223 11.2179 29.2173 10.7591ZM19.9861 8.34712C22.3127 8.34481 24.5851 9.04411 26.5082 10.3537C24.357 10.1054 22.1939 9.9822 20.0283 9.98507C17.8423 9.97516 15.6571 10.0922 13.4846 10.3353C15.4036 9.03654 17.6689 8.34393 19.9861 8.34712ZM8.34358 19.9907C8.34217 17.7005 9.02021 15.4611 10.2915 13.5561C9.63023 17.3273 9.84013 21.1998 10.9051 24.8774C11.8621 27.3232 13.561 29.4082 15.7627 30.8401C13.5798 29.9841 11.7046 28.4907 10.3824 26.5542C9.06017 24.6178 8.35147 22.3281 8.34898 19.9833L8.34358 19.9907ZM21.3015 31.5588C20.8647 31.609 20.4257 31.6343 19.9861 31.6343C19.5662 31.634 19.1465 31.6113 18.7291 31.5662C17.1107 30.9572 15.6368 30.0178 14.4014 28.8078C13.1661 27.5978 12.1962 26.1439 11.5538 24.5384C11.1333 23.2327 10.8995 21.874 10.8592 20.5029C10.7267 17.6268 10.9744 14.7458 11.5961 11.9346C11.8062 11.7134 12.0271 11.5016 12.2556 11.2971C17.3739 10.4716 22.5919 10.4716 27.7102 11.2971C27.9664 11.5237 28.2131 11.7634 28.4471 12.014C29.3018 15.8017 29.4188 19.7187 28.7917 23.5507C28.5725 24.4048 28.2377 25.225 27.7966 25.9885C26.3061 28.5117 24.0224 30.4703 21.3015 31.5588ZM31.6204 19.9907C31.6164 22.3241 30.9124 24.6027 29.6006 26.5324C28.2887 28.4621 26.429 29.9542 24.2607 30.8163C26.4352 29.4273 28.1129 27.384 29.0517 24.9806C30.1556 21.2983 30.3849 17.4091 29.722 13.6225C30.9655 15.5107 31.6283 17.7223 31.6276 19.9833L31.6204 19.9907Z" fill="#90949C"/>
<path d="M16.8472 24.1607L16.9759 24.1184C17.0374 24.0002 17.1195 23.894 17.2188 23.805C17.3779 23.6762 17.5634 23.5827 17.7613 23.5306C17.8751 23.4993 17.9838 23.4526 18.0853 23.3923C18.1969 23.3026 18.2959 23.1979 18.3786 23.081C18.4752 22.9429 18.5907 22.8188 18.7214 22.7123L17.361 21.0762H14.2749L16.8472 24.1607Z" fill="#90949C"/>
<path d="M28.0543 23.6796C28.1244 23.4382 28.1828 23.1931 28.2289 22.9425C28.3392 22.3244 28.415 21.7008 28.4556 21.0742H25.9004L28.0543 23.6796Z" fill="#90949C"/>
<path d="M18.1294 29.3127C18.0696 29.3302 18.0073 29.339 17.945 29.3386C17.868 29.3398 17.7916 29.3257 17.7201 29.2974C17.6485 29.2691 17.5837 29.227 17.5284 29.1735C17.4731 29.1199 17.4285 29.0561 17.398 28.9854C17.3674 28.9148 17.3515 28.8388 17.3503 28.7618V28.2753C17.2521 28.1841 17.1712 28.0762 17.1109 27.9566C17.0649 27.8559 17.0355 27.7481 17.0255 27.6379L11.5884 21.0815H11.5659C11.6149 22.2032 11.815 23.3132 12.1597 24.3817C12.4727 25.2311 12.9066 26.0307 13.449 26.7552C15.1149 28.8889 17.4002 30.4554 19.991 31.2401H20.0054L18.3472 29.2482L18.1294 29.3127Z" fill="#90949C"/>
<path d="M14.8279 19.2131L13.2309 18.5406L13.2714 18.4355C14.468 18.8198 15.7043 19.0672 16.9567 19.1726V18.5793C16.6718 18.5985 16.4 18.7097 16.1838 18.8962C15.9405 18.7042 15.7743 18.4314 15.7141 18.1274C15.654 17.8233 15.7045 17.508 15.8563 17.2378L18.3602 16.3772C17.8033 16.383 17.2494 16.4619 16.7128 16.6113C16.4082 16.6815 16.134 16.8459 15.9283 17.0812C15.7529 16.848 15.6641 16.5609 15.6772 16.2694C15.6904 15.9779 15.8047 15.7001 16.0002 15.4835L16.9872 15.1389V14.3631L16.6597 14.3926C16.5584 14.4018 16.6283 14.5308 16.5122 14.5363L15.9211 14.5696C15.8953 14.5696 15.8854 14.5401 15.9094 14.5327L16.4861 14.3337C16.5432 14.3153 16.486 14.2565 16.5653 14.2307L17.1294 14.0298V15.0928L17.9419 14.8184C17.8786 15.0925 17.8837 15.3778 17.9563 15.6495C18.0289 15.9213 18.1669 16.1712 18.3584 16.3772C18.2826 16.7294 18.2882 17.0941 18.3737 17.444C18.4868 17.8615 18.6671 18.2577 18.9091 18.6162C18.3325 18.54 17.75 18.522 17.1699 18.5626V19.1983C18.1041 19.2812 19.0517 19.3071 20.0283 19.2997V18.618C19.7469 18.6748 19.4938 18.8279 19.313 19.051C19.1462 18.9366 19.0032 18.7904 18.8929 18.6209C18.7825 18.4513 18.7067 18.2617 18.6697 18.0628C18.6328 17.864 18.6358 17.6599 18.6778 17.462C18.7199 17.2642 18.8007 17.0765 18.9154 16.9098L21.9753 15.8484C21.8757 16.3067 21.8757 16.7812 21.9753 17.2396C22.1496 17.7586 22.4061 18.2464 22.7347 18.6843L22.7554 13.875L22.4198 13.9045C22.3166 13.9045 22.3865 14.0427 22.2704 14.0482L21.6811 14.0831C21.6535 14.0831 21.6455 14.0518 21.6694 14.0444L22.2444 13.8474C22.3033 13.8271 22.2443 13.7681 22.3253 13.7423L22.8895 13.5433L22.9102 15.5481L24.8923 14.8663C24.7304 15.3707 24.6853 15.9052 24.76 16.4296C24.8347 16.954 25.0279 17.4545 25.3241 17.8937L22.9434 18.7266V18.992C23.7063 18.9146 24.4002 18.8076 25.0506 18.6897C25.0044 18.8934 24.9172 19.0854 24.7933 19.2536C24.609 19.5097 24.4248 19.6001 24.3695 19.8065C24.347 19.9044 24.3493 20.0063 24.3767 20.103C24.4041 20.1996 24.4556 20.2876 24.5261 20.3592H23.3447C23.0333 20.2744 22.7404 20.1749 22.4603 20.0919C22.2107 20.0085 21.9455 19.9835 21.6847 20.0184C21.303 20.1613 20.896 20.224 20.489 20.2026C19.7962 20.175 19.1566 19.9484 18.4619 19.9318C18.4214 20.1363 17.8957 20.2597 17.3687 20.221C16.9441 20.123 16.5136 20.0545 16.0794 20.0164C15.9865 20.0302 15.8987 20.0694 15.8266 20.1295C15.7545 20.1896 15.7004 20.2685 15.67 20.3574H28.484C28.5452 19.151 28.538 17.9422 28.4633 16.7366C28.3715 15.091 28.147 13.4554 27.7912 11.8462C22.6301 10.9764 17.36 10.9764 12.1989 11.8462C11.5906 14.6398 11.3599 17.5024 11.5133 20.3574H15.6242L14.8279 19.2131ZM18.9963 13.3959L20.1021 13.0127V12.4267L19.7737 12.4562C19.6724 12.4562 19.7422 12.5944 19.6261 12.5999L19.0368 12.6348C19.0073 12.6348 19.0002 12.6035 19.026 12.5943L19.6001 12.3972C19.6572 12.377 19.6009 12.3179 19.6801 12.294L20.2434 12.0949V12.9683L21.1647 12.6588C21.0582 12.9053 21.0296 13.1783 21.0819 13.4416C21.1342 13.7049 21.2654 13.9458 21.458 14.1328C20.995 14.1341 20.5332 14.1817 20.0796 14.2747C19.6526 14.3479 19.2627 14.5636 18.9738 14.8866C18.7873 14.6819 18.6854 14.4138 18.6895 14.1369C18.6936 13.8599 18.8038 13.595 18.9963 13.3959ZM18.9226 15.0026L21.4544 14.142C21.411 14.4471 21.435 14.7582 21.5255 15.0528C21.6159 15.3474 21.77 15.6184 21.9771 15.8466C21.1332 15.8761 19.6279 15.9572 19.0143 16.7348C18.7879 16.5095 18.6535 16.208 18.6364 15.8891C18.6194 15.5701 18.7214 15.2564 18.9226 15.0082V15.0026ZM15.7051 15.5758C15.1624 16.4269 14.9567 17.45 15.1284 18.4448C14.5412 18.3 13.9353 18.2453 13.3317 18.2826C13.8314 17.1614 14.6589 16.2178 15.7051 15.5758Z" fill="#90949C"/>
<path d="M21.8004 19.0877C22.1302 19.0693 22.4473 19.0434 22.7532 19.0157V18.7836C21.9927 18.6022 21.2105 18.5253 20.4292 18.5551C20.3739 18.5551 20.319 18.5661 20.2637 18.5735V19.2996C20.5917 19.2996 20.9252 19.2866 21.2606 19.2755L21.8004 19.0877Z" fill="#90949C"/>
<path d="M21.4598 28.7762C21.4755 28.7939 21.4955 28.8067 21.5183 28.8131L22.0347 28.9845C22.0705 28.9939 22.1083 28.9949 22.1445 28.9874C22.1807 28.9799 22.2144 28.9639 22.2435 28.9411C22.2726 28.9182 22.296 28.889 22.3118 28.8556C22.3277 28.8222 22.3359 28.7855 22.3352 28.7485L22.3532 28.2197C22.3558 28.19 22.3492 28.1602 22.3334 28.1349L22.3217 28.1093C22.4695 28.0352 22.5845 27.9083 22.6429 27.7537C22.7517 27.4607 22.6425 27.1363 22.777 26.7678C22.8912 26.4416 23.146 26.2776 23.2197 25.9902C23.2598 25.8217 23.2353 25.6442 23.1513 25.4926H23.172C23.1861 25.4893 23.199 25.4832 23.2107 25.4746C23.2224 25.4661 23.232 25.4554 23.2395 25.4429L23.5625 24.9969C23.5864 24.9684 23.6028 24.9348 23.611 24.8986C23.6193 24.8624 23.6193 24.8246 23.6101 24.7886C23.601 24.7526 23.5826 24.7193 23.558 24.6914C23.5333 24.6636 23.5026 24.642 23.468 24.6285L22.9264 24.4442C22.8967 24.4367 22.866 24.4367 22.8364 24.4442H22.8085C22.78 24.2782 22.6934 24.128 22.5638 24.0205C22.3169 23.8122 21.9994 23.8508 21.6622 23.5929C21.325 23.3349 21.2936 23.0752 21.0522 22.9352C20.9021 22.8591 20.7338 22.8276 20.5664 22.8447V22.7876C20.5686 22.7554 20.5605 22.7233 20.5439 22.6956L20.22 22.2478C20.1967 22.2183 20.1665 22.1944 20.1327 22.178C20.0989 22.1616 20.0623 22.1531 20.0247 22.1531C19.9871 22.1531 19.9497 22.1616 19.9159 22.178C19.882 22.1944 19.8519 22.2183 19.8286 22.2478L19.4993 22.6808C19.4812 22.7052 19.4718 22.7352 19.4732 22.7656V22.8706C19.311 22.8368 19.1423 22.8686 19.0035 22.959C18.7271 23.1248 18.6187 23.451 18.3 23.6795C18.0457 23.8637 17.6622 23.8839 17.465 24.0663C17.3508 24.1658 17.2718 24.2997 17.2401 24.4478H17.1978C17.1682 24.4403 17.1374 24.4403 17.1078 24.4478L16.5653 24.6321C16.5304 24.6452 16.4993 24.6668 16.4744 24.6946C16.4495 24.7224 16.4323 24.7558 16.4231 24.792C16.4139 24.8281 16.4128 24.8659 16.4213 24.9022C16.4298 24.9385 16.4474 24.9724 16.4717 25.0007L16.792 25.4465C16.8077 25.4711 16.8322 25.4888 16.8604 25.4962L16.9063 25.5093C16.8333 25.663 16.8119 25.8359 16.8442 26.003C16.9216 26.3163 17.1958 26.5024 17.3193 26.8746C17.4169 27.1713 17.3412 27.6006 17.4425 27.8052C17.5095 27.9428 17.6177 28.0562 17.752 28.1295L17.7376 28.1608C17.7257 28.1808 17.7203 28.2039 17.7214 28.2271V28.78C17.7236 28.8173 17.7343 28.8536 17.7529 28.886C17.7715 28.9184 17.7974 28.946 17.8285 28.9667C17.8596 28.9874 17.8949 29.0005 17.932 29.0052C17.969 29.0099 18.0065 29.006 18.0417 28.9937L18.5501 28.8408C18.5802 28.8343 18.6074 28.8181 18.6275 28.7946L18.6553 28.7652C19.1529 29.2056 19.4768 28.8003 20.0922 28.8003C20.5842 28.8003 20.9608 29.213 21.4454 28.7524L21.4598 28.7762ZM21.9924 28.592L21.5075 28.4336C21.564 28.265 21.564 28.0824 21.5075 27.9138C21.6551 28.0145 21.8282 28.0713 22.0068 28.0778L21.9924 28.592ZM22.7293 24.7094L23.2107 24.8829L22.9138 25.2918C22.7698 25.1874 22.5958 25.1326 22.418 25.1352C22.5589 25.0247 22.6647 24.8754 22.7221 24.7058L22.7293 24.7094ZM20.6725 23.2188C21.0927 23.2759 21.0709 23.5652 21.4247 23.8619C21.7785 24.1586 22.2155 24.0848 22.409 24.4478C22.5693 24.75 22.4083 25.1629 21.7873 25.2477C21.848 25.1726 21.8818 25.0789 21.8818 24.9823C21.8818 24.8857 21.848 24.7919 21.7873 24.7169C21.6399 24.5326 21.3156 24.5326 21.1332 24.3907C20.9508 24.2488 20.8647 23.9688 20.6123 23.8711C20.5256 23.8505 20.4341 23.8572 20.3513 23.8902C20.2686 23.9232 20.1986 23.9808 20.1498 24.0553C20.0208 23.4602 20.354 23.171 20.6635 23.2152L20.6725 23.2188ZM20.3576 25.9164C20.3569 25.9778 20.3382 26.0376 20.3036 26.0883C20.2691 26.1389 20.2201 26.1783 20.1633 26.2014C20.1064 26.2245 20.0444 26.2301 19.9842 26.2178C19.9241 26.2055 19.8691 26.1759 19.8259 26.1323C19.7826 26.0888 19.7532 26.0335 19.7413 25.9733C19.7294 25.9131 19.735 25.8508 19.7584 25.7941C19.7818 25.7373 19.8218 25.6889 19.8727 25.6546C19.9236 25.6203 19.9832 25.6017 20.0445 25.6013C20.1257 25.6037 20.2028 25.6377 20.2596 25.6958C20.3163 25.7538 20.3482 25.8316 20.3486 25.9128L20.3576 25.9164ZM20.1291 24.4222C20.1263 24.3698 20.1361 24.3173 20.157 24.2692C20.1779 24.2211 20.2094 24.1787 20.2497 24.1451C20.2899 24.1114 20.3381 24.0876 20.3891 24.0756C20.4402 24.0635 20.4928 24.0635 20.5439 24.0756C20.7632 24.129 20.8169 24.3669 21.0288 24.5383C21.2407 24.7096 21.5056 24.6654 21.6235 24.846C21.6551 24.8906 21.6753 24.9419 21.6829 24.996C21.6905 25.0501 21.6857 25.1053 21.6676 25.1568C21.6496 25.2084 21.6191 25.2549 21.5795 25.2925C21.5398 25.33 21.4916 25.3577 21.4391 25.373L20.4719 25.6843C20.4383 25.6237 20.3921 25.5712 20.336 25.5304C20.28 25.4897 20.216 25.4616 20.148 25.4483L20.1291 24.4222ZM19.9447 25.4465C19.8762 25.4604 19.812 25.4891 19.7557 25.5304C19.6994 25.5718 19.6527 25.6249 19.619 25.6861L18.6428 25.3784C18.5918 25.3644 18.5445 25.3387 18.5051 25.3035C18.4657 25.2682 18.4346 25.2244 18.4151 25.1753C18.3956 25.1261 18.3881 25.073 18.3926 25.0203C18.3972 24.9676 18.4136 24.9167 18.4412 24.8716C18.561 24.6873 18.8103 24.7021 19.0314 24.5547C19.2526 24.4073 19.2893 24.1642 19.4957 24.0978C19.5487 24.0794 19.6049 24.0743 19.6603 24.0832C19.7158 24.0921 19.7687 24.1147 19.8133 24.1489C19.8579 24.1831 19.8928 24.2277 19.9159 24.2789C19.9389 24.3301 19.9487 24.3864 19.9447 24.4424V25.4465ZM18.6077 25.548L19.5641 25.8575C19.5641 25.8759 19.5641 25.8961 19.5641 25.9164C19.5645 26.0375 19.6102 26.154 19.6927 26.2426L19.0971 27.0755C19.0664 27.1192 19.0261 27.1553 18.9792 27.181C18.9324 27.2067 18.8805 27.2215 18.8272 27.2239C18.7738 27.2264 18.7205 27.2166 18.6715 27.1954C18.6225 27.1741 18.5793 27.142 18.5447 27.1014C18.3991 26.93 18.4986 26.7143 18.4286 26.4509C18.3586 26.1874 18.1335 26.0822 18.1353 25.8703C18.1358 25.8143 18.1496 25.7593 18.1758 25.7097C18.202 25.6601 18.2404 25.6175 18.2865 25.5855C18.3325 25.5536 18.3847 25.5331 18.4403 25.5259C18.4959 25.5187 18.5532 25.525 18.6059 25.5442L18.6077 25.548ZM19.2339 27.1621L19.8268 26.344C19.8913 26.3756 19.9628 26.3919 20.0346 26.3919C20.1065 26.3919 20.177 26.3756 20.2416 26.344L20.8498 27.1677C20.8821 27.2095 20.9042 27.2581 20.9146 27.3099C20.9249 27.3617 20.9229 27.4154 20.9092 27.4664C20.8954 27.5174 20.8704 27.5645 20.8354 27.6041C20.8004 27.6437 20.7566 27.6748 20.7076 27.6947C20.4976 27.7813 20.3226 27.619 20.0499 27.6043C19.7772 27.5896 19.613 27.7683 19.4084 27.7001C19.3542 27.6849 19.3051 27.6566 19.2645 27.6176C19.2238 27.5786 19.1929 27.5301 19.1754 27.4765C19.1579 27.423 19.1539 27.3658 19.1637 27.3103C19.1735 27.2548 19.1973 27.2028 19.2321 27.1585L19.2339 27.1621ZM20.3873 26.2408C20.4707 26.1534 20.5166 26.0371 20.516 25.9164C20.516 25.8961 20.516 25.876 20.516 25.8557L21.4814 25.5442C21.53 25.5245 21.5829 25.5165 21.6352 25.5205C21.6876 25.5246 21.7387 25.5408 21.7837 25.5678C21.8287 25.5947 21.8661 25.6317 21.8944 25.676C21.9226 25.7202 21.941 25.7702 21.9466 25.8224C21.9631 26.0472 21.7618 26.1725 21.6586 26.4268C21.5555 26.6811 21.6751 26.9059 21.548 27.0791C21.5161 27.1234 21.4737 27.1593 21.4247 27.1835C21.3757 27.2076 21.3218 27.2195 21.2673 27.2179C21.2127 27.2162 21.159 27.2013 21.1116 27.1742C21.0642 27.1472 21.0247 27.1088 20.9955 27.0627L20.3873 26.2408ZM20.0373 22.5555L20.336 22.9664C20.1915 23.0706 20.0851 23.2196 20.0337 23.3902C19.9733 23.2211 19.8667 23.0723 19.726 22.9608L20.0373 22.5555ZM17.6414 24.4865C17.8256 24.1069 18.119 24.2194 18.5078 23.9744C18.8966 23.7293 18.9553 23.3036 19.3643 23.2372C19.6997 23.1764 20.0499 23.4896 19.9357 24.0756C19.7514 23.8747 19.5986 23.8342 19.4309 23.9006C19.219 23.9872 19.1124 24.2913 18.9226 24.424C18.7051 24.5751 18.4263 24.5473 18.2568 24.7573C18.2086 24.8334 18.1853 24.9225 18.1893 25.0124C18.1932 25.1024 18.2246 25.189 18.2793 25.2605C17.6841 25.1776 17.5032 24.7611 17.6414 24.4773V24.4865ZM16.8325 24.8808L17.3175 24.7243C17.3724 24.8942 17.481 25.0417 17.627 25.1444C17.4483 25.1488 17.2745 25.2037 17.1258 25.3028L16.8325 24.8808ZM18.5501 28.4518L18.0579 28.5976V28.089C18.2363 28.0894 18.4099 28.031 18.5519 27.923C18.5032 28.0927 18.5026 28.2726 18.5501 28.4426V28.4518ZM17.9275 27.7406C17.6234 27.4476 17.8239 27.2173 17.7115 26.7714C17.5991 26.3255 17.1937 26.1431 17.2509 25.734C17.2988 25.3949 17.7117 25.1555 18.2406 25.4504C17.9918 25.5628 17.9128 25.6916 17.9239 25.8703C17.9386 26.0969 18.1949 26.2961 18.2613 26.5172C18.3387 26.7678 18.2282 27.0258 18.3737 27.2543C18.4322 27.3214 18.5095 27.3686 18.596 27.3897C18.6824 27.4108 18.7732 27.4047 18.856 27.3722C18.6054 27.9065 18.154 27.9507 17.9311 27.7222L17.9275 27.7406ZM21.1152 28.4777C20.7467 28.6749 20.5627 28.417 20.1057 28.3875C19.6487 28.358 19.3685 28.6785 18.9999 28.4998C18.6941 28.3487 18.55 27.8825 19.0125 27.4826C19.0457 27.7553 19.1623 27.8771 19.3355 27.9194C19.5585 27.9747 19.8196 27.7776 20.0517 27.7813C20.3134 27.7813 20.5214 27.9654 20.7886 27.9046C20.8726 27.8749 20.9455 27.8197 20.9964 27.7467C21.0473 27.6736 21.0742 27.5865 21.0729 27.4975C21.5078 27.8549 21.3934 28.3137 21.1152 28.4593V28.4777ZM21.2052 27.3722C21.4742 27.4238 21.6204 27.3722 21.7144 27.2192C21.836 27.0239 21.745 26.7144 21.8224 26.4952C21.9072 26.2464 22.1468 26.1266 22.1616 25.8521C22.1558 25.762 22.1231 25.6759 22.0671 25.6051C22.0112 25.5343 21.9348 25.4821 21.8485 25.4558C22.3699 25.1628 22.755 25.4042 22.8121 25.712C22.8858 26.1302 22.5876 26.1837 22.4162 26.613C22.2448 27.0424 22.4622 27.4312 22.1526 27.7334C21.9075 27.9508 21.4576 27.8918 21.2052 27.3537V27.3722Z" fill="#90949C"/>
<path d="M29.5101 25.1723C29.1918 25.9393 28.8106 26.6788 28.3711 27.3834C29.713 25.869 30.6169 24.0176 30.9857 22.0282C31.3545 20.0387 31.1738 17.9863 30.4639 16.0916C30.7883 19.1518 30.4639 22.2463 29.5101 25.1723Z" fill="#90949C"/>
<path d="M9.45416 18.2146C9.45416 17.5218 9.48718 16.8067 9.53693 16.0789C8.82745 17.971 8.64659 20.0204 9.01239 22.0078C9.37819 23.9953 10.2768 25.8459 11.6135 27.3615C11.1415 26.6352 10.7491 25.8606 10.4421 25.0507C9.70301 22.8503 9.36815 20.5343 9.45416 18.2146Z" fill="#90949C"/>
<path d="M24.1953 9.64067C21.5092 8.54612 18.5025 8.54219 15.8135 9.62965C17.1439 9.5412 18.545 9.49637 20.0179 9.49514C21.446 9.49514 22.8465 9.54486 24.1953 9.64067Z" fill="#90949C"/>
<path d="M22.9721 27.879C22.9159 28.0289 22.8242 28.1628 22.7048 28.2695L22.6887 28.7596C22.6863 28.9151 22.6233 29.0635 22.5132 29.1733C22.4031 29.2831 22.2548 29.3457 22.0993 29.3476C22.0368 29.3487 21.9743 29.3393 21.9149 29.3199L21.4425 29.1634C21.3441 29.2225 21.2366 29.2641 21.124 29.2866L22.0453 30.3924C22.7543 30.0438 23.4325 29.6358 24.0724 29.1726L22.9667 27.8403L22.9721 27.879Z" fill="#90949C"/>
<path d="M23.1052 21.0889H19.9912L21.3696 22.7473C21.4622 22.8315 21.5431 22.9276 21.6107 23.033L21.6251 23.0532L21.8096 23.2707C21.8307 23.2915 21.8537 23.3104 21.8779 23.3276C21.9968 23.4129 22.1303 23.4756 22.272 23.5121C22.4609 23.5602 22.6382 23.6467 22.7921 23.7662C22.916 23.868 23.014 23.9975 23.0791 24.1441L23.5802 24.3081C23.6651 24.3365 23.7418 24.3846 23.8043 24.4487C23.8668 24.5128 23.9139 24.5909 23.9401 24.6765C23.9696 24.7693 23.9765 24.8677 23.9608 24.9638C23.9451 25.0598 23.9067 25.1509 23.8492 25.2294L23.6648 25.4946L25.6478 27.8681C26.2143 27.2856 26.7062 26.6351 27.1126 25.9314L23.1052 21.0889Z" fill="#90949C"/>
</svg>
