<svg width="34" height="40" viewBox="0 0 34 40" fill="none" xmlns="http://www.w3.org/2000/svg">
<path d="M16.3447 33.7659C16.4204 33.7664 16.4942 33.7447 16.5571 33.7032C16.528 33.7753 16.4791 33.8377 16.4155 33.8837C16.3519 33.9298 16.2764 33.9575 16.1976 33.9635L16.2206 34.1001C16.3578 34.0898 16.4856 34.0291 16.5791 33.9302C16.6727 33.8313 16.7243 33.7014 16.7244 33.5665C16.7244 33.3247 16.5892 33.1974 16.3953 33.1974C16.3541 33.1948 16.3126 33.2007 16.2739 33.2147C16.2352 33.2287 16.1996 33.2503 16.17 33.2785C16.1404 33.3067 16.1174 33.3406 16.102 33.3781C16.0865 33.4156 16.0794 33.456 16.0808 33.4964C16.0765 33.5318 16.0803 33.5678 16.0918 33.6016C16.1034 33.6355 16.1227 33.6664 16.1479 33.6922C16.1731 33.718 16.204 33.7378 16.238 33.7506C16.272 33.7633 16.3084 33.7686 16.3447 33.7659ZM16.3934 33.3265C16.4989 33.3265 16.5699 33.4152 16.5699 33.5739C16.5201 33.6141 16.4579 33.6356 16.3934 33.6347C16.3725 33.6375 16.3509 33.6355 16.3309 33.6289C16.3109 33.6222 16.2934 33.6113 16.2785 33.5967C16.2636 33.582 16.2522 33.564 16.2454 33.5444C16.2386 33.5248 16.2362 33.5041 16.239 33.4835C16.2376 33.4631 16.2409 33.4424 16.2481 33.4232C16.2554 33.4039 16.2667 33.3865 16.2812 33.3718C16.2958 33.357 16.3134 33.3453 16.3327 33.3375C16.3521 33.3298 16.3725 33.3259 16.3934 33.3265Z" fill="#90949C"/>
<path d="M15.7005 33.3765V34.0834H15.8669V33.2158H15.7198L15.501 33.3136L15.5203 33.443L15.7005 33.3765Z" fill="#90949C"/>
<path d="M17.2599 34.0983C17.4689 34.0983 17.612 33.9377 17.612 33.6479C17.612 33.358 17.4689 33.1992 17.2599 33.1992C17.0508 33.1992 16.9077 33.3617 16.9077 33.6479C16.9077 33.934 17.0471 34.0983 17.2599 34.0983ZM17.2599 33.3304C17.3785 33.3304 17.4483 33.443 17.4483 33.6479C17.4483 33.8528 17.3841 33.9672 17.2599 33.9672C17.1356 33.9672 17.0714 33.8546 17.0714 33.6479C17.0714 33.4411 17.1393 33.3304 17.2599 33.3304Z" fill="#90949C"/>
<path d="M18.3914 33.801C18.3931 33.7642 18.3864 33.7274 18.3721 33.6933C18.3578 33.6593 18.3363 33.6288 18.3087 33.6038C18.2811 33.5789 18.2479 33.5601 18.2121 33.5489C18.1764 33.5376 18.1391 33.5341 18.1018 33.5387C18.0567 33.5381 18.0111 33.5438 17.9676 33.5554L17.985 33.3542H18.3611L18.339 33.2158H17.8453L17.8131 33.6717L17.9262 33.6958C17.9697 33.6778 18.017 33.6689 18.0641 33.6699C18.1677 33.6699 18.2259 33.7235 18.2259 33.8085C18.2259 33.8934 18.1485 33.9597 18.0375 33.9597C17.9513 33.9594 17.8669 33.9365 17.7929 33.8932L17.7681 34.0354C17.8506 34.0776 17.9426 34.0992 18.0356 34.0982C18.0796 34.1062 18.1248 34.1044 18.168 34.0931C18.2113 34.0817 18.2516 34.0611 18.2857 34.0327C18.3198 34.0042 18.3465 33.9686 18.3648 33.9286C18.3831 33.8885 18.3925 33.8449 18.3914 33.801Z" fill="#90949C"/>
<path d="M23.9107 21.378C23.8824 21.3872 23.6822 21.4352 23.5071 21.474L23.3195 21.3706L23.1457 21.2746L23.1172 21.2597L22.7274 21.0438L22.6134 20.981L22.583 20.9902H22.5601L22.5711 20.9994L22.6134 21.0346L23.3793 21.6881C23.7125 22.0572 23.8878 22.4265 23.5677 22.6277L23.5392 22.6424L23.4997 22.6626C23.6551 22.6871 23.8149 22.6633 23.9557 22.5944C24.0958 22.5364 24.22 22.4473 24.3189 22.3341C24.5072 22.0923 24.181 21.2837 24.1791 21.2579C24.0987 21.3154 24.0078 21.3564 23.9107 21.378Z" fill="#90949C"/>
<path d="M22.8203 21.4036L22.8902 21.6086L22.9031 21.6474L22.9518 21.7968L23.1513 21.9574L23.428 22.1771L23.4832 22.2213C23.4832 22.2213 23.3587 21.9852 23.3361 21.9464C23.2087 21.7292 23.0323 21.5434 22.8203 21.4036Z" fill="#90949C"/>
<path d="M20.6016 20.2407L20.6678 20.3054C20.6678 20.3054 20.6581 20.2703 20.6016 20.2407Z" fill="#90949C"/>
<path d="M15.5289 23.3123C15.5792 22.7257 15.7726 22.1596 16.0934 21.662C16.3703 21.742 16.6607 21.7669 16.9475 21.7352C17.2344 21.7035 17.5122 21.6159 17.764 21.4774C17.6864 21.8864 17.7044 22.3074 17.8173 22.7084C17.9302 23.1095 18.1353 23.4802 18.4158 23.7923C18.322 23.1051 18.4097 22.4059 18.6714 21.7618C18.8061 21.4215 19.0344 21.1243 19.3306 20.9033C19.5202 20.7626 19.7288 20.6483 19.9503 20.5637L19.5587 20.4087C19.2789 20.322 19.0191 20.1815 18.7955 19.9952C18.6947 19.9113 18.6036 19.8164 18.5243 19.7126C18.9443 19.9325 19.406 20.0663 19.8805 20.1058C20.1323 20.1001 20.3814 20.1526 20.6086 20.259C20.3168 19.9803 19.7048 19.4192 19.7048 19.4192C20.3309 19.5547 20.9308 19.7897 21.4793 20.1151L20.7392 19.2734L21.6448 19.72L21.9988 20.3458C22.3809 20.6866 22.8096 20.9732 23.2731 21.1969C23.1364 21.0691 23.0205 20.9222 22.9274 20.7611C23.052 20.8337 23.1974 20.863 23.3411 20.8442C23.2238 20.7937 23.1307 20.7015 23.08 20.586C23.0293 20.4706 23.0248 20.3404 23.0681 20.2221C23.0681 20.2221 22.9497 19.9749 22.8989 19.8789C22.8989 19.8789 22.7483 19.5096 22.8594 19.3545C22.9912 19.613 23.3882 20.3513 23.4974 20.6171C23.5276 20.6909 23.5575 20.7649 23.5839 20.8406L23.6068 20.9366C23.6332 20.9256 23.7289 20.87 23.7779 20.6633V20.6523C23.8076 20.497 23.8132 20.3383 23.7935 20.1815C23.7935 20.1815 23.8211 20.2388 23.8588 20.3237C23.8994 20.4173 23.9355 20.5128 23.9663 20.6099C24.0017 20.7084 24.0203 20.8119 24.0224 20.9163C24.0263 20.9491 24.0235 20.9822 24.0141 21.0139C24.0048 21.0456 23.9894 21.0753 23.9682 21.1009C23.9817 21.0952 23.9944 21.0876 24.0059 21.0786C24.0936 21.0002 24.1668 20.9072 24.221 20.8037C24.28 20.6318 24.3091 20.4514 24.3074 20.2701C24.2943 20.2202 24.2748 20.1706 24.2559 20.1189C23.9216 19.3795 23.4886 18.6873 22.9669 18.0607L22.9816 18.2691L23.0083 18.7196C22.4444 18.1169 21.7936 17.5978 21.0775 17.1783C21.0512 17.4847 21.0249 17.9481 20.9966 18.2527C20.842 17.7494 20.5715 17.2876 20.2059 16.9031C20.2323 17.212 20.2592 17.5197 20.2868 17.8261C19.6862 16.3124 16.4642 13.1708 15.6282 11.1956C15.5905 11.1089 15.5023 11.1105 15.3818 11.0311C9.09454 6.8039 10.7668 1.95103 10.8628 1.69075C8.4451 7.7473 12.7007 10.5881 12.7007 10.5881C11.739 10.0596 10.8898 9.35456 10.1999 8.51142C9.8091 7.96781 9.45275 7.40138 9.13249 6.8151C8.75924 6.1381 8.44432 5.43164 8.19101 4.70326C7.73076 3.42311 7.56872 2.05831 7.71659 0.70874C7.1643 2.59462 7.20708 4.60003 7.83887 6.46177C8.47066 8.32351 9.6617 9.9545 11.2563 11.1402V11.1309C11.8453 11.6134 12.4753 12.0456 13.1393 12.423C13.5686 12.6667 14.0322 12.8476 14.4577 13.1042C16.361 14.2405 17.87 15.9131 18.7882 17.9036L18.7257 17.8556C16.7156 15.8583 14.1217 14.5236 11.3032 14.0364C12.9549 14.7898 14.531 15.6934 16.0106 16.7353C15.5105 16.7947 15.0426 17.0079 14.6738 17.3443C15.2425 17.2339 15.829 17.2446 16.3931 17.3757C16.7428 17.4663 17.0828 17.5901 17.4081 17.745C16.3675 17.5969 15.3074 17.8231 14.4237 18.3818C13.8653 18.6834 13.254 18.8794 12.6217 18.9595C13.4632 19.1683 14.3501 19.1186 15.162 18.8173C16.074 18.5484 17.0526 18.6008 17.9295 18.9652C17.841 18.9559 17.7541 18.9486 17.6656 18.9449C16.5233 18.9368 15.4103 19.2936 14.4936 19.9618C14.4541 19.9895 14.4127 20.0172 14.375 20.0468L16.7489 20.2426L15.116 21.3778C15.104 21.5382 15.104 21.6992 15.116 21.8596C15.1351 22.2919 15.2383 22.7166 15.4194 23.1111C15.4525 23.1799 15.4892 23.247 15.5289 23.3123Z" fill="#90949C"/>
<path d="M28.3651 36.4295L28.3366 36.4515C28.3162 36.4691 28.3007 36.4907 28.2897 36.5149C28.2786 36.5391 28.2729 36.5654 28.2731 36.5919C28.2666 36.6397 28.2796 36.6881 28.309 36.7267C28.3692 36.7747 28.5739 36.7267 28.7246 36.699C28.7942 36.6842 28.8646 36.6695 28.9305 36.6584C29.233 36.6088 29.5427 36.6252 29.838 36.7064L29.86 36.3981C29.5654 36.346 29.2676 36.3176 28.9682 36.3132C28.7602 36.2967 28.5511 36.3369 28.3651 36.4295Z" fill="#90949C"/>
<path d="M4.21191 36.2507L4.22203 36.5589C4.36641 36.5219 4.51505 36.5043 4.66427 36.5071C4.82049 36.5071 4.97644 36.5226 5.12949 36.5533C5.19539 36.5662 5.26489 36.5846 5.33268 36.6031C5.48143 36.6419 5.6852 36.6972 5.74734 36.6511C5.77724 36.6125 5.7919 36.5647 5.78871 36.5163C5.7918 36.487 5.78678 36.4574 5.77492 36.4303C5.76306 36.4031 5.74449 36.3794 5.72067 36.3613C5.24071 36.1766 4.71459 36.1381 4.21191 36.2507Z" fill="#90949C"/>
<path d="M28.8306 36.0107C29.3755 36.0045 29.9189 36.0665 30.4478 36.1953C30.7232 36.2827 31.0207 36.2788 31.2937 36.1842C31.3395 36.1501 31.3698 36.0997 31.3783 36.0438C30.7662 35.6048 30.0489 35.3283 29.2958 35.241C29.1948 35.5255 29.0365 35.7872 28.8306 36.0107Z" fill="#90949C"/>
<path d="M2.73486 35.9091C2.75001 35.9351 2.76933 35.9582 2.79279 35.9774C3.05971 36.0857 3.35634 36.1041 3.63497 36.0292C4.16441 35.9235 4.70522 35.8831 5.24487 35.9091C5.07144 35.7231 4.91672 35.5209 4.78332 35.3054C4.06856 35.3823 3.37441 35.5869 2.73486 35.9091Z" fill="#90949C"/>
<path d="M33.1195 33.3544C32.6548 33.0352 32.1484 32.7794 31.6135 32.5939V27.7778L31.9243 27.6633V26.9731L31.6135 26.8364V26.3566L31.9243 26.2422V25.4188L30.9037 24.4699V24.2448C30.8873 24.1823 30.8478 24.1277 30.7934 24.0913C30.739 24.055 30.673 24.0393 30.6077 24.0472H30.3052C30.3052 24.0472 30.0698 24.0805 30.0698 24.2448V24.4553L29.0226 25.4224V26.2458L29.3334 26.3528V26.8328L29.0171 26.9675V27.3017C27.3426 29.1514 25.3157 30.6627 23.0501 31.7505V30.6558H20.5603C20.4936 30.0966 20.2876 29.562 19.9599 29.0996C19.9623 29.0745 19.9623 29.0491 19.9599 29.0239C20.254 28.8253 20.4612 28.5255 20.5401 28.1841C20.5862 28.0203 20.5958 27.8487 20.5695 27.6807C20.5432 27.5127 20.4815 27.352 20.3874 27.2093C20.3769 27.193 20.3642 27.1782 20.3497 27.1651C20.3083 27.1282 20.2028 27.0468 20.0804 26.9508C19.9128 26.8216 19.6321 26.6057 19.5756 26.543C19.4204 26.3553 19.3062 26.1387 19.2391 25.9062C19.2727 25.9044 19.3051 25.8954 19.3347 25.8798C19.3643 25.8642 19.39 25.8425 19.4101 25.816C19.4302 25.7896 19.4437 25.7591 19.4506 25.7268C19.4574 25.6945 19.4574 25.6613 19.4496 25.6292L19.4193 25.4981C19.3722 25.2987 19.3173 25.0736 19.274 24.8244V24.8133H19.3062C19.3469 24.8132 19.3869 24.8027 19.4221 24.7827C19.4573 24.7626 19.4864 24.7337 19.5066 24.6991C19.5269 24.6644 19.5381 24.6252 19.5379 24.5853C19.5377 24.5454 19.5262 24.5064 19.5057 24.4719L19.2501 23.7943L19.2989 23.848C19.3629 23.9107 19.5156 24.0233 19.6023 23.992C19.6889 23.9606 19.6904 23.8072 19.6979 23.7094C19.7378 23.4716 19.8266 23.2444 19.959 23.0413C20.0914 22.8382 20.265 22.6634 20.4684 22.528C20.4812 22.5666 20.4968 22.6043 20.5152 22.6406C20.5548 22.7163 20.5583 22.8824 20.6449 22.8824C20.7315 22.8824 20.7982 22.7606 20.9262 22.6332C21.0465 22.4799 21.204 22.3593 21.385 22.2826L22.184 22.5983C22.2424 22.7919 22.3536 22.966 22.5058 23.1021C22.686 23.2367 22.8743 23.3599 23.0703 23.4712L23.1586 23.5266C23.1323 23.5393 23.1053 23.5505 23.0777 23.56C22.9873 23.5932 22.7237 23.6781 22.7237 23.7723C22.7237 23.8664 22.9835 23.9568 23.0758 23.9863C23.2566 24.052 23.4484 24.0857 23.6413 24.0859C23.816 24.0942 23.99 24.0656 24.1524 24.0019C24.3149 23.9382 24.462 23.8409 24.5827 23.7168C24.6672 23.6176 24.7276 23.5011 24.7602 23.3759C24.7928 23.2507 24.7969 23.12 24.7712 22.9933C24.7373 22.7884 24.6542 22.2788 24.6259 22.1145L24.842 21.4204C24.8495 21.399 24.854 21.3766 24.854 21.354C24.838 20.9748 24.7404 20.6033 24.5689 20.2631L24.5597 20.2372C24.5515 20.2109 24.5381 20.1866 24.5202 20.1653L24.4899 20.1081C24.436 19.9921 24.3738 19.8803 24.3023 19.7739C23.8994 19.1502 23.4215 18.5758 22.88 18.0627C22.8103 18 22.6751 17.8892 22.5904 17.928C22.5056 17.9667 22.4845 18.1496 22.4901 18.2419V18.2917C22.3966 18.1437 22.2908 18.0035 22.1739 17.8725C22.0817 17.7464 22.012 17.606 21.967 17.4572C22.4287 15.51 23.3975 13.7134 24.7786 12.2425C24.8165 12.2052 24.8397 12.1563 24.8457 12.104C25.3014 7.6423 30.4951 5.67828 30.5516 5.65982C30.6097 5.64248 30.6666 5.62222 30.7226 5.59898C30.9109 5.46792 30.9318 5.36639 30.9111 5.32024C30.8508 5.13564 30.5345 5.00071 29.2635 5.00071C28.7664 5.00071 28.3047 5.01919 28.299 5.01919C28.2792 5.021 28.2601 5.02468 28.2411 5.03023C27.4762 5.0809 26.7252 5.25826 26.0207 5.55459C26.8908 4.63145 27.9731 3.92453 29.1771 3.49255C29.2467 3.46657 29.3108 3.42792 29.3655 3.3783C29.407 3.31369 29.4763 3.25634 29.4179 3.15297C29.32 2.96837 28.9339 2.92966 28.676 2.92966C28.2859 2.93956 27.8967 2.97645 27.512 3.0403C27.2804 3.06534 27.0509 3.10242 26.8233 3.15116H26.7948C25.8188 3.3638 24.9041 3.78828 24.1175 4.39344C24.0102 4.4765 23.9048 4.56509 23.8031 4.6537L24.4264 3.61445C24.7482 3.09527 25.1102 2.60165 25.5104 2.13783C25.5367 2.1086 25.555 2.07278 25.5619 2.0344C25.577 1.96056 25.6651 1.84965 25.6162 1.78135C25.5876 1.74887 25.5523 1.72311 25.5123 1.70586C25.4722 1.68862 25.4282 1.6804 25.3845 1.68175C25.2734 1.68175 24.9012 1.71863 23.4758 2.78927C22.1372 3.70602 21.0031 4.88054 20.1429 6.24118C19.6743 7.01903 19.2951 7.84571 19.0129 8.70568C19.0016 8.62815 18.9901 8.55062 18.9826 8.47493C18.9445 8.13774 18.9234 7.7988 18.9201 7.45957C18.9201 7.00362 18.9352 6.59389 18.9541 6.33177C18.9541 6.22101 18.941 5.9626 18.8318 5.93676C18.7226 5.91091 18.557 6.12136 18.5118 6.22473C17.9838 7.37508 17.6729 8.6096 17.5933 9.86863L17.3387 12.1538C17.3085 12.3125 17.1879 13.0767 17.1879 13.0767C17.0043 12.7778 16.8446 12.4656 16.7098 12.1427L16.6914 12.1078L16.4707 11.7644L16.4514 11.7367C16.1517 11.4039 15.7932 11.1269 15.3932 10.9189C14.5396 10.4307 13.7835 9.79605 13.159 9.04525C12.5026 8.21686 12.0224 7.26785 11.7468 6.25425C11.3367 4.37276 11.3703 2.42414 11.8461 0.557555C11.9011 0.420177 11.9067 0.268521 11.8626 0.12739C11.8391 0.0971356 11.8098 0.0725412 11.7753 0.0552831C11.7407 0.0380251 11.7019 0.0286306 11.6631 0.0277923C11.5144 0.0277923 11.3788 0.155083 10.4467 1.60784V1.61911C9.8309 2.58701 9.40863 3.66061 9.20092 4.78304C9.15573 5.02486 9.1215 5.26662 9.09703 5.50659C8.87965 4.97699 8.70061 4.43299 8.56193 3.87855C8.26588 2.73356 8.16998 1.54765 8.27783 0.371203C8.27783 0.302903 8.30017 0.120178 8.24932 0.0721833C8.22437 0.0485468 8.19523 0.0300114 8.1629 0.0176522C8.13057 0.00529295 8.09645 -0.00075877 8.06176 7.60261e-05C7.85652 7.60261e-05 7.54023 0.260351 6.88307 1.98077C6.27272 3.49813 6.05514 5.14023 6.25144 6.75991C5.59207 5.74878 5.1446 4.61952 4.93391 3.43734C4.86236 3.15306 4.79225 2.87419 4.71693 2.60653C4.68116 2.47362 4.58193 2.1488 4.45766 2.20971L4.43283 2.22458L4.41996 2.23563L4.40249 2.24847C4.37801 2.27247 4.28792 2.55487 4.27285 2.58625C4.22403 2.69207 4.19659 2.80617 4.19195 2.92222V2.94431C4.19195 2.99599 4.19195 3.04963 4.19195 3.10317C4.19195 3.1567 4.19195 3.22126 4.19195 3.28772C4.02623 5.14834 4.37639 7.01831 5.20514 8.70004L5.23089 8.76088L5.27869 8.86611C5.40674 9.12824 5.54946 9.36826 5.68691 9.60454C5.73211 9.68207 5.77692 9.75599 5.82023 9.83167C5.94518 10.0499 6.09545 10.2536 6.26707 10.439C5.60991 10.3079 4.63598 10.1177 4.16712 10.0475C4.11497 10.0406 4.06265 10.0512 4.01726 10.0773C3.97186 10.1034 3.93636 10.1435 3.91704 10.1915C3.89817 10.2401 3.89691 10.2936 3.91336 10.343C3.92981 10.3923 3.96269 10.4346 4.00714 10.4628C4.65855 10.9456 5.2787 11.4685 5.86252 12.0282L7.19108 13.241L7.31428 13.3519C7.74736 13.7543 8.19872 14.166 8.6318 14.55L7.72066 14.4632C7.67111 14.4577 7.62101 14.4682 7.57815 14.4932C7.53529 14.5182 7.50209 14.5562 7.48345 14.6016C7.46428 14.6466 7.4602 14.6965 7.47242 14.7438C7.48464 14.791 7.51276 14.833 7.55149 14.8636L9.67534 16.5489L10.603 17.2745L10.6223 17.293L12.2175 18.5519C12.2571 18.5818 12.3046 18.5991 12.3545 18.6017L12.7627 18.611C11.9422 18.9588 11.0167 18.9806 10.1801 18.6718C9.46434 18.4336 8.79546 18.0758 8.20427 17.6141C8.12331 17.5495 7.91297 17.4295 7.82823 17.4904C7.7435 17.5513 7.80708 17.7803 7.84662 17.8782C8.05429 18.3127 8.34254 18.7056 8.69616 19.0373C7.57218 18.8862 6.4786 18.5649 5.45522 18.0848C5.35919 18.0442 5.18834 17.9336 5.12056 18.0111C5.05277 18.0886 5.10916 18.3305 5.16377 18.4154C5.55253 19.0376 6.00196 19.6211 6.50611 20.1579C6.89319 20.555 7.32344 20.9096 7.7887 21.2156C7.84142 21.247 7.97657 21.3319 8.6695 21.3319C8.92746 21.3319 9.21366 21.3189 9.45468 21.2967L9.54294 21.2875C8.95382 21.5122 8.31999 21.6006 7.69032 21.5459C7.57358 21.5293 7.3142 21.546 7.27842 21.6512C7.24265 21.7564 7.46596 21.9448 7.58459 21.9835C8.3509 22.2584 9.14557 22.4521 9.95392 22.5613C10.5215 22.7162 11.1016 22.8224 11.6879 22.8788C11.7368 22.8824 11.7862 22.8824 11.835 22.8788L12.0235 22.8973C12.3191 22.9231 12.5882 22.9489 12.8951 22.9489C13.1417 22.9488 13.3881 22.9297 13.6316 22.8917C13.6347 22.9219 13.643 22.9514 13.6573 22.9784L13.7897 23.2369C13.7535 23.2428 13.7189 23.257 13.6895 23.2786C13.6601 23.3001 13.6366 23.3282 13.6205 23.3606C13.6045 23.3929 13.5967 23.4287 13.5976 23.4647C13.5985 23.5006 13.6075 23.5357 13.6251 23.5672L13.9138 24.0952L13.9359 24.1303L13.9571 24.1544L13.9212 24.1747C13.8825 24.2009 13.8528 24.2382 13.8366 24.2815C13.8204 24.3248 13.8189 24.372 13.8311 24.4165C13.8693 24.6091 13.9463 24.7921 14.0582 24.9548C14.1701 25.1175 14.3142 25.2565 14.482 25.3634C14.548 25.3969 14.6071 25.4428 14.6549 25.4986C14.7027 25.5543 14.7382 25.6188 14.7606 25.6883C14.7977 25.8088 14.8423 25.9271 14.893 26.0427C15.0041 26.3122 15.1694 26.7202 15.0659 26.8808C14.9712 27.0403 14.8356 27.1727 14.6724 27.2647C14.5398 27.3481 14.4145 27.4413 14.2963 27.5435C14.1206 27.7025 14.0143 27.9221 14.0003 28.1562C13.9862 28.3902 14.0654 28.6207 14.2209 28.7988V28.8153C13.7588 29.3375 13.4669 29.9839 13.3843 30.6704H10.8743V31.7117C8.66589 30.5701 6.68172 29.0539 5.01298 27.2334V26.9824L4.70222 26.8512V26.8402V26.3677L5.01298 26.2606V25.4373L3.96577 24.4699V24.2594C3.96577 24.0951 3.7304 24.062 3.7304 24.062H3.42883C3.3635 24.0542 3.2975 24.0699 3.24311 24.1062C3.18871 24.1425 3.15012 24.1969 3.1337 24.2594V24.4848L2.11131 25.4337V26.2568L2.42207 26.3713V26.8512L2.11131 26.9878V27.6782L2.42207 27.7927V32.7287C1.95509 32.8739 1.49779 33.0477 1.05306 33.2492L0.571289 33.4799L0.94733 33.8493C1.69974 34.6922 2.12598 35.7678 2.15084 36.8877C2.15299 36.9992 2.18115 37.1087 2.23267 37.2081C2.2842 37.3075 2.35722 37.3944 2.44782 37.4618C2.81779 37.6648 3.25264 37.722 3.6642 37.6223L3.68535 38.4826L4.237 38.1705C4.47869 38.0852 4.74052 38.0717 4.99 38.1317L5.16377 38.1743C5.30145 38.2341 5.45095 38.2621 5.60141 38.2564C5.75187 38.2506 5.89918 38.2111 6.0317 38.141C6.11452 38.078 6.18119 37.9972 6.22661 37.9046C6.27204 37.812 6.29527 37.7103 6.29373 37.6076C6.30048 37.4983 6.28087 37.3887 6.23673 37.2881C6.19258 37.1874 6.12465 37.0985 6.03905 37.0281C6.0066 37.0045 5.97159 36.984 5.93516 36.967C5.80011 36.8306 5.67486 36.6857 5.55912 36.5332C6.37292 36.5374 7.18064 36.6714 7.95052 36.93C8.965 37.288 9.94525 37.7315 10.8816 38.2555C12.6316 39.3505 14.6554 39.954 16.7309 40C16.9588 40 17.1923 40 17.4352 39.9797C19.6497 39.7972 21.7975 39.1486 23.7332 38.0783C24.4393 37.7368 25.1079 37.412 25.8046 37.1554L25.9812 37.0871C26.7779 36.7516 27.6276 36.553 28.493 36.5001C28.4798 36.5112 28.4628 36.5203 28.4553 36.535C28.2944 36.7638 28.1095 36.9754 27.9037 37.1664C27.7797 37.2993 27.7131 37.4738 27.7161 37.6538C27.7078 37.7578 27.7248 37.8622 27.7658 37.9585C27.8067 38.0547 27.8703 38.14 27.9515 38.2075C28.0806 38.2836 28.2253 38.33 28.3753 38.3431C28.5254 38.3562 28.6768 38.3357 28.8176 38.2832C28.8759 38.2702 28.9358 38.2554 28.9923 38.248C29.2452 38.1979 29.5075 38.2237 29.7453 38.3219L30.284 38.6615L30.3447 37.7996C30.7512 37.919 31.1887 37.882 31.5685 37.6962C31.6616 37.6337 31.7392 37.5516 31.7955 37.4557C31.8519 37.3599 31.8854 37.2526 31.8939 37.1423C31.9977 35.9763 32.4355 34.8628 33.1572 33.9304L33.4284 33.6221L33.1195 33.3544ZM10.3364 33.0333V33.1883C10.2234 33.1367 10.1046 33.0906 9.98978 33.0407V32.5515H10.3382L10.3364 33.0333ZM9.78383 32.9558C9.43172 32.8118 9.07083 32.6715 8.698 32.5441H9.78383V32.9558ZM11.5923 33.1403H11.0857V31.8963H11.5923V33.1403ZM12.6818 33.338V34.2794L12.3334 34.1151V33.338H12.6818ZM12.3398 33.1403V31.8963H12.68V33.1403H12.3398ZM13.3447 33.1403H12.8915V31.8963H13.3447V33.1403ZM13.3447 33.338V33.7199V34.5802L12.8878 34.3716V33.338H13.3447ZM12.1302 33.1403H11.7836V31.8963H12.1302V33.1403ZM12.1302 33.338V34.0171L11.927 33.9211L11.7836 33.8529V33.338H12.1302ZM21.6415 33.338V34.4622C21.5248 34.5194 21.4079 34.5821 21.2931 34.6357V33.3434L21.6415 33.338ZM21.2931 33.1403V31.8963H21.6415V33.1403H21.2931ZM22.3945 33.7273V33.338H22.846V33.8067C22.6916 33.8971 22.5433 33.9784 22.3927 34.0633L22.3945 33.7273ZM22.3945 33.1403V31.8963H22.846V33.1403H22.3945ZM22.1877 33.1403H21.841V31.8963H22.1877V33.1403ZM22.1877 33.338V34.1796L21.8392 34.3641V33.338H22.1877ZM23.6311 33.0664V32.5441H23.9778V33.1367C23.8535 33.2013 23.7412 33.2659 23.6339 33.3213L23.6311 33.0664ZM24.1791 33.0444V32.5441H25.5674C25.0919 32.676 24.6286 32.8464 24.1819 33.0536L24.1791 33.0444ZM29.1697 27.5471C29.2431 27.5138 29.3223 27.4844 29.4032 27.4567V27.6413L29.1697 27.5471ZM29.8225 29.0239V30.4895C29.7065 30.5096 29.5927 30.5374 29.4805 30.5727V29.0958C29.5941 29.0686 29.7084 29.0471 29.8243 29.0314L29.8225 29.0239ZM29.4805 28.939V27.4326C29.5929 27.3983 29.7067 27.3708 29.8225 27.3497V28.856C29.707 28.8788 29.5937 28.9089 29.4823 28.9464L29.4805 28.939ZM29.4805 32.0513V30.759C29.4805 30.759 29.702 30.6964 29.8206 30.6743V32.1897C29.7077 32.1767 29.5934 32.1675 29.4805 32.1601C29.4842 32.0771 29.4823 32.0587 29.4823 32.0587L29.4805 32.0513ZM30.3649 28.9667V30.4323C30.2497 30.4351 30.1345 30.4438 30.0202 30.4582V28.9926C30.1352 28.9805 30.251 28.9743 30.3668 28.9741L30.3649 28.9667ZM30.0202 28.8263V27.3202C30.1344 27.3048 30.2497 27.2961 30.3649 27.2942V28.8006C30.2501 28.8051 30.1355 28.8161 30.022 28.8337L30.0202 28.8263ZM30.0202 31.8537V30.6373C30.0202 30.6373 30.2463 30.6151 30.3649 30.6114V31.8537V32.2636C30.2482 32.2433 30.1314 32.2229 30.0128 32.2063C30.0203 32.0734 30.022 31.8611 30.022 31.8611L30.0202 31.8537ZM30.9074 28.9926V30.4582C30.793 30.4439 30.6778 30.4352 30.5626 30.4323V28.9667C30.6831 28.9778 30.7961 28.9871 30.9166 29L30.9074 28.9926ZM30.5626 28.8081V27.3017H30.7299L30.9074 27.3202V28.8263C30.7936 28.8137 30.679 28.8077 30.5644 28.8081H30.5626ZM30.9074 30.6448V32.3855C30.7925 32.3578 30.6775 32.3281 30.5626 32.3041V30.6188C30.5626 30.6188 30.798 30.63 30.9166 30.6448H30.9074ZM31.0959 32.4353C31.0959 32.2359 31.0959 31.8021 31.0959 31.8021V30.6743C31.0959 30.6743 31.3287 30.7239 31.4379 30.759V32.5387C31.3343 32.5018 31.2199 32.4685 31.1051 32.4353H31.0959ZM31.4407 28.9464C31.3281 28.9123 31.2135 28.8845 31.0977 28.8633V27.3571C31.2135 27.3783 31.3281 27.4059 31.4407 27.44V28.9464ZM31.4407 29.1143V30.5801C31.3287 30.5442 31.2139 30.5163 31.0977 30.4969V29.0314C31.2168 29.0513 31.3345 29.0789 31.4498 29.1143H31.4407ZM31.5179 27.6469V27.4623C31.5989 27.49 31.6798 27.5213 31.7551 27.5545L31.5179 27.6469ZM31.5179 26.2237V26.0391C31.5986 26.0657 31.6777 26.0964 31.7551 26.1313L31.5179 26.2237ZM30.1902 24.2522C30.1902 24.1895 30.32 24.1894 30.3557 24.1894H30.5553C30.591 24.1894 30.7226 24.1895 30.7226 24.2522V24.4109C30.636 24.4109 30.5473 24.4016 30.4569 24.4016C30.3665 24.4016 30.2693 24.4016 30.1902 24.4109V24.2522ZM30.1902 24.5199C30.2769 24.5199 30.3665 24.5107 30.4569 24.5107C30.5473 24.5107 30.636 24.5107 30.7226 24.5199L31.7551 25.4817C31.3449 25.3117 30.9041 25.2241 30.4587 25.2241C30.0134 25.2241 29.5717 25.3117 29.1614 25.4817L30.1902 24.5199ZM29.1614 25.6274C29.5717 25.4575 30.0134 25.3699 30.4587 25.3699C30.9041 25.3699 31.3449 25.4575 31.7551 25.6274V25.9542C31.3445 25.7855 30.9039 25.6984 30.4587 25.6984C30.0136 25.6984 29.572 25.7855 29.1614 25.9542V25.6274ZM31.4407 26.0207V26.805C31.3284 26.77 31.2137 26.7424 31.0977 26.7221V25.9375C31.2166 25.9572 31.3342 25.9836 31.4498 26.0168L31.4407 26.0207ZM30.9 25.908V26.6906C30.7871 26.6777 30.6739 26.6686 30.5553 26.6649V25.8821C30.6833 25.8821 30.7961 25.8915 30.9166 25.9044L30.9 25.908ZM30.3576 25.8803V26.6649C30.239 26.6649 30.1239 26.6777 30.0128 26.6906V25.908C30.1295 25.892 30.2475 25.8816 30.3668 25.8767L30.3576 25.8803ZM29.8151 25.9375V26.7221C29.6991 26.742 29.5843 26.7696 29.4722 26.805V26.0207C29.5876 25.9842 29.7052 25.9544 29.8243 25.9319L29.8151 25.9375ZM29.1614 26.1369C29.2374 26.1025 29.3154 26.0721 29.395 26.0463V26.2311L29.1614 26.1369ZM29.1614 27.0599C29.5697 26.8851 30.0114 26.7976 30.4569 26.8032C30.9029 26.7987 31.3457 26.8862 31.7551 27.0599V27.3866C31.3447 27.2172 30.904 27.13 30.4587 27.13C30.0134 27.13 29.5718 27.2172 29.1614 27.3866V27.0599ZM28.2374 29.131V28.5126L29.0336 27.7244V28.6086C28.8046 28.9409 28.5376 29.2461 28.2374 29.5185V29.131ZM27.831 28.8725V29.8786C27.0272 30.5281 26.15 31.0855 25.2171 31.54C26.1633 31.2942 27.0516 30.869 27.831 30.2885V30.7942H28.2374V30.017C28.4878 29.8453 28.7531 29.6571 29.0336 29.4448V32.1363C28.1697 32.1096 27.3061 32.1794 26.4583 32.3447H23.0418V31.9258C24.7795 31.1342 26.3953 30.1063 27.8402 28.8725H27.831ZM23.0418 32.5533H23.4188V33.4617L23.0418 33.6924V32.5533ZM20.5796 30.8496H22.8386V31.7079H20.5796V30.8496ZM20.5796 31.9055H21.0844V33.1496H20.5796V31.9055ZM20.5796 33.3472H21.0844V34.7335C20.9168 34.8092 20.7453 34.8811 20.5778 34.9475V33.3472H20.5796ZM17.7037 11.864C18.0112 12.4871 18.4695 13.0271 19.0387 13.4368C18.5152 12.6907 18.087 11.8848 17.7625 11.037C17.7776 10.8081 17.8002 10.5349 17.8416 10.1695C17.8723 8.83382 18.181 7.51844 18.749 6.30405C18.7283 6.59756 18.7075 7.00357 18.7132 7.45214C18.7132 7.79179 18.7343 8.13146 18.7757 8.48958H18.9127V9.31656C18.9541 9.50115 19.0032 9.70416 19.0653 9.9146C19.2639 10.5225 19.5015 11.1177 19.777 11.6961C19.6022 11.1167 19.4643 10.5273 19.3632 9.93127C19.2766 9.31842 19.2575 8.8589 19.2575 8.8589V8.7904C19.5314 7.93536 19.9032 7.11375 20.3663 6.34101C21.2094 5.01044 22.3194 3.86181 23.6293 2.96481C25.4294 1.62465 25.3587 1.99001 25.3587 1.99001C24.9203 2.49745 24.5246 3.03964 24.1773 3.61085C20.9951 6.83387 21.2048 9.276 21.2048 9.276C21.6487 7.99742 22.3042 6.7993 23.1457 5.7299C23.4671 5.29624 23.8473 4.90753 24.2757 4.57438C25.0406 3.98682 25.9303 3.57552 26.8794 3.37086C27.099 3.32423 27.3209 3.28853 27.5442 3.26383C29.2671 3.01094 29.0906 3.27848 29.0906 3.27848C27.5328 3.78748 26.2024 4.8088 25.3247 6.1693C26.2346 5.61997 27.2696 5.30267 28.3367 5.24633H28.299C28.299 5.24633 30.8919 5.13374 30.4532 5.44755C30.4532 5.44755 25.0738 7.4209 24.5974 12.0801C23.1691 13.5911 22.1744 15.4456 21.7132 17.4554C21.7607 17.6509 21.8454 17.8355 21.9633 17.9998C21.7374 17.8448 21.4639 17.6399 21.1588 17.3851C21.4023 14.0203 22.4137 10.7522 24.1175 7.82146C22.5823 9.3409 21.4937 11.238 20.9658 13.3131C20.7599 13.9159 20.5863 14.529 20.4472 15.1498C20.2718 14.9327 20.0836 14.7262 19.8827 14.5315V16.1521C18.9792 15.1638 18.1808 14.0876 17.5005 12.9402C17.5943 12.5862 17.6659 12.2267 17.7138 11.864H17.7037ZM14.4425 27.6949C14.8191 27.3663 14.9871 27.3958 15.2507 26.9842C15.4747 26.6353 15.0775 25.9763 14.9721 25.609C14.8158 25.0552 14.2713 25.2397 14.0435 24.3426C14.2435 24.5025 14.4647 24.6354 14.7009 24.7376L14.6025 24.4275C14.4191 24.2945 14.2529 24.1407 14.106 23.9697L13.8173 23.4417L14.2559 23.6357L13.8513 22.8567C14.082 22.7258 14.3056 22.5833 14.5216 22.4302C13.5562 22.7253 12.5327 22.7885 11.5372 22.6147C11.9137 22.2843 12.2562 22.0242 12.5687 21.7713L12.8363 21.5552C12.9907 21.426 13.1417 21.2968 13.2923 21.1584C13.0325 21.3005 12.7993 21.4204 12.5715 21.5275C12.4077 21.6105 12.2453 21.6881 12.0814 21.7656C11.7595 21.917 11.4244 22.0685 11.0177 22.2512C10.8034 22.3622 10.5566 22.3973 10.3189 22.3508C9.40799 22.2593 8.51227 22.0565 7.65262 21.7472C8.47137 21.808 9.29245 21.6591 10.0348 21.3152C10.2062 21.2414 10.3739 21.1639 10.5377 21.0827C10.8127 20.9442 11.0746 20.7928 11.3156 20.6415C11.3514 20.6175 10.6858 20.8003 10.1341 20.924C9.96843 20.9609 9.81616 20.9941 9.69189 21.0126C9.61657 21.0273 9.52413 21.0365 9.42434 21.0457C8.91627 21.1157 8.39964 21.0994 7.89719 20.9977C7.45034 20.7012 7.0373 20.3591 6.66425 19.9769C6.16998 19.4499 5.72822 18.8775 5.34581 18.2675C6.58612 18.8524 7.92763 19.2038 9.30022 19.3032C8.79114 18.8701 8.36675 18.3496 8.04797 17.7673C8.65992 18.2474 9.35322 18.618 10.0964 18.862C10.6838 19.069 11.3141 19.1336 11.9325 19.0504C12.5509 18.9671 13.1394 18.7384 13.6481 18.3838L12.349 18.3489L10.8917 17.2006L10.7557 17.0936C11.0126 17.0321 11.273 16.9846 11.5353 16.9514C12.0989 16.9097 12.6659 16.9589 13.2132 17.0972C12.8197 16.8898 12.3971 16.7406 11.9592 16.6541C11.451 16.5495 10.9328 16.5012 10.4136 16.5102L9.99897 16.4973L7.68848 14.6642L9.2947 14.8195H9.30389C8.73901 14.3284 8.10054 13.7469 7.46598 13.1581L7.07247 12.7887C8.48271 12.9033 9.86236 13.2548 11.151 13.828C9.70246 12.855 8.03105 12.2483 6.28545 12.0616C5.61046 11.4069 4.8935 10.7956 4.1377 10.2321C4.86076 10.3373 6.83723 10.7453 6.87112 10.749C6.56311 10.4128 6.28105 10.055 6.02618 9.67845C5.84918 9.37571 5.6492 9.07102 5.49292 8.73136C5.46656 8.67968 5.44384 8.62446 5.41936 8.57092C4.60683 6.92118 4.26368 5.08691 4.42548 3.2618C4.42548 3.14551 4.44019 3.02928 4.44019 2.91298C4.44366 2.82668 4.46331 2.74169 4.49719 2.66196L4.51374 2.63605C4.72527 4.39271 5.45165 6.0516 6.60541 7.41157C6.24707 5.60822 6.42417 3.742 7.11569 2.0344C7.84628 0.122002 8.05717 0.323207 8.05717 0.323207C7.94757 1.52329 8.04677 2.73288 8.34954 3.90063C8.57046 4.78649 8.89155 5.64522 9.30757 6.46089C9.29064 5.90109 9.33483 5.34106 9.43813 4.79025C9.64281 3.69208 10.0586 2.64231 10.6637 1.69662C11.8669 -0.178856 11.6447 0.452324 11.6447 0.452324C11.1559 2.35896 11.1195 4.35028 11.539 6.27273C11.8244 7.32111 12.3211 8.30272 12.9999 9.15973C14.7398 11.1312 15.5326 10.9632 16.2933 11.8511L16.5139 12.1963C17.1514 13.5383 17.9848 14.782 18.9881 15.8882C20.0974 17.0218 21.3654 17.995 22.754 18.7788L22.7274 18.4336L22.7145 18.2121C23.2404 18.7106 23.7041 19.2683 24.0964 19.8735C24.1635 19.9726 24.2237 20.0764 24.2757 20.1838L24.3418 20.3147V20.287L24.3547 20.3276C24.5162 20.6417 24.6081 20.9861 24.6241 21.3375L24.6011 21.4058V21.4222L24.5561 21.5737L24.3979 22.0777C24.3979 22.0777 24.5091 22.7624 24.5506 23.0097C24.6692 23.713 23.827 24.0085 23.1604 23.763C23.2389 23.7443 23.3125 23.7077 23.3737 23.656C23.4349 23.6043 23.482 23.5391 23.5125 23.4658C23.0437 23.1705 22.8485 23.0615 22.6602 22.9119C22.5234 22.7738 22.4283 22.6013 22.3853 22.4135L22.2686 22.3675L21.8282 22.194L21.4098 22.0297C21.2646 22.0547 21.1269 22.1119 21.008 22.1974C20.8892 22.2829 20.7918 22.3943 20.7239 22.5226C20.6677 22.4077 20.6444 22.2802 20.655 22.1532C20.346 22.295 20.0768 22.5085 19.8707 22.7752C19.6647 23.0418 19.5273 23.3537 19.4717 23.6837C19.4717 23.6837 19.0463 23.2443 19.1913 22.9453C19.1612 23.0062 19.1367 23.0689 19.1141 23.1298L19.103 23.1686C19.0837 23.2198 19.0682 23.2721 19.0561 23.3254V23.3531C19.0429 23.4122 19.0297 23.4694 19.0203 23.5284V23.5397C19.009 23.6043 18.9993 23.6689 18.9936 23.7335L19.3136 24.5826C19.2041 24.536 19.099 24.4805 18.9991 24.4165C18.9991 24.4663 19.0091 24.5143 19.0148 24.5623V24.5974C19.0148 24.6454 19.0275 24.6914 19.0331 24.7376V24.7746L19.1141 24.7486L19.1352 24.7579L19.0331 24.7746L19.0488 24.8595C19.1034 25.1733 19.1744 25.4576 19.2271 25.6772C19.1255 25.6772 19.0015 25.6384 18.8998 25.6329C18.9972 26.0125 19.168 26.3703 19.4028 26.687C19.5138 26.8143 20.0898 27.2408 20.1953 27.3294C20.3358 27.5797 20.3765 27.8723 20.3093 28.1503C20.2421 28.4283 20.0722 28.6718 19.8321 28.8337C19.9369 28.5808 19.9718 28.3056 19.9342 28.0352C19.8965 27.7647 19.787 27.5086 19.617 27.2924C19.6678 27.4549 19.7637 28.1305 19.4285 28.3889C19.4737 27.7502 19.4284 27.5804 18.8824 27.2555C18.7212 27.1206 18.579 26.9661 18.4576 26.7958C18.069 26.5788 17.6254 26.474 17.1787 26.4932C17.9319 25.8656 18.3085 26.3917 18.3537 26.2699C18.3675 26.1724 18.3612 26.0732 18.3353 25.9781C18.3094 25.883 18.2644 25.7938 18.2029 25.716C18.0343 25.5748 17.8353 25.4727 17.6209 25.417C17.3309 25.211 17.0986 24.9367 16.9452 24.6195L17.6264 24.8041C17.6114 24.7653 17.2159 24.4348 17.1971 24.3942C17.1243 24.1979 17.0662 23.9969 17.0224 23.7925C16.8967 23.666 16.7554 23.5551 16.6022 23.4622C16.464 23.6538 16.3734 23.8742 16.3374 24.1062C16.3015 24.3382 16.3214 24.5755 16.3953 24.7987L16.525 25.3136C16.3928 25.3108 16.264 25.276 16.1489 25.2122C16.2017 25.4226 16.2863 25.7657 16.3485 26.0759C16.155 26.0676 15.9664 26.0139 15.7986 25.919C15.8438 26.1295 15.9697 26.5227 16.2804 26.5504C16.9155 26.5806 17.546 26.6708 18.1634 26.8199C18.3222 26.9483 18.4513 27.1084 18.5422 27.2895C18.6331 27.4706 18.6842 27.6685 18.6911 27.8702C18.1262 27.2315 18.0524 26.9842 16.9038 26.9085C17.5534 27.0931 17.7227 27.0764 18.0485 27.5951C17.7192 27.4016 17.3386 27.3088 16.9553 27.3285C16.5719 27.3482 16.2029 27.4797 15.8961 27.7059C15.7803 27.7411 15.6672 27.7824 15.5559 27.8296C15.3879 27.8349 15.2206 27.8558 15.0567 27.8923C14.928 27.9518 14.8131 28.0361 14.7183 28.1402C14.6236 28.2442 14.5509 28.3658 14.505 28.4978C14.4674 28.5328 14.4296 28.5679 14.3938 28.6048C14.289 28.4721 14.2368 28.3065 14.2476 28.139C14.2583 27.9715 14.3308 27.8137 14.4517 27.6949H14.4425ZM13.5369 31.1006C13.5363 30.2946 13.833 29.5157 14.3726 28.9076C14.4038 28.9194 14.4378 28.9237 14.471 28.9205C14.5181 28.9127 14.5614 28.8907 14.5951 28.8576C14.6289 28.8245 14.6515 28.7821 14.6595 28.7359C14.6792 28.6542 14.7186 28.5782 14.7744 28.5144C14.9894 28.3405 15.2254 28.1929 15.4768 28.075C15.6665 28.0872 15.8537 28.0308 16.0037 27.9164C16.04 27.8848 16.082 27.8602 16.1278 27.8443C16.3999 27.7769 16.6792 27.7424 16.9599 27.7411C17.8673 27.7411 18.7381 28.0943 19.3798 28.7233C20.0214 29.3523 20.3819 30.2054 20.3819 31.095V31.7043H19.7586C19.7952 31.5219 19.8137 31.3363 19.8146 31.1504C19.8146 30.4028 19.5117 29.6859 18.9725 29.1573C18.4332 28.6287 17.7022 28.3317 16.9396 28.3317C16.1771 28.3317 15.446 28.6287 14.9068 29.1573C14.3676 29.6859 14.0646 30.4028 14.0646 31.1504C14.0644 31.3364 14.083 31.522 14.1207 31.7043H13.5369V31.1006ZM17.745 28.8856C16.9496 29.1017 16.2589 29.5876 15.795 30.257C15.7873 30.2672 15.7769 30.2757 15.7655 30.2817C15.7542 30.2878 15.7417 30.2913 15.7288 30.2921C15.7052 30.2916 15.6823 30.283 15.6644 30.268C15.3983 30.0428 15.2028 29.7485 15.0999 29.4189C15.0962 29.4042 15.0965 29.3889 15.1008 29.3743C15.1051 29.3597 15.1136 29.3463 15.1247 29.3358C15.4631 29.0043 15.888 28.7708 16.3531 28.6607C16.8181 28.5506 17.3052 28.5684 17.7607 28.7121C17.7798 28.7176 17.7966 28.7289 17.8085 28.7445C17.8204 28.7601 17.8269 28.7793 17.8269 28.7988C17.8269 28.8183 17.8204 28.8373 17.8085 28.8529C17.7966 28.8685 17.7798 28.88 17.7607 28.8856H17.745ZM18.3371 28.9962C18.3547 28.9971 18.3715 29.003 18.3859 29.0129C18.7256 29.2342 19.0075 29.5308 19.2088 29.8786C19.2164 29.8911 19.221 29.9053 19.2216 29.9199C19.2223 29.9344 19.219 29.9487 19.2124 29.9618C19.2059 29.9748 19.1961 29.9861 19.1839 29.9944C19.1718 30.0028 19.1573 30.0081 19.1426 30.0098C18.3466 30.1272 17.6185 30.5154 17.0849 31.1062C17.0761 31.1157 17.0647 31.1232 17.0527 31.1283C17.0407 31.1334 17.0281 31.136 17.015 31.1358C17.0014 31.1386 16.9873 31.1386 16.9737 31.1358C16.6101 30.9632 16.2653 30.7553 15.9439 30.5154C15.9259 30.5009 15.914 30.4803 15.9108 30.4577C15.9077 30.4351 15.9131 30.4122 15.9264 30.3935C16.2877 29.8844 16.7816 29.4792 17.3561 29.2195C17.6657 29.0743 18.0033 28.9964 18.3463 28.9908L18.3371 28.9962ZM15.5348 30.4084C15.9589 30.7802 16.4373 31.0876 16.9543 31.3203C16.9656 31.326 16.9757 31.3338 16.9838 31.3433C16.9919 31.3528 16.9976 31.3639 17.0012 31.3757C17.103 31.7248 17.1498 32.087 17.1392 32.4499C17.1389 32.4628 17.1358 32.4754 17.13 32.4869C17.1241 32.4984 17.1154 32.5085 17.1051 32.5164C17.0885 32.529 17.0683 32.5356 17.0472 32.5349H17.0297C16.6115 32.4586 16.2084 32.3185 15.8345 32.1196C15.2086 31.7953 14.711 31.2756 14.4204 30.6427C14.414 30.6242 14.414 30.604 14.4204 30.5855C14.4962 30.2547 14.6357 29.9414 14.8323 29.6625C14.8415 29.6491 14.8542 29.6385 14.8691 29.6317C14.884 29.6248 14.9005 29.622 14.9169 29.6238C14.9329 29.6257 14.9482 29.6317 14.9611 29.6411C14.9739 29.6505 14.984 29.663 14.9905 29.6774C15.1249 29.9523 15.3129 30.1987 15.544 30.4028L15.5348 30.4084ZM14.4168 31.1578C14.436 31.1515 14.4565 31.1516 14.4756 31.1583C14.4947 31.165 14.5108 31.1779 14.5216 31.1948C14.8553 31.6751 15.3095 32.0634 15.84 32.3226C16.2132 32.5093 16.6121 32.6418 17.0242 32.7158C17.0487 32.7206 17.0707 32.7345 17.0849 32.7546C17.0981 32.7741 17.1025 32.7981 17.0978 32.821C17.0435 33.1205 16.9096 33.4005 16.7098 33.6332C16.7014 33.6427 16.6911 33.6505 16.6794 33.6559C16.6678 33.6613 16.6547 33.6644 16.6417 33.6647H16.6307C16.1786 33.6109 15.7495 33.441 15.3858 33.1723C15.0221 32.9036 14.7366 32.5457 14.5593 32.1344C14.4372 31.8543 14.3684 31.5546 14.3561 31.2502C14.354 31.2285 14.3599 31.2066 14.3726 31.1887C14.3854 31.1708 14.4044 31.1578 14.426 31.1522L14.4168 31.1578ZM17.0077 33.5428C17.1218 33.3675 17.2049 33.1748 17.2541 32.9725C17.3126 32.7382 17.3386 32.4972 17.3313 32.2561C17.3232 31.9434 17.273 31.6331 17.1824 31.3332C17.178 31.3189 17.1772 31.3038 17.1805 31.2892C17.1838 31.2747 17.1915 31.2613 17.2017 31.2502C17.5129 30.8992 17.8977 30.6187 18.3307 30.4287C18.3424 30.4234 18.3556 30.4205 18.3684 30.4203C18.3813 30.4202 18.3934 30.4229 18.4052 30.428C18.4169 30.4331 18.4279 30.4405 18.4364 30.4498C18.445 30.4592 18.4519 30.4703 18.4558 30.4823C18.582 30.8708 18.6448 31.2763 18.6433 31.684C18.6437 32.0017 18.5884 32.317 18.4797 32.6162C18.3536 32.9514 18.1494 33.2529 17.883 33.4966C17.8741 33.5045 17.8637 33.5107 17.8526 33.5151C17.6048 33.6084 17.3435 33.6632 17.0785 33.6775C17.0627 33.6775 17.0472 33.6737 17.0334 33.6663C17.0196 33.6589 17.0079 33.6482 16.9994 33.6352C16.9919 33.6191 16.9899 33.601 16.993 33.5836C16.996 33.5661 17.0044 33.5499 17.0169 33.5372L17.0077 33.5428ZM18.5698 32.8986C18.6497 32.734 18.713 32.5622 18.7582 32.3855C18.8265 32.0995 18.8537 31.8056 18.8391 31.5123C18.8214 31.1359 18.7532 30.7636 18.636 30.4048C18.6269 30.3829 18.6269 30.3584 18.636 30.3365C18.6412 30.326 18.649 30.3164 18.658 30.3088C18.6671 30.3012 18.6769 30.2955 18.6884 30.2921C18.8807 30.2334 19.0788 30.1914 19.2786 30.1666C19.2993 30.1645 19.3198 30.169 19.3375 30.1797C19.3552 30.1904 19.3687 30.2066 19.3761 30.2256C19.6091 30.8248 19.6029 31.4881 19.3577 32.0826C19.2153 32.431 18.994 32.7433 18.7113 32.9964C18.7035 33.0042 18.6941 33.0105 18.6838 33.0146C18.6734 33.0187 18.6628 33.0208 18.6516 33.0205C18.6321 33.0207 18.6124 33.0149 18.5964 33.0038C18.5816 32.9897 18.5719 32.9713 18.5688 32.9513C18.5658 32.9313 18.5699 32.9107 18.5799 32.8929L18.5698 32.8986ZM13.5369 31.9109H14.1694C14.3392 32.503 14.7019 33.0245 15.2019 33.3959C15.702 33.7673 16.3123 33.9685 16.9396 33.9685C17.567 33.9685 18.1773 33.7673 18.6773 33.3959C19.1774 33.0245 19.5401 32.503 19.7098 31.9109H20.3819V35.0289C19.406 35.4003 18.369 35.5935 17.3221 35.5992H17.2973C15.9934 35.5542 14.7137 35.2396 13.5424 34.6762V31.9073L13.5369 31.9109ZM11.0774 30.855H13.3374V31.7135H11.0774V30.855ZM11.5748 33.3526V33.7717C11.411 33.6924 11.245 33.6129 11.0774 33.5354V33.3508L11.5748 33.3526ZM10.8761 33.2179V33.4432L10.5304 33.2843V32.559H10.8761V33.2179ZM4.9808 28.4184V27.7206L5.77702 28.5108V29.5167C5.47719 29.244 5.21025 28.9388 4.9808 28.6068V28.4184ZM4.9808 29.441C5.26137 29.6533 5.52658 29.8417 5.77702 30.0134V30.7906H6.18432V30.2865C6.96356 30.8658 7.8502 31.2903 8.79546 31.5362C7.86301 31.082 6.98727 30.5248 6.18432 29.875V28.8707C7.60107 30.0788 9.17927 31.0912 10.8761 31.8796V32.3411C10.8761 32.3411 8.87679 32.3503 8.0351 32.3411C7.03653 32.1008 6.00192 32.0383 4.9808 32.1565V29.4392V29.441ZM2.91856 29.0296V30.4951C2.80263 30.5156 2.68883 30.5434 2.57653 30.5783V29.1014C2.69516 29.0811 2.81004 29.0535 2.92867 29.0314L2.91856 29.0296ZM2.57653 28.9446V27.4382C2.6891 27.4043 2.80284 27.3765 2.91856 27.3551V28.8615C2.80578 28.883 2.69493 28.9114 2.58573 28.9464L2.57653 28.9446ZM3.46101 28.9723V30.4379C3.34427 30.4379 3.23013 30.449 3.11715 30.4638V28.998C3.23464 28.984 3.35278 28.9761 3.47112 28.9741L3.46101 28.9723ZM3.11715 28.8319V27.3256C3.23139 27.3103 3.34573 27.3019 3.46101 27.2999V28.806C3.34885 28.8091 3.23745 28.8184 3.12634 28.8337L3.11715 28.8319ZM3.11715 31.7744V30.6427C3.11715 30.6427 3.34055 30.6207 3.45917 30.617V31.7744V32.4204L3.10887 32.5072L3.11715 31.7744ZM4.54224 29.1125V30.5783C4.43025 30.5424 4.31546 30.5145 4.1993 30.4951V29.0296C4.31975 29.05 4.43858 29.0781 4.55511 29.1143L4.54224 29.1125ZM4.1993 28.8615V27.3551C4.31511 27.3761 4.42979 27.4039 4.54224 27.4382V28.9446C4.4334 28.9115 4.32226 28.8843 4.21033 28.8633L4.1993 28.8615ZM4.54408 30.7572V31.7246V32.2192C4.42922 32.2358 4.31412 32.2525 4.20114 32.2728V30.6723C4.20114 30.6723 4.4459 30.7313 4.55511 30.759L4.54408 30.7572ZM4.61947 27.6451V27.4603C4.70232 27.488 4.78136 27.5195 4.85668 27.5527L4.61947 27.6451ZM4.00163 28.8319C3.88801 28.8167 3.77334 28.808 3.65869 28.806V27.2999H3.82694L4.00163 27.3184V28.8319ZM4.00163 28.998V30.4638C3.88791 30.4495 3.77329 30.4408 3.65869 30.4379V28.9723C3.78484 28.9779 3.90157 28.9871 4.01266 29L4.00163 28.998ZM4.00163 30.6427V32.3041L3.65869 32.3742V30.6132C3.65869 30.6132 3.90157 30.63 4.01266 30.6448L4.00163 30.6427ZM4.61947 26.2126V26.0279C4.70029 26.0542 4.77946 26.0851 4.85668 26.1203L4.61947 26.2126ZM3.29184 24.2412C3.29184 24.1784 3.4234 24.1783 3.45917 24.1783H3.65869C3.69258 24.1783 3.8251 24.1784 3.8251 24.2412V24.3998C3.73848 24.3998 3.64977 24.3906 3.55939 24.3906C3.46901 24.3906 3.37092 24.3906 3.29184 24.3998V24.2412ZM3.29184 24.5087C3.37845 24.5087 3.46717 24.4994 3.55755 24.4994C3.64793 24.4994 3.74601 24.4994 3.8251 24.5087L4.85484 25.4704C4.44492 25.3005 4.00443 25.2131 3.55939 25.2131C3.11435 25.2131 2.67385 25.3005 2.26393 25.4704L3.29184 24.5087ZM2.26393 25.6164C2.67385 25.4465 3.11435 25.3588 3.55939 25.3588C4.00443 25.3588 4.44492 25.4465 4.85484 25.6164V25.9431C4.44463 25.7744 4.00425 25.6874 3.55939 25.6874C3.11452 25.6874 2.67414 25.7744 2.26393 25.9431V25.6164ZM4.5404 26.0094V26.794C4.42823 26.7587 4.31349 26.7309 4.19746 26.7109V25.9265C4.31846 25.9495 4.43782 25.9796 4.55511 26.0168L4.5404 26.0094ZM3.99979 25.8969V26.6795C3.88869 26.6666 3.77171 26.6573 3.65685 26.6536V25.871C3.78489 25.8821 3.90157 25.8915 4.01266 25.9044L3.99979 25.8969ZM3.45733 25.8692V26.6536C3.34059 26.6536 3.22553 26.6666 3.11255 26.6795V25.8969C3.23432 25.8883 3.35438 25.8816 3.47112 25.8767L3.45733 25.8692ZM2.91488 25.9265V26.7109C2.79895 26.7313 2.68516 26.7591 2.57286 26.794V26.0094C2.68987 25.9769 2.80862 25.951 2.92867 25.9319L2.91488 25.9265ZM2.26393 26.1259C2.3393 26.0914 2.41672 26.0611 2.49563 26.0353V26.2199L2.26393 26.1259ZM2.26393 27.0489C2.67157 26.874 3.11263 26.7864 3.55755 26.7922C4.00359 26.7874 4.44558 26.8749 4.85484 27.0489V27.3756C4.44479 27.2062 4.00435 27.1189 3.55939 27.1189C3.11443 27.1189 2.67398 27.2062 2.26393 27.3756V27.0489ZM2.26393 27.5453C2.33737 27.512 2.41466 27.4826 2.49563 27.4549V27.6395L2.26393 27.5453ZM2.57286 31.9404V30.748C2.57286 30.748 2.79625 30.6852 2.91488 30.663V32.5515C2.79813 32.5848 2.68202 32.6161 2.57469 32.6493L2.57286 31.9404ZM33.0046 33.7476C32.2527 34.7152 31.7963 35.8717 31.6871 37.0833C31.6818 37.1626 31.6582 37.2397 31.6181 37.3088C31.578 37.3779 31.5223 37.4372 31.4554 37.4821C31.1067 37.6311 30.7149 37.6514 30.3521 37.5393L30.1636 37.4931L30.1093 38.2444L29.8868 38.104C29.6009 37.9746 29.2807 37.938 28.972 37.999C28.9118 38.0083 28.8494 38.0228 28.7835 38.0358C28.6747 38.0793 28.5571 38.0991 28.4397 38.0937C28.3223 38.0882 28.2073 38.0578 28.1032 38.0044C28.0508 37.9583 28.0101 37.9012 27.9837 37.8372C27.9572 37.7733 27.9466 37.7042 27.9515 37.6353C27.9503 37.5654 27.9645 37.4959 27.9938 37.4321C28.0231 37.3683 28.0665 37.3116 28.1206 37.266L28.1409 37.2496V37.2383L28.1602 37.2272C28.511 36.9835 28.7868 36.6503 28.9582 36.2637C27.9103 36.247 26.8717 36.4524 25.9122 36.8656L25.7366 36.9321C25.038 37.1905 24.364 37.5154 23.6541 37.855C21.7451 38.9129 19.6259 39.5539 17.4407 39.7341C17.2035 39.747 16.9751 39.7544 16.7548 39.7544C14.7136 39.7069 12.7253 39.1118 11.0048 38.034C10.0578 37.5041 9.06515 37.0564 8.03878 36.6957C7.10104 36.3784 6.10868 36.2473 5.11872 36.3099C5.35272 36.649 5.63657 36.9519 5.96182 37.2088V37.2198C6.00696 37.2662 6.04243 37.321 6.06571 37.3809C6.08899 37.4408 6.10011 37.5048 6.09789 37.5689C6.09999 37.639 6.08496 37.7086 6.0556 37.7726C6.02625 37.8365 5.98271 37.893 5.9278 37.938C5.82116 37.987 5.70543 38.0125 5.58762 38.0125C5.46981 38.0125 5.35316 37.987 5.24652 37.938C5.18249 37.9213 5.12017 37.9047 5.05803 37.8918C4.75325 37.8175 4.43268 37.8396 4.14138 37.9546L3.91152 38.0858L3.89222 37.3325L3.69086 37.3694C3.32414 37.464 2.93482 37.4254 2.59492 37.2606C2.53047 37.2124 2.47791 37.1504 2.44138 37.0794C2.40485 37.0085 2.38566 36.9302 2.38438 36.8507C2.35538 35.6757 1.90651 34.5481 1.11558 33.6647L0.954685 33.5115L1.15696 33.4155C3.32497 32.4133 5.76417 32.1219 8.11417 32.5847L9.30389 32.9871C10.1908 33.3323 11.0172 33.7257 11.8231 34.1151C12.629 34.5046 13.398 34.8664 14.1851 35.1636L14.403 35.2614L14.505 35.2835C15.3965 35.6123 16.3394 35.7872 17.2918 35.8004H17.3184C19.623 35.651 21.8368 34.8663 23.7065 33.5372C23.9316 33.4058 24.1658 33.2899 24.4071 33.1901L24.5129 33.1422C25.86 32.5626 27.325 32.2956 28.7946 32.3616C30.2642 32.4275 31.6987 32.8248 32.9862 33.5225L33.1259 33.6221L33.0046 33.7476Z" fill="#90949C"/>
<path d="M23.8787 32.762C21.9557 34.1123 19.6876 34.9118 17.3278 35.0712H17.2993C15.3198 34.9354 13.4 34.3474 11.6936 33.3544C10.6118 32.8071 9.49427 32.3311 8.34789 31.9294C6.05448 31.3851 3.64085 31.6107 1.49365 32.57C2.1939 33.4329 2.6102 34.4842 2.68613 35.5843C3.5347 35.1903 4.45475 34.9679 5.39289 34.9302C6.33104 34.8924 7.2679 35.0401 8.14654 35.3646C9.1887 35.7326 10.1968 36.1879 11.1595 36.7252C13.0204 37.9078 15.2119 38.4889 17.4271 38.3866C19.5711 38.2136 21.6513 37.5836 23.521 36.5406C24.2083 36.1914 24.9135 35.8772 25.6338 35.5992L25.803 35.5345C26.6812 35.1042 27.6545 34.8957 28.6357 34.9279C29.6169 34.9602 30.5747 35.2321 31.4215 35.7191C31.5705 34.61 31.9971 33.5543 32.6627 32.6457C31.2986 31.9657 29.7862 31.6209 28.256 31.6412C26.7258 31.6614 25.2236 32.0461 23.8787 32.762ZM4.44038 34.379C4.30851 34.4104 4.17177 34.4133 4.03859 34.3878C3.90542 34.3623 3.77915 34.3091 3.66899 34.2314C3.55883 34.1537 3.46754 34.0535 3.40052 33.9378C3.3335 33.8221 3.29264 33.6938 3.281 33.5613C3.24395 33.4312 3.23576 33.2949 3.25709 33.1615C3.27842 33.0281 3.32833 32.9006 3.4042 32.7879C3.48007 32.6752 3.57984 32.5797 3.69657 32.508C3.8133 32.4364 3.94434 32.3901 4.08089 32.3724C4.25457 32.3348 4.43468 32.34 4.60587 32.3873L4.62518 32.906C4.49936 32.8368 4.35294 32.8113 4.21052 32.8339C3.93938 32.8856 3.8008 33.1181 3.86482 33.4504C3.86807 33.5174 3.88521 33.5831 3.91631 33.6428C3.94741 33.7026 3.99159 33.7551 4.04503 33.797C4.09847 33.8389 4.15985 33.8693 4.22615 33.886C4.29245 33.9026 4.36194 33.905 4.42935 33.8934C4.57149 33.8619 4.70225 33.7922 4.80631 33.6922L4.9718 34.1444C4.81742 34.2646 4.6345 34.3453 4.44038 34.379ZM6.30127 34.32L5.96937 33.6665H5.87926L5.84157 34.2774L5.25038 34.2425L5.37083 32.271L6.1413 32.317C6.65911 32.3483 6.94084 32.5903 6.91636 33.013C6.91661 33.1315 6.88136 33.2475 6.81431 33.3461C6.74726 33.4447 6.65199 33.5213 6.54032 33.5667L6.94487 34.2738L6.30127 34.32ZM8.1162 33.9506L7.92772 34.6318L7.34941 34.4768L7.53789 33.8087L7.19954 32.4517L7.83394 32.5385L7.9976 33.3693L8.55292 32.751L9.15146 32.9114L8.1162 33.9506ZM9.74724 33.9748C10.1069 34.2867 10.2173 34.5045 10.0893 34.8017C10.0536 34.8886 9.99919 34.9667 9.92929 35.0304C9.85938 35.0942 9.77563 35.1421 9.68472 35.1708C9.59382 35.1995 9.49813 35.2083 9.40338 35.1965C9.30864 35.1847 9.21745 35.1526 9.13675 35.1026C8.89417 35.002 8.67629 34.8522 8.49684 34.6632L8.7699 34.2571C8.91992 34.4405 9.10871 34.5899 9.32339 34.6947C9.43072 34.7408 9.51186 34.7333 9.55141 34.6539C9.59095 34.5745 9.55083 34.523 9.33994 34.3292C9.01984 34.0394 8.90179 33.8454 9.04113 33.5279C9.07718 33.4471 9.12961 33.3748 9.19651 33.3159C9.26341 33.2569 9.34242 33.2127 9.42821 33.1861C9.51399 33.1595 9.6046 33.1512 9.69392 33.1617C9.78323 33.1723 9.86989 33.2015 9.94676 33.2474C10.1646 33.3283 10.3583 33.4608 10.5113 33.6331L10.2382 34.0356C10.1182 33.8797 9.96245 33.7534 9.78402 33.6665C9.67292 33.6203 9.59598 33.6351 9.57715 33.6978C9.55832 33.7606 9.56648 33.8104 9.74724 33.9673V33.9748ZM10.8938 35.9241L10.3623 35.6508L11.0666 34.3328L10.5885 34.0874L10.8202 33.6573L12.2545 34.3957L12.0963 34.8626L11.598 34.6079L10.8938 35.9241ZM13.0893 36.9595L12.5073 36.775L12.5634 36.4059L11.9989 36.1272L11.758 36.38L11.2422 36.1251L12.7712 34.6614L13.3679 34.955L13.0893 36.9595ZM14.5953 37.5245L13.4074 37.1554L14.0271 35.2799L14.5916 35.4644L14.1283 36.8692L14.6707 37.0409L14.5953 37.5245ZM16.4296 37.1554H16.3376L16.3165 37.746L15.7216 37.7275L15.7896 35.7524L16.4856 35.7763C17.0053 35.7929 17.3162 36.0236 17.3012 36.4796C17.2861 36.9355 16.9345 37.1571 16.4185 37.1405L16.4296 37.1554ZM18.798 37.6076L18.6343 37.2734L18.0054 37.3584L17.953 37.6998L17.3876 37.7773L17.8022 35.7191L18.4651 35.6305L19.391 37.4359L18.798 37.6076ZM19.8001 37.3805L19.2053 35.494L19.7698 35.3205L20.2139 36.7306L20.7582 36.5663L20.9862 37.0186L19.8001 37.3805ZM22.54 36.3818L22.2871 36.1087L21.7088 36.3633L21.7585 36.7049L21.2307 36.9393L21.0312 34.8515L21.6417 34.582L23.0521 36.0589L22.54 36.3818ZM24.0671 35.6582C23.9482 35.7225 23.8164 35.7607 23.681 35.7705C23.5456 35.7802 23.4091 35.761 23.282 35.7143C23.1548 35.6677 23.0393 35.5947 22.9436 35.5003C22.8479 35.4058 22.7742 35.2922 22.7275 35.1672C22.657 35.0512 22.6129 34.9216 22.5979 34.7873C22.5829 34.653 22.5979 34.517 22.6411 34.3887C22.6843 34.2604 22.7553 34.1428 22.8489 34.0437C22.9425 33.9446 23.0564 33.8662 23.1836 33.8141C23.3423 33.7351 23.5177 33.6941 23.6957 33.6942L23.8502 34.1888C23.7112 34.1544 23.5641 34.1675 23.4337 34.2258C23.334 34.3056 23.2654 34.4163 23.2387 34.5397C23.212 34.663 23.2295 34.7917 23.2875 34.9043C23.3454 35.0168 23.4407 35.1065 23.5578 35.1587C23.6749 35.2109 23.8064 35.2223 23.9311 35.1911C24.0596 35.124 24.1671 35.0238 24.2418 34.9013L24.5222 35.2945C24.4004 35.4458 24.2424 35.5655 24.0625 35.6434L24.0671 35.6582ZM24.7843 35.2891L24.0313 33.4614L25.2587 32.9686L25.438 33.3952L24.7484 33.6701L24.8578 33.9322L25.3791 33.7255L25.6219 34.1187L25.0325 34.3549L25.1548 34.6467L25.8664 34.3605L26.0439 34.7869L24.7843 35.2891ZM27.3715 34.3993L26.7914 34.5192L26.3767 32.5865L27.6234 32.3318L27.7236 32.8008L27.0589 32.9373L27.1251 33.2492L27.605 33.1514L27.7935 33.6018L27.2281 33.7163L27.3715 34.3993ZM28.2073 34.2738C28.1511 34.2784 28.0947 34.2665 28.0454 34.2397C27.9962 34.213 27.9562 34.1724 27.9305 34.1232C27.9048 34.0741 27.8946 34.0186 27.9011 33.9637C27.9076 33.9089 27.9308 33.8572 27.9673 33.8152C28.0038 33.7732 28.0519 33.7428 28.1061 33.7278C28.1603 33.7128 28.2181 33.7139 28.2716 33.7309C28.3252 33.748 28.3729 33.7804 28.4077 33.8238C28.4425 33.8672 28.4632 33.9197 28.4675 33.9748C28.4676 34.0451 28.4401 34.1128 28.3911 34.1643C28.3422 34.2157 28.2752 34.247 28.2036 34.2517L28.2073 34.2738ZM30.4837 33.9968C30.5397 33.9926 30.5957 34.0048 30.6446 34.0318C30.6936 34.0587 30.7332 34.0994 30.7586 34.1485C30.7841 34.1976 30.7947 34.2529 30.7881 34.3076C30.7815 34.3622 30.7583 34.4137 30.7219 34.4556C30.6854 34.4975 30.6371 34.528 30.583 34.543C30.529 34.5581 30.4719 34.557 30.4185 34.5401C30.365 34.5232 30.3173 34.4911 30.2824 34.448C30.2475 34.4048 30.2263 34.3525 30.2217 34.2977C30.2156 34.2596 30.2183 34.2209 30.2281 34.1836C30.238 34.1464 30.2554 34.1116 30.2796 34.0813C30.3038 34.051 30.3343 34.026 30.3688 34.0077C30.4033 33.9893 30.441 33.9781 30.4801 33.9748L30.4837 33.9968ZM28.6008 33.2235C28.6041 33.0886 28.6372 32.9558 28.6973 32.8343C28.7574 32.7129 28.8432 32.6056 28.9492 32.5195C29.0553 32.4334 29.1786 32.3707 29.3115 32.3354C29.4444 32.3002 29.5839 32.2932 29.7197 32.3152C29.8969 32.3306 30.0672 32.3869 30.218 32.4794L30.081 32.9797C29.9815 32.8767 29.8478 32.8114 29.7041 32.7951C29.4292 32.7674 29.2259 32.9502 29.1901 33.2861C29.173 33.3516 29.1707 33.42 29.1828 33.4865C29.1948 33.553 29.2209 33.616 29.26 33.6717C29.2991 33.7273 29.3499 33.7741 29.4089 33.8089C29.468 33.8437 29.5345 33.8655 29.6029 33.8731C29.7487 33.8823 29.8937 33.8529 30.024 33.7882L30.047 34.2681C29.8621 34.3388 29.6619 34.3631 29.465 34.3384C29.3262 34.3314 29.1912 34.2941 29.0688 34.2296C28.9463 34.1651 28.8397 34.0749 28.7571 33.9653C28.6744 33.8557 28.6176 33.7294 28.5907 33.5957C28.5637 33.4621 28.5669 33.3241 28.6008 33.1919V33.2235Z" fill="#90949C"/>
<path d="M16.4329 36.1843H16.3593L16.3428 36.7141H16.4081C16.6076 36.7141 16.7187 36.6382 16.7243 36.4518C16.73 36.2654 16.6306 36.1917 16.4329 36.1843Z" fill="#90949C"/>
<path d="M21.6361 35.8924L21.9744 35.743L21.5469 35.2463L21.6361 35.8924Z" fill="#90949C"/>
<path d="M12.6522 35.9459L12.7763 35.3091L12.3203 35.7816L12.6522 35.9459Z" fill="#90949C"/>
<path d="M18.0679 36.8835L18.4347 36.8337L18.169 36.2393L18.0679 36.8835Z" fill="#90949C"/>
<path d="M6.05008 32.7322H5.92964L5.89746 33.2601H6.02066C6.059 33.2679 6.09853 33.2669 6.13651 33.2577C6.17449 33.2484 6.20931 33.231 6.23948 33.2065C6.26965 33.1821 6.29384 33.1512 6.31028 33.1164C6.32672 33.0816 6.33562 33.0437 6.3351 33.0053C6.34452 32.8428 6.24968 32.7451 6.05008 32.7322Z" fill="#90949C"/>
</svg>
