<svg width="16" height="16" viewBox="0 0 16 16" fill="none" xmlns="http://www.w3.org/2000/svg">
<g clip-path="url(#clip0_1_6805)">
<path d="M13.3575 10.0365C13.0258 9.71801 12.4899 9.71801 12.1582 10.0365L8.84942 13.2051L8.84942 0.816639C8.84942 0.367488 8.46666 0 7.99884 0C7.53102 0 7.14826 0.367488 7.14826 0.816639L7.14826 13.2132L3.84801 10.0447C3.51629 9.72617 2.98042 9.72617 2.6487 10.0447C2.31697 10.3631 2.31697 10.8776 2.6487 11.1961L7.40343 15.7611C7.73516 16.0796 8.27102 16.0796 8.60275 15.7611L13.3575 11.1961C13.6807 10.8776 13.6807 10.355 13.3575 10.0365Z" fill="#90949C"/>
</g>
<defs>
<clipPath id="clip0_1_6805">
<rect width="16" height="16" fill="white"/>
</clipPath>
</defs>
</svg>
