<svg width="32" height="32" viewBox="0 0 32 32" fill="none" xmlns="http://www.w3.org/2000/svg">
<path d="M15.9905 0.571549C11.7504 0.571549 7.68339 2.23822 4.68524 5.20504C1.68709 8.17186 0.00325295 12.1958 0.00325295 16.3915V16.4106C-0.0424604 18.5893 0.394115 20.7516 1.28226 22.7456C2.23594 24.7969 3.59666 26.6373 5.284 28.1573L4.93229 28.4217L5.3492 28.5955L5.3389 29.0422L5.73693 28.8302L6.08864 29.1169L6.16927 28.6755L6.61191 28.5851L6.31339 28.2477L6.51926 27.8496L6.06719 27.8687L5.87933 27.4621L5.61426 27.8254L5.55679 27.8114C3.93163 26.3343 2.6177 24.5535 1.69145 22.5716C0.892226 20.7371 0.467287 18.7644 0.440742 16.7669H1.57564C1.56023 17.5295 1.65374 18.2905 1.85443 19.027L1.72147 19.0514L1.91619 19.2825L1.77208 19.5467H2.07575L2.19584 19.8215L2.3717 19.5832L2.66507 19.6615L2.58873 19.3712L2.83492 19.1974L2.55956 19.0739L2.57157 18.7732L2.30136 18.9105L2.25675 18.8723C2.07631 18.1875 1.99252 17.4814 2.00627 16.7739H4.41589C4.40095 19.1373 5.20778 21.4341 6.70026 23.2793L6.52441 23.3939L6.79119 23.5365L6.75774 23.8356L7.03567 23.7174L7.25013 23.9294L7.33248 23.641L7.63272 23.6078L7.45686 23.3644L7.61899 23.1106L7.31532 23.0966L7.21496 22.8133L7.0391 23.0011C5.6201 21.2293 4.84793 19.0347 4.84823 16.7739H20.9658C20.8691 15.923 20.5647 15.1082 20.0797 14.399C19.5947 13.6899 18.9428 13.1076 18.1805 12.7024L18.2268 12.8885L17.731 12.7512L17.417 13.1527L17.218 12.6833H16.7033L16.9495 12.2366L16.6227 11.8437L17.1305 11.7567L17.2377 11.2578L17.622 11.595L18.0827 11.369L18.0561 11.8766L18.5236 12.0905L18.2774 12.2644C19.1306 12.7048 19.8619 13.3455 20.4065 14.1306C20.9511 14.9156 21.292 15.8208 21.4008 16.7669H24.3139C24.2686 15.4832 23.9127 14.2291 23.2759 13.1098C22.6392 11.9905 21.74 11.0389 20.6544 10.3347L20.7514 10.6719L19.9922 10.4981L19.5376 11.1275L19.209 10.4321L18.4284 10.472L18.7801 9.77656L18.262 9.19955L19.0263 9.03784L19.1593 8.27642L19.764 8.76494L20.4469 8.39462V9.16644L21.1674 9.46546L20.6579 9.85657C21.8664 10.5864 22.8736 11.6009 23.5899 12.8093C24.3063 14.0177 24.7093 15.3826 24.7634 16.7826H26.8436C26.7039 14.39 25.8217 12.0982 24.3173 10.2199C23.3382 9.09511 22.1208 8.19773 20.7514 7.59139C19.382 6.98504 17.8945 6.68472 16.3945 6.71176L16.6433 7.38278L15.7649 7.24187L15.3034 7.9982L14.8642 7.22808L13.9857 7.34289L14.3212 6.52225L13.6778 5.90853L14.5356 5.65642L14.618 4.77509L15.3523 5.28101L16.1011 4.79759L16.1586 5.67913L17.007 5.95734L16.6381 6.28924C18.1665 6.28775 19.6773 6.61498 21.0653 7.24803C22.4534 7.88108 23.6859 8.80485 24.6776 9.95567C26.2536 11.9039 27.1749 14.2908 27.3129 16.7826H28.1793C28.1406 14.3805 27.355 12.0484 25.93 10.1034C24.4296 8.09508 22.346 6.58747 19.957 5.78163V6.11013L19.5813 5.90513L19.2493 6.17465L19.1773 5.75552L18.7569 5.66682L19.0417 5.34871L18.8504 4.968L19.2785 4.9907L19.4544 4.60638L19.704 4.9542L20.1217 4.8534L20.0042 5.26191L20.1938 5.40792C22.6372 6.24106 24.7645 7.79488 26.2886 9.86017C27.7545 11.8818 28.5641 14.2966 28.6107 16.7843H32V16.4072C32.0021 14.3265 31.5892 12.2656 30.7853 10.343C29.9814 8.42031 28.8026 6.67347 27.3154 5.20249C25.8283 3.73152 24.0621 2.56545 22.1187 1.77077C20.1754 0.976097 18.0932 0.568576 15.9905 0.571549Z" fill="#90949C"/>
<path d="M9.91382 21.2727V24.1962C9.91382 24.3987 9.86514 24.5519 9.76779 24.6556C9.67043 24.7594 9.54687 24.8112 9.39709 24.8112C9.24732 24.8112 9.125 24.7581 9.03014 24.6519C8.93778 24.5457 8.8916 24.3938 8.8916 24.1962V21.3024C8.8916 21.1023 8.93778 20.9516 9.03014 20.8503C9.125 20.7491 9.24732 20.6984 9.39709 20.6984C9.54687 20.6984 9.67043 20.7491 9.76779 20.8503C9.86514 20.9516 9.91382 21.0924 9.91382 21.2727ZM9.40833 20.2279C9.26604 20.2279 9.14372 20.1846 9.04138 20.0982C8.94153 20.0117 8.8916 19.8894 8.8916 19.7314C8.8916 19.5881 8.94277 19.4708 9.04512 19.3794C9.14996 19.2855 9.27103 19.2386 9.40833 19.2386C9.54063 19.2386 9.65795 19.2805 9.7603 19.3645C9.86264 19.4485 9.91382 19.5708 9.91382 19.7314C9.91382 19.887 9.86389 20.0092 9.76404 20.0982C9.66419 20.1846 9.54562 20.2279 9.40833 20.2279Z" fill="#90949C"/>
<path d="M14.6093 20.1945H13.3961V24.1406C13.3961 24.3679 13.3449 24.5371 13.2426 24.6482C13.1402 24.7569 13.0079 24.8112 12.8457 24.8112C12.6809 24.8112 12.5461 24.7557 12.4413 24.6445C12.3389 24.5334 12.2877 24.3654 12.2877 24.1406V20.1945H11.0746C10.8849 20.1945 10.7438 20.1538 10.6515 20.0722C10.5591 19.9883 10.5129 19.8783 10.5129 19.7425C10.5129 19.6017 10.5603 19.4905 10.6552 19.409C10.7526 19.3275 10.8923 19.2867 11.0746 19.2867H14.6093C14.8015 19.2867 14.9438 19.3287 15.0361 19.4127C15.131 19.4967 15.1784 19.6066 15.1784 19.7425C15.1784 19.8783 15.131 19.9883 15.0361 20.0722C14.9413 20.1538 14.799 20.1945 14.6093 20.1945Z" fill="#90949C"/>
<path d="M18.1327 23.0031H16.1332C16.1357 23.2328 16.1819 23.4354 16.2718 23.6107C16.3641 23.7861 16.4852 23.9183 16.635 24.0072C16.7872 24.0961 16.9545 24.1406 17.1367 24.1406C17.259 24.1406 17.3701 24.127 17.47 24.0998C17.5723 24.0702 17.6709 24.0257 17.7658 23.9665C17.8606 23.9047 17.948 23.8392 18.0279 23.7701C18.1078 23.7009 18.2113 23.607 18.3387 23.4885C18.3911 23.444 18.466 23.4218 18.5633 23.4218C18.6682 23.4218 18.753 23.4502 18.8179 23.507C18.8828 23.5638 18.9153 23.6441 18.9153 23.7478C18.9153 23.8392 18.8791 23.9467 18.8067 24.0702C18.7343 24.1912 18.6245 24.3086 18.4772 24.4222C18.3324 24.5334 18.1489 24.626 17.9268 24.7001C17.7071 24.7742 17.4537 24.8112 17.1667 24.8112C16.5102 24.8112 15.9997 24.626 15.6352 24.2555C15.2708 23.8849 15.0885 23.3823 15.0885 22.7474C15.0885 22.4485 15.1335 22.1719 15.2233 21.9174C15.3132 21.6606 15.4443 21.4407 15.6165 21.2579C15.7887 21.0751 16.0009 20.9356 16.253 20.8392C16.5052 20.7404 16.7847 20.691 17.0918 20.691C17.4912 20.691 17.8332 20.775 18.1177 20.943C18.4048 21.1085 18.6195 21.3234 18.7618 21.5877C18.9041 21.852 18.9752 22.1212 18.9752 22.3954C18.9752 22.6499 18.9016 22.8154 18.7543 22.8919C18.607 22.966 18.3998 23.0031 18.1327 23.0031ZM16.1332 22.4288H17.9867C17.9617 22.083 17.8669 21.8248 17.7021 21.6544C17.5399 21.4815 17.3252 21.395 17.0581 21.395C16.8035 21.395 16.5938 21.4827 16.429 21.6581C16.2668 21.831 16.1682 22.0879 16.1332 22.4288Z" fill="#90949C"/>
<path d="M23.5059 23.5589C23.5059 23.6849 23.4672 23.8195 23.3898 23.9627C23.3149 24.106 23.1989 24.2431 23.0416 24.374C22.8868 24.5025 22.6909 24.6062 22.4537 24.6853C22.2166 24.7643 21.9495 24.8038 21.6524 24.8038C21.0209 24.8038 20.5279 24.6223 20.1734 24.2592C19.8189 23.8936 19.6417 23.4045 19.6417 22.7919C19.6417 22.3769 19.7228 22.0101 19.8851 21.6914C20.0473 21.3728 20.282 21.127 20.589 20.9541C20.8961 20.7787 21.263 20.691 21.6899 20.691C21.9545 20.691 22.1966 20.7293 22.4163 20.8059C22.6384 20.8825 22.8257 20.9813 22.9779 21.1023C23.1327 21.2233 23.25 21.353 23.3299 21.4913C23.4123 21.6272 23.4535 21.7544 23.4535 21.873C23.4535 21.994 23.4073 22.0965 23.3149 22.1805C23.2251 22.2645 23.1152 22.3065 22.9854 22.3065C22.9006 22.3065 22.8294 22.2855 22.772 22.2435C22.7171 22.199 22.6547 22.1286 22.5848 22.0323C22.46 21.8446 22.3289 21.7038 22.1916 21.6099C22.0568 21.516 21.8846 21.4691 21.6749 21.4691C21.3728 21.4691 21.1295 21.5864 20.9447 21.8211C20.76 22.0533 20.6677 22.372 20.6677 22.7771C20.6677 22.9673 20.6914 23.1427 20.7388 23.3032C20.7862 23.4613 20.8549 23.5972 20.9447 23.7108C21.0346 23.8219 21.1432 23.9072 21.2705 23.9665C21.3978 24.0233 21.5376 24.0517 21.6899 24.0517C21.8946 24.0517 22.0693 24.0047 22.2141 23.9109C22.3614 23.817 22.4912 23.6737 22.6035 23.4811C22.6659 23.3674 22.7333 23.2785 22.8057 23.2143C22.8781 23.1501 22.9667 23.118 23.0715 23.118C23.1964 23.118 23.3 23.1649 23.3823 23.2587C23.4647 23.3526 23.5059 23.4527 23.5059 23.5589Z" fill="#90949C"/>
<path d="M25.2058 19.8092V21.3098C25.3356 21.1616 25.4617 21.0442 25.584 20.9578C25.7088 20.8713 25.8461 20.8071 25.9959 20.7651C26.1457 20.7207 26.3067 20.6984 26.4789 20.6984C26.7385 20.6984 26.9682 20.7528 27.1679 20.8615C27.3701 20.9701 27.5286 21.1282 27.6434 21.3357C27.7158 21.4568 27.7645 21.5926 27.7895 21.7433C27.8144 21.8915 27.8269 22.0632 27.8269 22.2583V24.1962C27.8269 24.3987 27.7795 24.5519 27.6846 24.6556C27.5923 24.7594 27.4687 24.8112 27.3139 24.8112C26.9769 24.8112 26.8084 24.6062 26.8084 24.1962V22.4881C26.8084 22.1645 26.7598 21.9162 26.6624 21.7433C26.565 21.5679 26.3803 21.4802 26.1082 21.4802C25.926 21.4802 25.7613 21.5321 25.614 21.6359C25.4692 21.7371 25.3606 21.8767 25.2882 22.0545C25.2333 22.2052 25.2058 22.4732 25.2058 22.8586V24.1962C25.2058 24.3963 25.1597 24.5494 25.0673 24.6556C24.9774 24.7594 24.8514 24.8112 24.6891 24.8112C24.3521 24.8112 24.1836 24.6062 24.1836 24.1962V19.8092C24.1836 19.6041 24.2273 19.451 24.3147 19.3497C24.4045 19.246 24.5294 19.1941 24.6891 19.1941C24.8514 19.1941 24.9774 19.246 25.0673 19.3497C25.1597 19.4535 25.2058 19.6066 25.2058 19.8092Z" fill="#90949C"/>
<path d="M9.79625 27.5237V30.6426H11.5745C11.7163 30.6426 11.8246 30.6767 11.8994 30.7449C11.9762 30.8131 12.0146 30.8988 12.0146 31.0021C12.0146 31.1073 11.9772 31.1931 11.9024 31.2593C11.8276 31.3237 11.7183 31.3558 11.5745 31.3558H9.45656C9.26554 31.3558 9.12769 31.3139 9.04301 31.2301C8.9603 31.1463 8.91895 31.0109 8.91895 30.8238V27.5237C8.91895 27.3483 8.95833 27.2168 9.0371 27.1291C9.11784 27.0414 9.2232 26.9976 9.35317 26.9976C9.48511 26.9976 9.59145 27.0414 9.67219 27.1291C9.7549 27.2148 9.79625 27.3464 9.79625 27.5237Z" fill="#90949C"/>
<path d="M14.5757 30.9787C14.3807 31.1288 14.1917 31.2418 14.0085 31.3178C13.8273 31.3919 13.6235 31.4289 13.3971 31.4289C13.1903 31.4289 13.0081 31.3889 12.8506 31.309C12.695 31.2272 12.5749 31.1171 12.4902 30.9787C12.4055 30.8404 12.3632 30.6903 12.3632 30.5286C12.3632 30.3103 12.4331 30.1242 12.5729 29.9703C12.7127 29.8163 12.9047 29.7131 13.1489 29.6604C13.2001 29.6488 13.3272 29.6224 13.53 29.5815C13.7328 29.5406 13.9061 29.5036 14.0499 29.4704C14.1956 29.4354 14.3531 29.3935 14.5225 29.3448C14.5127 29.1343 14.4693 28.9804 14.3925 28.8829C14.3177 28.7835 14.1611 28.7338 13.9229 28.7338C13.7181 28.7338 13.5635 28.7621 13.4591 28.8186C13.3567 28.8751 13.2681 28.9599 13.1932 29.0729C13.1204 29.1859 13.0682 29.261 13.0367 29.298C13.0071 29.3331 12.9422 29.3506 12.8417 29.3506C12.7511 29.3506 12.6724 29.3223 12.6054 29.2658C12.5404 29.2074 12.5079 29.1333 12.5079 29.0437C12.5079 28.9034 12.5582 28.767 12.6586 28.6345C12.759 28.5019 12.9156 28.3928 13.1283 28.3071C13.3409 28.2213 13.6058 28.1785 13.9229 28.1785C14.2773 28.1785 14.556 28.2204 14.7588 28.3042C14.9616 28.386 15.1044 28.5166 15.1871 28.6958C15.2718 28.8751 15.3141 29.1129 15.3141 29.4091C15.3141 29.5961 15.3132 29.755 15.3112 29.8855C15.3112 30.0161 15.3102 30.1613 15.3082 30.3211C15.3082 30.4711 15.3329 30.628 15.3821 30.7917C15.4333 30.9534 15.4589 31.0577 15.4589 31.1044C15.4589 31.1863 15.4195 31.2613 15.3407 31.3295C15.2639 31.3958 15.1763 31.4289 15.0778 31.4289C14.9951 31.4289 14.9134 31.3909 14.8327 31.3149C14.7519 31.2369 14.6663 31.1249 14.5757 30.9787ZM14.5225 29.8241C14.4043 29.867 14.232 29.9128 14.0056 29.9615C13.7811 30.0083 13.6255 30.0434 13.5388 30.0667C13.4522 30.0882 13.3695 30.132 13.2907 30.1983C13.212 30.2626 13.1726 30.3532 13.1726 30.4701C13.1726 30.5909 13.2188 30.6942 13.3114 30.78C13.404 30.8638 13.5251 30.9057 13.6747 30.9057C13.8342 30.9057 13.9809 30.8716 14.1149 30.8034C14.2507 30.7332 14.3502 30.6436 14.4132 30.5344C14.4861 30.4136 14.5225 30.2148 14.5225 29.9381V29.8241Z" fill="#90949C"/>
<path d="M16.797 27.4536V28.6725C16.9486 28.5166 17.1032 28.3977 17.2608 28.3158C17.4183 28.2321 17.6133 28.1902 17.8456 28.1902C18.1135 28.1902 18.3478 28.2535 18.5487 28.3802C18.7515 28.5049 18.9081 28.6871 19.0183 28.9268C19.1306 29.1645 19.1867 29.4471 19.1867 29.7744C19.1867 30.0161 19.1552 30.2382 19.0922 30.4409C19.0311 30.6416 18.9415 30.816 18.8234 30.9641C18.7052 31.1122 18.5615 31.2272 18.3921 31.309C18.2247 31.3889 18.0396 31.4289 17.8368 31.4289C17.7127 31.4289 17.5955 31.4143 17.4853 31.385C17.377 31.3558 17.2844 31.3178 17.2076 31.271C17.1308 31.2223 17.0648 31.1726 17.0097 31.122C16.9565 31.0713 16.8856 30.9953 16.797 30.894V30.9729C16.797 31.1229 16.7606 31.2369 16.6877 31.3149C16.6148 31.3909 16.5223 31.4289 16.41 31.4289C16.2958 31.4289 16.2043 31.3909 16.1353 31.3149C16.0684 31.2369 16.0349 31.1229 16.0349 30.9729V27.4886C16.0349 27.3269 16.0674 27.2051 16.1324 27.1232C16.1993 27.0395 16.2919 26.9976 16.41 26.9976C16.5341 26.9976 16.6296 27.0375 16.6966 27.1174C16.7635 27.1954 16.797 27.3074 16.797 27.4536ZM16.8354 29.8241C16.8354 30.1418 16.9083 30.3863 17.054 30.5578C17.2017 30.7274 17.3947 30.8121 17.633 30.8121C17.8358 30.8121 18.0101 30.7254 18.1558 30.552C18.3035 30.3766 18.3773 30.1262 18.3773 29.8008C18.3773 29.5903 18.3468 29.4091 18.2858 29.2571C18.2247 29.1051 18.1381 28.9881 18.0258 28.9063C17.9136 28.8225 17.7826 28.7806 17.633 28.7806C17.4794 28.7806 17.3425 28.8225 17.2224 28.9063C17.1022 28.9881 17.0077 29.108 16.9388 29.2658C16.8699 29.4217 16.8354 29.6078 16.8354 29.8241Z" fill="#90949C"/>
<path d="M22.4301 30.3854C22.4301 30.6056 22.3759 30.7946 22.2676 30.9524C22.1593 31.1083 21.9988 31.2272 21.7861 31.309C21.5754 31.3889 21.3184 31.4289 21.0152 31.4289C20.7257 31.4289 20.4776 31.385 20.2708 31.2973C20.064 31.2097 19.9114 31.1005 19.8129 30.97C19.7145 30.8375 19.6652 30.7049 19.6652 30.5724C19.6652 30.4847 19.6968 30.4097 19.7598 30.3474C19.8228 30.285 19.9025 30.2538 19.999 30.2538C20.0837 30.2538 20.1487 30.2743 20.194 30.3152C20.2393 30.3561 20.2826 30.4136 20.324 30.4877C20.4067 30.6299 20.5051 30.7361 20.6194 30.8063C20.7355 30.8764 20.8931 30.9115 21.092 30.9115C21.2535 30.9115 21.3854 30.8764 21.4878 30.8063C21.5922 30.7342 21.6444 30.6523 21.6444 30.5607C21.6444 30.4204 21.5902 30.3181 21.4819 30.2538C21.3756 30.1895 21.1993 30.1281 20.9531 30.0697C20.6755 30.0015 20.449 29.9303 20.2737 29.8563C20.1005 29.7803 19.9616 29.6809 19.8572 29.5581C19.7529 29.4354 19.7007 29.2843 19.7007 29.1051C19.7007 28.9453 19.7489 28.7943 19.8454 28.652C19.9419 28.5097 20.0837 28.3967 20.2708 28.3129C20.4598 28.2272 20.6873 28.1843 20.9531 28.1843C21.1619 28.1843 21.349 28.2057 21.5144 28.2486C21.6818 28.2915 21.8206 28.349 21.9309 28.4211C22.0431 28.4932 22.1278 28.5731 22.1849 28.6608C22.244 28.7485 22.2735 28.8342 22.2735 28.918C22.2735 29.0096 22.242 29.0846 22.179 29.1431C22.118 29.2015 22.0303 29.2308 21.9161 29.2308C21.8334 29.2308 21.7625 29.2074 21.7034 29.1606C21.6463 29.1138 21.5804 29.0437 21.5055 28.9501C21.4445 28.8722 21.3726 28.8098 21.2899 28.7631C21.2072 28.7163 21.0949 28.6929 20.9531 28.6929C20.8074 28.6929 20.6863 28.7241 20.5898 28.7865C20.4933 28.8469 20.4451 28.9229 20.4451 29.0145C20.4451 29.0982 20.4805 29.1674 20.5514 29.222C20.6223 29.2746 20.7178 29.3184 20.8379 29.3535C20.9581 29.3886 21.1235 29.4315 21.3342 29.4821C21.5843 29.5425 21.7881 29.6147 21.9457 29.6984C22.1052 29.7822 22.2253 29.8816 22.306 29.9966C22.3887 30.1096 22.4301 30.2392 22.4301 30.3854Z" fill="#90949C"/>
</svg>
