<svg width="30" height="40" viewBox="0 0 30 40" fill="none" xmlns="http://www.w3.org/2000/svg">
<path d="M11.0742 12.0433C11.6518 11.1902 12.5355 10.5454 13.5324 10.2683C13.3551 10.3899 13.2067 10.545 13.0594 10.6991C13.5723 10.633 14.1052 10.6926 14.5806 10.9005C14.6418 11.3508 14.6749 11.8053 14.7468 12.2539C14.8057 11.8032 14.8505 11.3508 14.9066 10.8998C15.3706 10.6998 15.8914 10.6293 16.3919 10.6998L16.4257 10.7265C16.4267 10.7187 16.4288 10.7032 16.4298 10.6957C16.2752 10.5484 16.1317 10.3882 15.953 10.2687C16.9486 10.5464 17.8322 11.1892 18.4091 12.0419C18.2398 11.9125 18.0463 11.8217 17.8549 11.7306C18.0752 12.1919 18.1868 12.7111 18.1334 13.2217C17.7159 13.4149 17.2914 13.5943 16.8787 13.7978C17.3296 13.7173 17.7771 13.6183 18.2264 13.5306C18.5778 13.9149 18.7974 14.4043 18.8973 14.9111C18.9961 14.7317 19.0938 14.5505 19.1554 14.3546C19.1902 15.3597 18.8597 16.3717 18.2384 17.1645C18.2949 16.9741 18.3248 16.7779 18.3513 16.582C17.9771 16.9334 17.5141 17.1964 17.0095 17.3074C16.6914 16.9693 16.3857 16.6193 16.0601 16.2885C16.2794 16.6947 16.5148 17.0919 16.7406 17.4943C16.479 17.943 16.0807 18.3043 15.6239 18.5505C15.8198 18.5858 16.0171 18.6176 16.2167 18.6234C15.2711 18.9587 14.2102 18.9577 13.2646 18.6224C13.4656 18.6183 13.6642 18.5858 13.8618 18.5505C13.405 18.3043 13.0067 17.943 12.7451 17.494C12.9703 17.0919 13.2071 16.6957 13.4243 16.2895C13.098 16.6204 12.7943 16.9731 12.4721 17.308C11.9703 17.1933 11.5069 16.9344 11.1351 16.5817C11.161 16.7793 11.1902 16.9769 11.2481 17.1683C10.6264 16.3738 10.2942 15.3615 10.3286 14.3546C10.393 14.5515 10.4911 14.7341 10.5902 14.9152C10.6839 14.4053 10.9093 13.9156 11.2598 13.5296C11.7093 13.6169 12.1568 13.7159 12.6078 13.7967C12.1954 13.5923 11.7699 13.4139 11.3524 13.22C11.2997 12.7104 11.4102 12.1916 11.6308 11.731C11.4381 11.8214 11.2443 11.9139 11.0742 12.0433ZM14.7427 12.458C14.0969 12.9255 13.4501 13.3919 12.8036 13.8584C13.0498 14.6152 13.298 15.3711 13.5451 16.1276C14.3451 16.1258 15.1451 16.1303 15.9451 16.1252C16.1878 15.368 16.4412 14.6142 16.6832 13.8567C16.035 13.3923 15.3902 12.9231 14.7427 12.458Z" fill="white"/>
<path d="M13.5277 0H13.6227C13.6757 0.0458904 13.7256 0.099315 13.7308 0.173288C14.0801 2.04384 14.4323 3.91404 14.7807 5.78493C14.8113 5.87911 14.7569 5.99109 14.6536 6.00377C13.9442 6.13048 13.253 6.36541 12.6213 6.71233C11.5686 7.28527 10.675 8.14829 10.0812 9.18664C10.0437 9.2524 9.99375 9.32808 9.90735 9.32534C9.79238 9.30274 9.6984 9.22774 9.59789 9.17329C8.00856 8.25445 6.41889 7.33664 4.82888 6.41883C4.76175 6.38219 4.69428 6.31644 4.7139 6.23253C4.75314 6.1137 4.83197 6.01335 4.89256 5.90548C6.12905 3.86267 7.96587 2.19007 10.1118 1.13082C11.1893 0.595205 12.3442 0.219863 13.5277 0V0Z" fill="#951B80"/>
<path d="M16.7269 1.4139C18.4794 1.36835 20.2402 1.69096 21.8636 2.34883C23.1132 2.85568 24.2818 3.56013 25.3104 4.42931C25.3679 4.47931 25.4312 4.52452 25.4798 4.58411C25.5242 4.65637 25.498 4.74849 25.4398 4.80466C24.1875 6.2413 22.9352 7.67794 21.6836 9.11493C21.6447 9.15637 21.6006 9.20465 21.5386 9.20294C21.4598 9.20808 21.4054 9.14267 21.3493 9.09883C19.93 7.86904 17.9586 7.30089 16.0984 7.58753C16.0278 7.59438 15.9462 7.62144 15.8849 7.57246C15.834 7.54301 15.8195 7.48205 15.812 7.42829C15.5438 5.62692 15.2763 3.8252 15.0082 2.02383C14.9944 1.92007 14.9714 1.81698 14.9669 1.71219C14.9641 1.63377 15.0323 1.5687 15.108 1.56014C15.6436 1.47555 16.1848 1.42897 16.7269 1.4139Z" fill="#E40613"/>
<path d="M2.58708 6.38193C2.6518 6.34323 2.7265 6.36481 2.78743 6.39939C4.4814 7.30453 6.17779 8.2059 7.87142 9.11206C7.97916 9.16104 7.97813 9.30008 7.91341 9.38432C7.00257 11.0326 6.86866 13.0809 7.55885 14.8323C7.58192 14.9059 7.63355 14.9864 7.59121 15.0627C7.55093 15.1412 7.45386 15.1562 7.38019 15.1898C5.62013 15.8614 3.86178 16.5371 2.10206 17.2093C2.02805 17.2429 1.92856 17.2374 1.88209 17.1631C1.82392 17.0514 1.78812 16.9295 1.74199 16.8124C0.804985 14.2706 0.731319 11.4275 1.52237 8.83809C1.76712 8.02782 2.09621 7.24323 2.49724 6.49734C2.52168 6.45556 2.54405 6.4083 2.58708 6.38193Z" fill="#01509F"/>
<path d="M25.0654 6.69652C25.1312 6.65645 25.2124 6.68659 25.263 6.73693C26.7473 8.11193 27.8837 9.852 28.558 11.754C29.0069 13.0102 29.2454 14.3373 29.2854 15.6691V16.3489C29.2768 16.4677 29.2788 16.5883 29.2554 16.7058C29.2255 16.7924 29.126 16.8133 29.0448 16.8051C27.1274 16.7106 25.2093 16.6222 23.2919 16.526C23.1738 16.5297 23.1109 16.4071 23.1325 16.303C23.2434 14.4318 22.485 12.5314 21.1146 11.2455C21.0602 11.1907 20.9917 11.1404 20.9694 11.0633C20.9563 10.991 21.0072 10.9328 21.0523 10.8835C22.3212 9.55508 23.5893 8.22563 24.8575 6.89652C24.925 6.82837 24.9852 6.75063 25.0654 6.69652Z" fill="#F28800"/>
<path d="M14.1275 9.7547C15.5013 9.57148 16.9437 10.0194 17.965 10.9523C18.8645 11.7557 19.4383 12.9088 19.5285 14.1088C19.6304 15.316 19.2432 16.5544 18.471 17.491C17.6962 18.4468 16.5392 19.0848 15.3124 19.2246C13.9681 19.391 12.5633 18.9554 11.5557 18.054C10.6446 17.2568 10.058 16.1037 9.9585 14.8999C9.86246 13.8362 10.1416 12.7437 10.7378 11.8554C11.4931 10.7119 12.7616 9.92114 14.1275 9.7547ZM11.0742 12.0431C11.2442 11.9136 11.438 11.8211 11.6308 11.7307C11.4101 12.1913 11.2996 12.7102 11.3523 13.2198C11.7699 13.4136 12.1953 13.592 12.6077 13.7965C12.1568 13.7157 11.7093 13.6167 11.2597 13.5294C10.9093 13.9153 10.6838 14.405 10.5902 14.915C10.491 14.7338 10.3929 14.5513 10.3286 14.3544C10.2941 15.3612 10.6263 16.3735 11.248 17.1681C11.1902 16.9766 11.1609 16.779 11.1351 16.5814C11.5069 16.9342 11.9702 17.1931 12.4721 17.3078C12.7943 16.9729 13.0979 16.6201 13.4242 16.2893C13.207 16.6955 12.9702 17.0917 12.7451 17.4937C13.0067 17.9427 13.405 18.304 13.8618 18.5502C13.6642 18.5855 13.4656 18.6181 13.2645 18.6222C14.2101 18.9574 15.2711 18.9585 16.2167 18.6232C16.017 18.6174 15.8198 18.5855 15.6239 18.5502C16.0807 18.304 16.479 17.9427 16.7406 17.4941C16.5148 17.0917 16.2793 16.6944 16.06 16.2883C16.3857 16.6191 16.6914 16.9691 17.0094 17.3071C17.5141 17.1961 17.9771 16.9331 18.3513 16.5818C18.3247 16.7776 18.2948 16.9739 18.2383 17.1643C18.8597 16.3715 19.1902 15.3595 19.1554 14.3544C19.0938 14.5503 18.996 14.7314 18.8972 14.9109C18.7974 14.404 18.5778 13.9146 18.2263 13.5304C17.7771 13.6181 17.3296 13.717 16.8786 13.7975C17.2914 13.5941 17.7158 13.4146 18.1334 13.2215C18.1867 12.7109 18.0752 12.1917 17.8549 11.7304C18.0463 11.8215 18.2397 11.9122 18.4091 12.0417C17.8322 11.189 16.9485 10.5461 15.953 10.2684C16.1316 10.3879 16.2752 10.5482 16.4297 10.6955C16.4287 10.703 16.4266 10.7184 16.4256 10.7263L16.3919 10.6996C15.8914 10.629 15.3705 10.6996 14.9065 10.8996C14.8504 11.3506 14.8057 11.803 14.7468 12.2537C14.6748 11.805 14.6418 11.3506 14.5805 10.9003C14.1051 10.6924 13.5723 10.6328 13.0594 10.6989C13.2067 10.5448 13.3551 10.3896 13.5323 10.2681C12.5354 10.5451 11.6518 11.19 11.0742 12.0431Z" fill="#1D1D1B"/>
<path d="M14.7428 12.4578C15.3903 12.9228 16.035 13.392 16.6832 13.8564C16.4412 14.6139 16.1879 15.3677 15.9452 16.1249C15.1452 16.13 14.3452 16.1256 13.5452 16.1273C13.298 15.3708 13.0498 14.615 12.8037 13.8581C13.4502 13.3917 14.097 12.9252 14.7428 12.4578Z" fill="#1D1D1B"/>
<path d="M6.13087 16.4832C6.24034 16.4195 6.36116 16.4986 6.39008 16.6106C7.13259 18.3626 8.68922 19.7465 10.5212 20.2876C10.6317 20.3041 10.7181 20.4113 10.6713 20.5215C10.1006 22.3482 9.52674 24.1743 8.95393 26C8.93431 26.1133 8.80935 26.1702 8.70677 26.1222C7.25789 25.6828 5.89025 24.9808 4.68956 24.0619C2.95015 22.7376 1.56427 20.9571 0.714355 18.9489V18.8702C0.749123 18.8126 0.801102 18.7684 0.864786 18.7452C2.62107 17.9934 4.37459 17.2345 6.13087 16.4832Z" fill="#0090D7"/>
<path d="M21.4132 17.2047C21.4559 17.1969 21.4993 17.1955 21.5434 17.2003C23.4484 17.3503 25.3537 17.4958 27.2587 17.6445C27.3644 17.6404 27.4504 17.7369 27.4287 17.8417C27.2573 20.3198 26.3158 22.7345 24.7809 24.6917C24.0466 25.6321 23.1778 26.4681 22.2088 27.1667C22.1327 27.2338 22.0101 27.2088 21.9589 27.1249C20.8645 25.6431 19.7709 24.1606 18.6773 22.678C18.616 22.5859 18.5262 22.5061 18.4993 22.3965C18.4835 22.2962 18.5788 22.2404 18.6473 22.1897C20.1602 21.0948 21.1523 19.3249 21.2948 17.4695C21.3007 17.3729 21.2979 17.2383 21.4132 17.2047Z" fill="#FEED01"/>
<path d="M16.6678 21.3206C16.7538 21.2788 16.8443 21.3408 16.885 21.4158C17.9538 23.0014 19.0268 24.5843 20.0949 26.1703C20.1862 26.2829 20.087 26.4158 19.9758 26.4631C17.5476 28.0905 14.5428 28.834 11.6313 28.5415C10.8895 28.4682 10.1538 28.3319 9.43644 28.1309C9.33868 28.1124 9.2836 28.0021 9.31975 27.912C9.8299 26.0665 10.3438 24.222 10.8554 22.3771C10.8736 22.2607 11.0051 22.2062 11.1077 22.2555C12.5311 22.6607 14.0901 22.5586 15.4519 21.9829C15.8808 21.8079 16.2805 21.5716 16.6678 21.3206Z" fill="#00963F"/>
<path d="M0.809256 31.7939C1.36726 31.7932 1.92526 31.7935 2.48326 31.7939C2.48292 33.4425 2.48361 35.0911 2.48326 36.7401C3.15796 36.7404 3.83266 36.7397 4.50736 36.7404C4.50736 37.226 4.50908 37.712 4.50667 38.1976C3.27431 38.198 2.0423 38.198 0.810288 38.1976C0.807879 36.063 0.809944 33.9284 0.809256 31.7939Z" fill="white"/>
<path d="M11.216 31.7932C11.774 31.7939 12.332 31.7936 12.89 31.7936C12.8903 33.4425 12.89 35.0912 12.8903 36.7401C13.565 36.7422 14.2401 36.736 14.9151 36.7432C14.9137 37.2275 14.9151 37.7117 14.9144 38.196C13.6817 38.1956 12.4487 38.1956 11.216 38.1956C11.216 36.0617 11.2156 33.9275 11.216 31.7932Z" fill="white"/>
<path d="M5.8778 33.4243C6.29123 33.1178 6.80758 32.9524 7.32324 32.9648C7.63167 32.9675 7.94252 33.0363 8.2124 33.1874C8.41102 33.2949 8.58623 33.4387 8.75456 33.5874C8.75422 33.413 8.75456 33.2391 8.75456 33.0651C9.26885 33.0648 9.78313 33.0648 10.2974 33.0651C10.2971 34.7754 10.2978 36.4853 10.2971 38.1956C9.77522 38.1959 9.25336 38.1956 8.7315 38.1956C8.73081 38.0305 8.73047 37.8654 8.7315 37.7007C8.31532 38.1062 7.73288 38.3356 7.15043 38.3219C6.61068 38.3175 6.06231 38.148 5.64889 37.7956C5.242 37.4565 4.98383 36.9671 4.86885 36.4569C4.77419 36.0257 4.75147 35.5754 4.82892 35.1401C4.95044 34.4665 5.32152 33.8322 5.8778 33.4243ZM7.27367 34.4384C7.01928 34.4969 6.78417 34.6411 6.62445 34.8476C6.3136 35.2456 6.29501 35.8161 6.50224 36.2651C6.64338 36.5778 6.9315 36.8247 7.27126 36.8959C7.79002 37.01 8.38004 36.7774 8.64097 36.3082C8.94389 35.7778 8.82548 35.0243 8.32978 34.6487C8.03512 34.4206 7.63339 34.3555 7.27367 34.4384Z" fill="white"/>
<path d="M19.0167 33.2422C19.4962 32.9603 20.0879 32.9007 20.6256 33.0257C21.0126 33.1144 21.3444 33.3541 21.6136 33.6374C21.6132 33.4466 21.6132 33.2555 21.6139 33.0648C22.1107 33.0651 22.6077 33.0644 23.1048 33.0651C23.1052 34.3713 23.1048 35.6774 23.1048 36.9839C23.099 37.337 23.1251 37.6928 23.0687 38.0432C22.9898 38.5644 22.7262 39.0603 22.3158 39.3976C21.8477 39.7901 21.2332 39.9696 20.6294 40H20.3151C19.8002 39.9737 19.28 39.849 18.8404 39.5726C18.3561 39.2791 18.0067 38.7726 17.9313 38.2107C18.5141 38.2107 19.0969 38.21 19.6797 38.211C19.7551 38.3182 19.8329 38.4288 19.9444 38.5024C20.1286 38.6274 20.363 38.6319 20.5781 38.6271C20.8921 38.6117 21.2367 38.5089 21.4232 38.2394C21.5864 38.0055 21.5447 37.7069 21.5413 37.4391C21.2277 37.7011 20.8566 37.9011 20.4549 37.9877C20.0074 38.0802 19.5303 38.0151 19.1196 37.8182C18.5657 37.5535 18.163 37.0353 17.9771 36.46C17.7699 35.8206 17.7854 35.1124 18.0143 34.4809C18.1984 33.9737 18.5444 33.5151 19.0167 33.2422ZM20.111 34.3391C19.7719 34.4319 19.5186 34.7237 19.4198 35.0524C19.2811 35.5011 19.3358 36.037 19.6556 36.3983C19.9661 36.75 20.5107 36.8038 20.9272 36.624C21.1809 36.5151 21.3864 36.3065 21.5014 36.0579C21.6638 35.7158 21.6521 35.3079 21.5144 34.96C21.4101 34.6959 21.194 34.4778 20.9258 34.3788C20.6673 34.2843 20.3771 34.2665 20.111 34.3391Z" fill="white"/>
<path d="M24.8949 33.4046C25.4326 33.0155 26.1413 32.871 26.7885 33.0241C27.1561 33.1128 27.4694 33.3392 27.7455 33.5881C27.7451 33.4135 27.7451 33.2392 27.7455 33.0649C28.2587 33.0649 28.7723 33.0649 29.2859 33.0652V38.196C28.7637 38.1957 28.2415 38.196 27.7196 38.1957C27.7196 38.0309 27.719 37.8666 27.72 37.7022C27.5358 37.8782 27.3231 38.0248 27.0894 38.1282C26.4842 38.4022 25.7651 38.3765 25.1592 38.1193C24.603 37.8827 24.1768 37.3957 23.9716 36.8344C23.7699 36.2837 23.7193 35.6768 23.826 35.1008C23.9551 34.4306 24.3345 33.8036 24.8949 33.4046ZM26.2415 34.444C26.0212 34.4988 25.8171 34.6176 25.6656 34.7864C25.3176 35.1707 25.2759 35.7583 25.4732 36.2231C25.5954 36.5183 25.8412 36.7655 26.1489 36.8652C26.6625 37.0323 27.2807 36.8368 27.5823 36.3847C27.9382 35.8611 27.8425 35.0686 27.3431 34.6673C27.0405 34.42 26.6164 34.3505 26.2415 34.444Z" fill="white"/>
<path d="M16.184 30.8411C16.4408 30.7846 16.721 30.8336 16.9375 30.9843C17.217 31.1716 17.3771 31.5185 17.3344 31.8518C17.2972 32.237 16.9974 32.5788 16.6194 32.6685C16.2903 32.7569 15.9151 32.6511 15.692 32.3925C15.4211 32.0918 15.3805 31.6155 15.5932 31.2723C15.7213 31.0572 15.9389 30.897 16.184 30.8411Z" fill="white"/>
<path d="M15.6069 33.0652C16.1264 33.0649 16.6455 33.0649 17.1649 33.0652V38.1957C16.6458 38.1957 16.1264 38.196 15.6073 38.1957C15.6066 36.4854 15.6073 34.7755 15.6069 33.0652Z" fill="white"/>
</svg>
