<svg width="64" height="64" viewBox="0 0 64 64" fill="none" xmlns="http://www.w3.org/2000/svg">
<circle cx="32" cy="32" r="32" fill="#26324D"/>
<path d="M32.2029 32.5156C33.6467 34.6301 35.845 36.4332 38.9949 38.1611C39.4726 38.4209 40.0185 38.5576 40.5681 38.5576C41.1177 38.5576 41.6632 38.42 42.1472 38.1562C45.2969 36.4324 47.4956 34.6321 48.9373 32.5156H49.0242V42.5849C49.0242 43.6966 48.0768 44.5996 46.9099 44.5996H17.3142C16.1494 44.5996 15.2 43.6966 15.2 42.5849V32.5156H32.2029ZM40.1492 16.4873C40.4176 16.3786 40.7157 16.3786 40.9841 16.4873L48.3835 19.5078C48.7725 19.6649 49.0242 20.0298 49.0242 20.4326V24.4599C49.0242 30.0081 46.874 33.2464 41.0945 36.4101C40.9317 36.4987 40.7499 36.5439 40.5681 36.5439C40.3863 36.5439 40.2045 36.4987 40.0417 36.4101C34.2621 33.2383 32.1121 30.0001 32.1121 24.4599V20.4326C32.1121 20.0298 32.3639 19.6649 32.7507 19.5078L40.1492 16.4873ZM44.3982 22.6699C43.9437 22.3257 43.2785 22.3943 42.9128 22.8271L39.5896 26.7861L38.2761 24.9111C37.9505 24.4461 37.2932 24.3258 36.8113 24.6318C36.3253 24.94 36.194 25.5642 36.5173 26.0273L38.6316 29.0478C38.8197 29.3156 39.1304 29.481 39.4666 29.4951H39.5105C39.8297 29.4951 40.1347 29.3558 40.3376 29.1181L44.5652 24.0839C44.9267 23.649 44.8548 23.0143 44.3982 22.6699ZM29.9978 24.4609C29.9978 25.9329 30.1503 27.2579 30.4441 28.4882H15.2V24.4609C15.2 23.3513 16.1494 22.4463 17.3142 22.4463H29.9978V24.4609Z" fill="#CAAB72"/>
<path opacity="0.1" d="M32.8262 0.0107422C50.1175 0.44895 64 14.6031 64 32C64 49.3969 50.1175 63.551 32.8262 63.9893L32 64V0L32.8262 0.0107422Z" fill="#222939"/>
</svg>
