<svg width="64" height="64" viewBox="0 0 64 64" fill="none" xmlns="http://www.w3.org/2000/svg">
<circle cx="32" cy="32" r="32" fill="#26324D"/>
<path d="M32.0001 13.5996C21.8382 13.5996 13.6001 21.8376 13.6001 31.9996C13.6001 42.1617 21.8382 50.3996 32.0001 50.3996C42.162 50.3996 50.4001 42.1617 50.4001 31.9996C50.4001 21.8376 42.162 13.5996 32.0001 13.5996ZM38.3596 32.975L29.1596 38.725C28.9734 38.8412 28.7618 38.8996 28.5501 38.8996C28.3583 38.8996 28.1663 38.8519 27.9925 38.7553C27.6269 38.5526 27.4001 38.1679 27.4001 37.7496V26.2496C27.4001 25.8313 27.6269 25.4466 27.9925 25.2439C28.358 25.0401 28.805 25.0525 29.1596 25.2743L38.3596 31.0243C38.6957 31.2349 38.9001 31.6032 38.9001 31.9996C38.9001 32.396 38.6957 32.7644 38.3596 32.975Z" fill="#CAAB72"/>
<path opacity="0.1" d="M32.8262 0.0107422C50.1175 0.44895 64 14.6031 64 32C64 49.3969 50.1175 63.551 32.8262 63.9893L32 64V0L32.8262 0.0107422Z" fill="#222939"/>
</svg>
