<svg width="40" height="40" viewBox="0 0 40 40" fill="none" xmlns="http://www.w3.org/2000/svg">
<path d="M12.5354 32.1608L12.6834 31.7887C12.6834 31.7887 12.2596 31.5583 11.8599 31.3013C11.4146 31.016 11.0899 30.7695 11.0899 30.7695L10.7522 31.0142C11.034 31.033 11.2994 31.1515 11.4972 31.3474L10.5481 32.6623C10.3966 32.8626 10.1442 33.2225 10 33.2561L10.2977 33.4688C10.4437 33.5751 10.6042 33.6743 10.6042 33.6743C10.6915 33.4354 10.8148 33.2104 10.9696 33.0063L11.9464 31.6345C12.2493 31.8135 12.4807 31.9357 12.5354 32.1608Z" fill="#90949C"/>
<path d="M27.3266 35.9446L27.2339 35.9924L27.1421 36.0367V36.0828C27.1512 36.0598 27.1842 36.0438 27.2134 36.0296L27.3025 36.2068C27.319 36.2312 27.3292 36.2592 27.3319 36.2883L27.3702 36.2706L27.4103 36.2511C27.3939 36.2511 27.3706 36.2016 27.3542 36.1733L27.2686 36.0119C27.2924 35.9957 27.32 35.9859 27.3488 35.9835L27.3266 35.9446Z" fill="#90949C"/>
<path d="M12.0572 32.9834C12.0023 33.1935 12.0099 33.4145 12.0795 33.6205C12.149 33.8265 12.277 34.009 12.4493 34.1468C12.6216 34.2847 12.8311 34.3719 13.0526 34.3987C13.2742 34.4255 13.4987 34.3906 13.7005 34.2981C13.9024 34.2055 14.073 34.0591 14.1925 33.876C14.3119 33.6929 14.3753 33.4805 14.3752 33.2637C14.375 33.047 14.3112 32.8347 14.1916 32.6517C14.0719 32.4687 13.9016 32.3226 13.6996 32.2303C13.5415 32.167 13.3715 32.1364 13.2006 32.1405C13.0296 32.1447 12.8615 32.1834 12.7069 32.2543C12.5522 32.3252 12.4142 32.4267 12.3023 32.5522C12.1903 32.6777 12.1073 32.8246 12.0572 32.9834ZM13.6078 32.4269C14.0422 32.6272 13.8768 33.1838 13.6194 33.7066C13.3621 34.2294 13.0182 34.7077 12.5857 34.5075C12.1531 34.3072 12.3192 33.7472 12.5857 33.2244C12.8521 32.7016 13.1752 32.2267 13.6114 32.4269H13.6078Z" fill="#90949C"/>
<path d="M15.1057 35.5566C15.0455 35.4555 15.2349 34.9186 15.2714 34.7769L15.7464 33.2279C16.1389 33.3253 16.1954 33.3679 16.3177 33.5398L16.3578 33.1409C16.3578 33.1409 15.9835 33.0577 15.5254 32.9319C15.0199 32.7919 14.7546 32.689 14.7546 32.689L14.5193 33.0275C14.7146 32.9407 14.8074 32.9496 15.2126 33.0808L14.7367 34.6404C14.6798 34.9005 14.5682 35.1465 14.4097 35.3634C14.5244 35.4055 14.6421 35.4416 14.7608 35.4715C14.9743 35.53 15.1057 35.5566 15.1057 35.5566Z" fill="#90949C"/>
<path d="M17.6277 33.5982C18.073 33.6532 18.137 33.701 18.3068 33.8464L18.2881 33.4457C18.2881 33.4457 17.8629 33.4085 17.4102 33.3429C16.9576 33.2774 16.6002 33.1941 16.6002 33.1941L16.4326 33.5733C16.6151 33.4688 16.6971 33.4387 17.0841 33.5149L16.8194 35.1258C16.7985 35.3865 16.7263 35.6411 16.6073 35.8756C16.6073 35.8756 16.7404 35.9039 16.9557 35.934C17.1711 35.9642 17.3211 35.9801 17.3211 35.9801C17.2903 35.7163 17.3038 35.4492 17.3612 35.1896L17.6277 33.5982Z" fill="#90949C"/>
<path d="M18.5195 35.3493C18.5297 35.6034 18.494 35.8572 18.4126 36.0989C18.4126 36.0989 18.816 36.1325 19.3252 36.1396C19.7942 36.1396 20.113 36.1396 20.113 36.1396L20.2012 35.6522C20.0187 35.8968 19.6292 35.9323 19.0525 35.9252L19.0872 34.8619H19.8323C19.9016 34.8619 19.9036 34.8246 19.9036 34.7537C19.9036 34.6828 19.9034 34.6456 19.834 34.6438H19.1042L19.1318 33.7471C19.4667 33.6997 19.8079 33.762 20.1023 33.9243L20.0381 33.5221C20.0381 33.5221 19.754 33.5381 19.2521 33.5221C18.867 33.5062 18.9197 33.5078 18.5017 33.4795C18.5984 33.5734 18.5731 34.0252 18.5712 34.3053L18.5195 35.3493Z" fill="#90949C"/>
<path d="M22.3018 35.9996C22.3379 35.9958 22.3728 35.9848 22.4042 35.9671C22.4357 35.9494 22.4631 35.9254 22.4844 35.8968C22.3932 35.8454 22.351 35.5654 22.3018 35.1773L22.1761 34.1334C22.1225 33.8762 22.113 33.612 22.1485 33.3518C22.1485 33.3518 22.0881 33.3643 21.9257 33.3856L21.7162 33.4122C21.8196 33.6505 21.8806 33.9038 21.898 34.1618L22.0094 35.0479L20.6682 33.5006L20.2681 33.5149C20.3572 33.772 20.4037 34.0411 20.4053 34.3124L20.4677 35.3599C20.5023 35.6147 20.4893 35.8732 20.4294 36.1236L20.8634 36.1041C20.7703 36.0296 20.7541 35.4786 20.7377 35.3315L20.6878 34.4045L21.997 35.8631C22.0299 35.9109 22.076 35.9491 22.1298 35.9732C22.1835 35.9973 22.2429 36.0063 22.3018 35.9996Z" fill="#90949C"/>
<path d="M24.7161 35.459L25.0503 35.3617C24.9134 35.2713 24.8224 34.8069 24.7749 34.6261L24.5227 33.6C24.4386 33.3565 24.3942 33.1018 24.3899 32.845C24.3899 32.845 24.291 32.8805 24.0629 32.9443L23.7233 33.0382C23.856 33.2493 23.9453 33.4835 23.9862 33.7276L24.0762 34.0662L23.2563 34.2592L23.1922 33.928C23.1281 33.6814 23.1035 33.4267 23.1191 33.1729C23.1191 33.1729 23.0044 33.2048 22.7653 33.2491L22.4204 33.3146C22.5317 33.3714 22.6245 33.8641 22.661 34.0591L22.8624 35.1012C22.9209 35.3498 22.9367 35.606 22.9097 35.8597C22.9097 35.8597 23.052 35.8383 23.2546 35.7976L23.6199 35.7249C23.5086 35.6593 23.421 35.1224 23.3936 34.9629L23.3 34.4701L24.1306 34.2717L24.2545 34.7572C24.3351 35.0155 24.3722 35.285 24.3641 35.5548C24.3641 35.5548 24.6048 35.4927 24.7161 35.459Z" fill="#90949C"/>
<path d="M26.9672 33.9774L25.7766 32.5438C25.6397 32.3896 25.5617 32.386 25.3756 32.4622C25.2623 32.5123 25.1533 32.5715 25.0503 32.6394C25.0873 32.6666 25.1179 32.7017 25.1385 32.7421C25.1621 32.8078 25.1756 32.8765 25.1786 32.9459L25.2508 34.9964C25.2626 35.1109 25.2436 35.2266 25.1947 35.3315L25.4103 35.266C25.5509 35.2217 25.6349 35.1913 25.6349 35.1913C25.6024 35.1752 25.577 35.1482 25.5636 35.1152C25.534 34.999 25.5157 34.8804 25.5101 34.7608L25.4834 34.3283L26.2953 34.0201L26.5306 34.3052C26.614 34.405 26.6891 34.5112 26.7551 34.6226C26.782 34.678 26.7869 34.7409 26.7694 34.7998C26.7694 34.7998 26.9209 34.743 27.149 34.6438L27.5002 34.4915C27.2818 34.3652 27.0988 34.1886 26.9672 33.9774ZM25.4772 34.0856L25.4264 32.8663L26.1563 33.8375L25.4772 34.0856Z" fill="#90949C"/>
<path d="M29.429 32.4657L28.7829 31.6594C28.5971 31.4485 28.4494 31.2089 28.3453 30.9504C28.3453 30.9504 28.2097 31.0479 28.0619 31.1436C27.9141 31.2393 27.832 31.2942 27.832 31.2942L28.4219 33.047L26.923 31.8065C26.923 31.8065 26.8014 31.872 26.6645 31.9376L26.3481 32.0864C26.4978 32.1449 26.6715 32.4409 26.8285 32.721L27.3489 33.6672C27.4982 33.8872 27.6049 34.1315 27.6644 34.3885L27.8471 34.3018C27.9639 34.2468 28.0548 34.199 28.0548 34.199C27.9069 34.1565 27.6903 33.717 27.5735 33.5061L27.1074 32.6712L28.438 33.7347C28.4807 33.7741 28.5369 33.7968 28.5957 33.7988C28.6546 33.8007 28.7125 33.7818 28.7579 33.7453C28.7968 33.7135 28.8295 33.6759 28.8559 33.6337L28.2918 31.8881L28.9932 32.7742C29.1673 32.9696 29.3068 33.1918 29.4058 33.4316L29.6901 33.2436C29.8544 33.1355 30.0002 33.0241 30.0002 33.0241C29.8214 33.001 29.5659 32.6323 29.429 32.4657Z" fill="#90949C"/>
<path d="M27.412 35.9003L27.3701 35.9217C27.392 35.9217 27.4161 35.9625 27.4307 35.9873L27.4967 36.0952C27.5076 36.1112 27.5386 36.1592 27.535 36.1822L27.5582 36.1697L27.584 36.1556C27.5639 36.1467 27.538 36.1006 27.5234 36.0758L27.4637 35.9819L27.617 36.1006C27.6195 36.1033 27.6224 36.1055 27.6259 36.1069C27.6293 36.1084 27.6328 36.1091 27.6366 36.1091C27.6404 36.1091 27.6447 36.1084 27.6482 36.1069C27.6516 36.1055 27.6545 36.1033 27.6571 36.1006L27.6696 36.0883L27.6054 35.8897L27.682 35.9907C27.7028 36.0129 27.7195 36.0388 27.7302 36.0669L27.7631 36.0457L27.7997 36.0208C27.774 36.0021 27.7516 35.9794 27.7337 35.9535L27.6606 35.8614C27.6386 35.8379 27.6236 35.8091 27.617 35.7781L27.5822 35.8012L27.5492 35.8187L27.6152 36.0156L27.445 35.8774L27.412 35.9003Z" fill="#90949C"/>
<path d="M14.6688 36.5614C14.6688 36.5614 14.4866 36.5011 14.3497 36.4515L13.9995 36.3276C13.9765 36.5947 13.9026 36.8554 13.782 37.0966L13.6582 37.398L12.8418 37.0718L12.9702 36.8059C13.0706 36.5932 13.2602 36.1202 13.3953 36.0688C13.2985 36.0316 13.2121 35.9942 13.0406 35.918C12.9405 35.8776 12.8436 35.8314 12.7492 35.7798C12.7091 36.055 12.617 36.3206 12.4774 36.5632L12.0407 37.5008C11.9038 37.7843 11.798 38.066 11.6191 38.1511C11.6191 38.1511 11.6756 38.1813 11.9293 38.2947C12.1446 38.3922 12.2947 38.4488 12.2947 38.4488C12.249 38.3265 12.4372 37.933 12.5157 37.7576L12.7581 37.2578L13.5922 37.5964L13.4318 38.034C13.3807 38.1723 13.2202 38.7236 13.0486 38.7679C13.1891 38.8264 13.2638 38.8494 13.3971 38.8955L13.7437 39.0143C13.6908 38.8814 13.8494 38.5127 13.9425 38.2575L14.2909 37.3199C14.3658 37.046 14.4941 36.7885 14.6688 36.5614Z" fill="#90949C"/>
<path d="M15.9959 36.9052C15.7349 36.7874 15.4425 36.7504 15.1591 36.7994C14.8757 36.8484 14.6154 36.981 14.4123 37.1791C14.2092 37.3771 14.0739 37.631 14.0246 37.9064C13.9753 38.1818 14.0145 38.4651 14.1369 38.7181C14.2593 38.9711 14.4584 39.1814 14.7082 39.3204C14.9579 39.4594 15.2458 39.5203 15.5325 39.495C15.8192 39.4696 16.0907 39.3592 16.3105 39.1787C16.5303 38.9982 16.6873 38.7563 16.7606 38.486C16.8261 38.3342 16.8586 38.1707 16.855 38.0061C16.8515 37.8416 16.8121 37.6796 16.7401 37.5306C16.668 37.3816 16.5643 37.2489 16.4362 37.1412C16.308 37.0335 16.1581 36.9531 15.9959 36.9052ZM16.2027 38.3425C16.0548 38.8919 15.8116 39.4059 15.348 39.2942C14.8844 39.1826 14.9373 38.6067 15.0851 38.0537C15.233 37.5008 15.4744 36.9903 15.9398 37.1072C16.4052 37.2242 16.3505 37.7949 16.2027 38.3425Z" fill="#90949C"/>
<path d="M17.8924 37.2598C17.5274 37.2155 17.2299 37.1834 17.0948 37.1533L16.9121 37.5449C17.0946 37.435 17.2131 37.405 17.642 37.4581L17.4397 38.9859C17.4147 39.1926 17.3786 39.3977 17.3319 39.6008C17.3174 39.6549 17.2906 39.7052 17.2534 39.7479C17.3264 39.7603 17.4929 39.7887 17.6188 39.8011C17.7448 39.8135 17.885 39.8277 17.9726 39.8383C17.9291 39.5777 17.9358 39.3116 17.9913 39.0532L18.1936 37.5202C18.5587 37.5468 18.7211 37.5645 18.8798 37.7435L18.8558 37.3519C18.8558 37.3519 18.137 37.2881 17.8924 37.2598Z" fill="#90949C"/>
<path d="M20.1825 38.4877C19.8028 38.2822 19.5203 38.1475 19.5203 37.8976C19.5162 37.848 19.5233 37.7981 19.5417 37.7518C19.5602 37.7054 19.589 37.6636 19.6264 37.6295C19.6637 37.5955 19.7085 37.5701 19.7574 37.5551C19.8062 37.5401 19.8582 37.5359 19.9089 37.543C20.0392 37.5505 20.1658 37.5892 20.2769 37.6557C20.3881 37.7222 20.4806 37.8145 20.5461 37.9242L20.6441 37.5252C20.4143 37.4053 20.1573 37.3443 19.8964 37.3481C19.42 37.3481 19.0141 37.5785 19.0141 38.0304C19.0141 38.3636 19.181 38.587 19.6264 38.8103C20.0717 39.0336 20.2012 39.1647 20.1994 39.3579C20.1978 39.4188 20.1825 39.4788 20.1557 39.534C20.129 39.5891 20.0908 39.638 20.0434 39.678C19.9961 39.718 19.9412 39.7482 19.8813 39.7663C19.8213 39.7844 19.7574 39.7901 19.695 39.7832C19.5523 39.7661 19.4175 39.712 19.3038 39.6266C19.1901 39.5411 19.1016 39.4274 19.0489 39.2975L18.9526 39.7336C19.175 39.9134 19.4575 40.0078 19.7467 39.9993C20.3399 40.0082 20.7244 39.6752 20.719 39.2162C20.7135 38.9627 20.615 38.7252 20.1825 38.4877Z" fill="#90949C"/>
<path d="M22.875 37.809C22.8273 37.6562 22.7272 37.5242 22.5908 37.4352C22.3546 37.294 22.0742 37.2393 21.8003 37.2809C21.2034 37.3359 20.8877 37.3819 20.8877 37.3819C20.9929 37.6205 21.0468 37.8774 21.0463 38.137L21.1684 39.3775C21.1929 39.5479 21.1821 39.7213 21.1372 39.8878C21.1372 39.8878 21.2887 39.8878 21.4803 39.8683C21.734 39.8488 21.868 39.8348 21.868 39.8348C21.7512 39.7338 21.7106 39.2427 21.6978 39.1027L21.5392 37.5185C21.5389 37.5136 21.5392 37.5086 21.5409 37.504C21.5426 37.4994 21.5456 37.495 21.549 37.4914C21.5523 37.4878 21.5569 37.4851 21.5614 37.483C21.566 37.4809 21.5707 37.4795 21.5757 37.4793C21.6396 37.4687 21.6996 37.4635 21.6996 37.4635C21.8456 37.4483 21.9923 37.4867 22.1104 37.5715C22.1785 37.627 22.2336 37.6962 22.2717 37.7742C22.3098 37.8522 22.3302 37.9371 22.3314 38.0234C22.3578 38.2032 22.3128 38.3861 22.2067 38.5357C22.1203 38.6367 21.9964 38.7004 21.8618 38.7129H21.8315C21.8041 38.7129 21.8056 38.7483 21.8056 38.7483V38.7678C21.8056 38.8529 21.8419 38.89 21.966 38.8812C22.1034 38.8828 22.2398 38.8578 22.3671 38.8076C22.4943 38.7574 22.6103 38.6831 22.7075 38.5889C22.8247 38.4666 22.8968 38.3101 22.9134 38.1439C22.9192 38.085 22.9192 38.0256 22.9134 37.9667C22.905 37.9132 22.8922 37.8605 22.875 37.809Z" fill="#90949C"/>
<path d="M25.0869 37.4704C24.9937 37.2183 24.9513 36.9513 24.9612 36.6836C24.8882 36.7084 24.7787 36.7368 24.6181 36.7846L24.275 36.8768C24.4112 37.0938 24.5023 37.3347 24.5432 37.5857L24.8338 38.649C24.8857 38.7987 24.8805 38.9614 24.8204 39.1081C24.7916 39.1555 24.7525 39.196 24.7054 39.2267C24.6584 39.2573 24.6047 39.2773 24.5486 39.2853C24.4962 39.2975 24.4421 39.299 24.3891 39.2898C24.336 39.2807 24.2851 39.261 24.2402 39.2321C24.117 39.1286 24.0371 38.9848 24.0157 38.828L23.7581 37.7646C23.6792 37.5171 23.656 37.256 23.6904 36.999C23.6904 36.999 23.5775 37.0257 23.3348 37.0682C23.0921 37.1108 22.9355 37.1338 22.9355 37.1338C23.0867 37.361 23.1824 37.6186 23.2163 37.8871L23.4186 38.7183C23.4742 38.9629 23.6279 39.1761 23.8454 39.3108C24.063 39.4456 24.3269 39.4908 24.5789 39.4367C24.8308 39.3827 25.0506 39.2337 25.1894 39.0224C25.3282 38.8112 25.3742 38.5551 25.3186 38.3105L25.0869 37.4704Z" fill="#90949C"/>
<path d="M27.9617 38.1032C27.5869 37.9426 27.2367 37.7314 26.9226 37.4759C27.0241 37.4063 27.1092 37.3161 27.1712 37.2117C27.2535 37.0761 27.2825 36.9165 27.2532 36.7617C27.2449 36.7132 27.2315 36.6656 27.2131 36.6198C27.1919 36.5707 27.1656 36.5238 27.1347 36.4798C27.0541 36.3611 26.9314 36.2753 26.7898 36.2388C26.5091 36.1779 26.2152 36.2124 25.9575 36.3364C25.698 36.4477 25.4323 36.5446 25.1616 36.6269C25.2876 36.6943 25.4394 37.1143 25.527 37.3482L25.863 38.3194C25.9613 38.5478 26.016 38.7915 26.0252 39.0389C26.0252 39.0389 26.153 39.0034 26.3665 38.929C26.58 38.8546 26.7185 38.8016 26.7185 38.8016C26.5944 38.7325 26.4575 38.3196 26.379 38.1087L25.8612 36.6696C25.8375 36.6058 25.8612 36.5897 25.8612 36.5897C25.9007 36.5622 25.9433 36.5396 25.9886 36.5224C26.1041 36.4739 26.2333 36.4675 26.3531 36.5047C26.4297 36.5346 26.4991 36.5798 26.5563 36.6375C26.6136 36.6953 26.6577 36.7641 26.6855 36.8396C26.7259 36.9147 26.7481 36.9978 26.7506 37.0826C26.7531 37.1673 26.7365 37.2515 26.7007 37.3287C26.6438 37.4483 26.545 37.545 26.4226 37.6018L26.3995 37.6124C26.3972 37.6132 26.395 37.6142 26.3932 37.6158C26.3914 37.6174 26.3898 37.6195 26.3888 37.6217C26.3878 37.6238 26.3871 37.626 26.387 37.6284C26.3869 37.6307 26.387 37.6331 26.3879 37.6353C26.7117 37.9658 27.0925 38.2394 27.5126 38.4435C27.6089 38.4711 27.7119 38.47 27.8076 38.4403C27.9032 38.4106 27.9871 38.3537 28.0491 38.277C28.0946 38.2328 28.1278 38.1777 28.1444 38.1173C28.1146 38.1272 28.0822 38.1312 28.0508 38.1288C28.0195 38.1263 27.9895 38.1176 27.9617 38.1032Z" fill="#90949C"/>
<path d="M15.541 26.9433C15.4228 26.9123 15.3204 26.8412 15.2514 26.7429C15.0691 26.9593 14.938 27.212 14.8673 27.483C14.7967 27.754 14.788 28.0368 14.8424 28.3114C15.1384 29.2803 15.7262 30.1411 16.5303 30.7829C17.3343 31.4246 18.3172 31.8181 19.3535 31.9126C18.2975 31.5216 17.3784 30.8465 16.7032 29.9664C16.0279 29.0863 15.6247 28.0377 15.541 26.9433Z" fill="#90949C"/>
<path d="M14.6545 27.3953C14.7492 27.0468 14.9034 26.7161 15.1107 26.4171C15.0703 26.2075 15.075 25.9919 15.125 25.7843C15.0134 25.7101 14.9076 25.6285 14.8077 25.5398C14.6674 26.0401 14.6057 26.5581 14.625 27.0762C14.6336 27.1826 14.6435 27.289 14.6545 27.3953Z" fill="#90949C"/>
<path d="M20.9787 31.8155C21.7803 31.6416 22.5288 31.2869 23.163 30.7801C23.7972 30.2733 24.2991 29.6287 24.629 28.8983C24.5439 28.9127 24.4577 28.9208 24.3714 28.923C24.3027 29.2481 24.1122 29.537 23.8367 29.7334C23.5612 29.9299 23.2205 30.0201 22.8805 29.9865C22.4438 29.9402 22.012 29.8572 21.59 29.7384C21.439 29.6833 21.3012 29.5996 21.1837 29.4922C21.0662 29.3848 20.9714 29.2558 20.9056 29.1127C20.8334 28.9619 20.7926 28.7987 20.7853 28.6325C20.7815 28.5018 20.7956 28.3713 20.8272 28.2443C19.2671 27.7894 17.7522 27.1992 16.3009 26.481C16.2604 26.5543 16.2119 26.6231 16.1565 26.6865C16.0783 26.7822 15.9781 26.8582 15.8633 26.908C15.9788 27.8817 16.3225 28.8166 16.8685 29.6408C17.4873 30.6578 18.488 31.4019 19.6606 31.7162C20.0876 31.8397 20.5372 31.8736 20.9787 31.8155Z" fill="#90949C"/>
<path d="M15.2257 25.4864C15.2765 25.3701 15.3438 25.2615 15.4262 25.1638C15.4857 25.0953 15.5557 25.0356 15.633 24.9866C15.8054 24.1428 16.218 23.3629 16.8245 22.7358C15.9331 23.3511 15.2618 24.2218 14.9058 25.2259C15.0002 25.3257 15.1081 25.4133 15.2257 25.4864Z" fill="#90949C"/>
<path d="M15.6195 26.7076C15.6874 26.7097 15.7548 26.6946 15.8147 26.6634C15.8746 26.6323 15.925 26.5864 15.9608 26.5304C16.0871 26.3702 16.1743 26.184 16.2148 25.9861C16.2553 25.7882 16.2479 25.5841 16.1943 25.3892C16.1432 25.251 16.063 25.164 15.9644 25.1463C15.8988 25.1372 15.8325 25.145 15.771 25.169C15.7095 25.1929 15.6551 25.2322 15.6142 25.2828C15.5013 25.4107 15.4158 25.5592 15.3628 25.7196C15.3099 25.8799 15.2906 26.0489 15.3058 26.2167C15.3089 26.2972 15.3246 26.3768 15.353 26.4525C15.3731 26.5127 15.4083 26.5673 15.4546 26.6117C15.501 26.6562 15.5572 26.689 15.6195 26.7076Z" fill="#90949C"/>
<path d="M24.0452 27.9502C23.9986 27.8686 23.9352 27.7973 23.8589 27.7406C23.7826 27.6839 23.6947 27.6429 23.6014 27.6205L23.3991 27.5781C23.2166 27.5427 22.9409 27.4876 22.5266 27.3884C22.2651 27.3212 21.987 27.3518 21.7477 27.4743C21.5084 27.5967 21.3252 27.8021 21.2344 28.0495C21.5045 28.1257 21.7693 28.1967 22.0284 28.2605C22.053 28.15 22.0698 28.038 22.0792 27.9254C22.0819 27.8845 22.101 27.8464 22.1327 27.8193C22.1644 27.7923 22.2064 27.7785 22.2485 27.7811C22.2907 27.7836 22.3294 27.8022 22.3573 27.833C22.3852 27.8637 22.3991 27.9039 22.3965 27.9448C22.3851 28.0753 22.3655 28.205 22.3368 28.3329L22.4901 28.3684L22.6433 28.4004C22.689 28.1842 22.7182 27.9999 22.72 27.9963C22.7271 27.9566 22.7496 27.9212 22.7833 27.8977C22.8169 27.8741 22.859 27.8644 22.9 27.8704C22.941 27.8764 22.9784 27.8978 23.0034 27.9299C23.0284 27.962 23.0389 28.0024 23.0337 28.0424C23.0337 28.0566 23.0009 28.2408 22.9553 28.4623L23.2583 28.5155C23.2793 28.4042 23.2938 28.2918 23.3019 28.1789C23.3029 28.1586 23.3082 28.1386 23.3171 28.1203C23.3259 28.1019 23.3382 28.0855 23.3536 28.0718C23.369 28.0581 23.3874 28.0475 23.4071 28.0407C23.4267 28.0338 23.4477 28.0308 23.4686 28.0318C23.4894 28.0327 23.5095 28.0377 23.5283 28.0463C23.5471 28.0549 23.5643 28.067 23.5782 28.082C23.5921 28.097 23.6025 28.1146 23.6094 28.1337C23.6163 28.1527 23.6195 28.1728 23.6183 28.193C23.6106 28.3166 23.5946 28.4397 23.572 28.5616C23.791 28.5917 23.9756 28.6077 24.1289 28.6148C24.187 28.3909 24.1573 28.1539 24.0452 27.9502Z" fill="#90949C"/>
<path d="M20.8964 17.4158C20.9235 18.6893 20.5048 19.9339 19.7085 20.9461C18.3597 22.254 17.2482 21.3006 17.2354 22.6138C16.5841 23.2349 16.1418 24.0333 15.9681 24.9036H16.0082C16.1373 24.9289 16.2518 25.002 16.3264 25.1074C17.2101 24.4182 18.2335 23.9175 19.3297 23.6378C20.4259 23.3581 21.5701 23.3057 22.6886 23.4839C23.2744 23.5901 23.8231 23.8382 24.2838 24.2052C23.6621 23.227 22.7172 22.483 21.6031 22.0946C21.3366 22.0024 20.8723 21.8959 20.8723 21.0594C20.8723 19.4998 22.6301 20.7051 23.7928 19.0126C23.8493 18.9293 23.7676 18.8566 23.7001 18.9222C23.2191 19.2762 22.6368 19.4768 22.0336 19.4964C21.8189 19.5126 21.603 19.4779 21.4053 19.3953C21.6877 18.8602 22.0109 18.3461 22.3713 17.8571C21.2963 16.8133 23.1011 11.071 27.8958 11.071C27.9062 10.0154 27.7989 8.9619 27.575 7.92888C27.46 7.95546 26.5582 8.16273 26.518 7.97842C26.4779 7.7941 27.1824 7.46104 27.4306 7.34584C27.3228 6.93893 27.1641 6.54613 26.9591 6.17609C22.8562 7.43262 23.6743 10.7307 22.6814 10.7307C22.1616 10.6831 21.6806 10.4441 21.3366 10.0626C18.8855 7.6825 20.0275 6.10702 20.0275 2.94354C20.0275 0.81683 19.175 0.01581 17.6017 0.01581C17.2177 -0.0247665 16.829 0.0129497 16.461 0.126792C16.0929 0.240635 15.7537 0.427955 15.4646 0.676729C15.7602 0.686047 16.0512 0.752298 16.3202 0.871651C16.5891 0.991003 16.8306 1.16115 17.0313 1.37205C17.232 1.58294 17.388 1.83047 17.4894 2.10025C17.5908 2.37002 17.6359 2.65668 17.6222 2.94354C17.6222 5.24747 14.9522 5.88199 14.9522 8.80267C14.9339 13.6693 20.8964 13.5789 20.8964 17.4158ZM18.0526 2.94873C18.0543 2.69108 18.0252 2.43411 17.9653 2.1831C18.0356 2.17566 18.1031 2.15476 18.1649 2.12145C18.2267 2.08813 18.2816 2.04324 18.3253 1.98926C18.369 1.93529 18.4011 1.87331 18.4198 1.8071C18.4385 1.7409 18.4432 1.67182 18.4341 1.60375C18.4432 1.45289 18.4112 1.30221 18.3414 1.16717C18.2715 1.03213 18.1667 0.91737 18.0366 0.83444C17.9691 0.83444 17.9509 0.9054 17.8049 0.9054C17.4398 0.9054 17.4199 0.460605 17.4199 0.460605H17.5839C18.6096 0.460605 19.5587 0.763671 19.5587 2.95241C19.5501 3.67697 19.5007 4.40058 19.4108 5.11992C19.3304 5.71036 19.292 6.30548 19.2958 6.90105C19.2958 6.90105 17.509 6.69715 17.509 5.39099C17.509 4.54031 18.0526 4.33464 18.0526 2.94873Z" fill="#90949C"/>
<path d="M21.9497 28.5579C21.6814 28.4923 21.4018 28.4196 21.128 28.3398C21.0715 28.557 21.0931 28.7865 21.1886 28.9904C21.2865 29.2032 21.4667 29.37 21.6904 29.4546C22.0894 29.5649 22.4971 29.6426 22.9095 29.6868C23.1602 29.7088 23.4106 29.6436 23.6162 29.5027C23.8219 29.3618 23.9688 29.1544 24.0315 28.9177C23.8636 28.9088 23.683 28.8893 23.4968 28.8645C23.4624 28.9753 23.4164 29.0823 23.3587 29.1836C23.3484 29.201 23.3341 29.2163 23.3177 29.2286C23.3013 29.2409 23.2824 29.2499 23.2624 29.2552C23.2424 29.2604 23.2224 29.2619 23.2018 29.2593C23.1813 29.2567 23.161 29.2503 23.143 29.2403C23.125 29.2302 23.1093 29.2168 23.0967 29.2009C23.084 29.185 23.0744 29.1669 23.069 29.1474C23.0636 29.128 23.0628 29.1077 23.0655 29.0877C23.0681 29.0678 23.0748 29.0485 23.0851 29.031C23.1228 28.9622 23.1541 28.8906 23.1795 28.8167C23.081 28.8007 22.9822 28.7812 22.8837 28.7634C22.8549 28.8795 22.817 28.9933 22.7705 29.1037C22.7623 29.1223 22.7506 29.1392 22.7357 29.1533C22.7208 29.1674 22.7034 29.1785 22.684 29.1859C22.6647 29.1934 22.6442 29.197 22.6234 29.1966C22.6026 29.1961 22.5819 29.1918 22.5628 29.1836C22.5243 29.1669 22.4935 29.136 22.4782 29.0979C22.4628 29.0598 22.4642 29.0174 22.4808 28.9798C22.5182 28.8891 22.5489 28.796 22.5735 28.7013L22.4202 28.6678L22.258 28.6306C22.2288 28.721 22.1957 28.8078 22.1556 28.9071C22.1391 28.9447 22.1081 28.9742 22.0691 28.9895C22.0301 29.0048 21.9866 29.0044 21.9479 28.9884C21.9287 28.9809 21.911 28.9697 21.8962 28.9555C21.8815 28.9413 21.8694 28.9244 21.8615 28.9058C21.8535 28.8872 21.8498 28.8671 21.8499 28.8469C21.8499 28.8268 21.8534 28.8069 21.8615 28.7883C21.8961 28.7103 21.9241 28.6323 21.9497 28.5579Z" fill="#90949C"/>
<path d="M20.9279 27.9606C21.0422 27.6367 21.2784 27.3666 21.5892 27.2049C21.9 27.0432 22.2623 27.0018 22.6034 27.0887C23.0104 27.188 23.2708 27.2393 23.4625 27.2765L23.6728 27.3191C23.8089 27.3512 23.9365 27.4103 24.048 27.4926C24.1595 27.575 24.2525 27.6787 24.3207 27.7975C24.4619 28.0464 24.508 28.3357 24.4517 28.6146C24.5615 28.6204 24.6714 28.5964 24.7681 28.5453C25.1731 27.4162 25.1565 26.1849 24.7208 25.0666C24.4967 24.71 24.1898 24.4089 23.8252 24.1872C23.4606 23.9654 23.0476 23.8289 22.6194 23.7887C21.5335 23.6166 20.4226 23.6716 19.3603 23.9501C18.2981 24.2285 17.3088 24.7239 16.4595 25.4032C16.5206 25.6683 16.5068 25.9446 16.4194 26.2026C17.8638 26.9208 19.3732 27.5092 20.9279 27.9606Z" fill="#90949C"/>
</svg>
