<svg width="64" height="64" viewBox="0 0 64 64" fill="none" xmlns="http://www.w3.org/2000/svg">
<circle cx="32" cy="32" r="32" fill="#26324D"/>
<path d="M32.1877 35.9583V35.9592L32.1887 35.9583H40.2854C42.9885 35.9584 45.5675 37.1205 47.3606 39.1467L48.0002 39.8694L47.5227 40.7092C44.3904 46.2135 38.5148 49.6329 32.1887 49.6331L32.1877 49.6311V49.6331C25.8616 49.633 19.986 46.2135 16.8538 40.7092L16.3762 39.8704L17.0159 39.1467C18.809 37.1205 21.388 35.9583 24.0911 35.9583H32.1877ZM32.6741 14.3801C37.6651 14.6331 41.634 18.7598 41.634 23.8137C41.6339 28.8676 37.6651 32.9944 32.6741 33.2473L32.1877 33.26L31.7024 33.2473C26.7112 32.9945 22.7425 28.8677 22.7424 23.8137C22.7424 18.5969 26.971 14.3676 32.1877 14.3674L32.6741 14.3801Z" fill="#CAAB72"/>
<path opacity="0.1" d="M32.8262 0.0107422C50.1175 0.44895 64 14.6031 64 32C64 49.3969 50.1175 63.551 32.8262 63.9893L32 64V0L32.8262 0.0107422Z" fill="#222939"/>
</svg>
