<svg width="24" height="24" viewBox="0 0 24 24" fill="none" xmlns="http://www.w3.org/2000/svg">
<g clip-path="url(#clip0_1_6995)">
<path d="M15.0547 3.97324C14.577 4.47092 14.577 5.27487 15.0547 5.77255L19.8076 10.7239L1.22496 10.7239C0.551233 10.7239 1.34599e-06 11.2981 1.4687e-06 12C1.59142e-06 12.7018 0.551233 13.2761 1.22496 13.2761L19.8198 13.2761L15.067 18.2274C14.5893 18.7251 14.5893 19.529 15.067 20.0267C15.5447 20.5244 16.3165 20.5244 16.7942 20.0267L23.6417 12.8932C24.1194 12.3956 24.1194 11.5916 23.6417 11.0939L16.7819 3.97324C16.3164 3.47555 15.5325 3.47555 15.0547 3.97324Z" fill="#90949C"/>
</g>
<defs>
<clipPath id="clip0_1_6995">
<rect width="24" height="24" fill="white" transform="translate(24 24) rotate(180)"/>
</clipPath>
</defs>
</svg>
